<svg width="358" height="254" viewBox="0 0 358 254" fill="none" xmlns="http://www.w3.org/2000/svg">
<path fill-rule="evenodd" clip-rule="evenodd" d="M271.824 12.9165C270.35 5.41213 263.772 0 256.124 0H16C7.16344 0 0 7.16344 0 16V212.183C0 221.02 7.16344 228.183 16 228.183H63.2931C70.9359 228.183 77.5102 233.592 78.9831 241.092V241.092C80.456 248.591 87.0303 254 94.6732 254H342C350.837 254 358 246.837 358 238V62.6343C358 53.7978 350.837 46.6343 342 46.6343H291.609C283.962 46.6343 277.383 41.2222 275.909 33.7178L271.824 12.9165Z" fill="#EE4503"/>
</svg>
