<svg width="607" height="303" viewBox="0 0 607 303" fill="none" xmlns="http://www.w3.org/2000/svg">
<path fill-rule="evenodd" clip-rule="evenodd" d="M459.833 11.7242C457.912 4.79587 451.605 0 444.415 0H16C7.16343 0 0 7.16344 0 16V258C0 266.837 7.16344 274 16 274H117.453C124.643 274 130.95 278.796 132.871 285.724L134.411 291.276C136.332 298.204 142.639 303 149.829 303H591C599.837 303 607 295.837 607 287V72C607 63.1634 599.837 56 591 56H484.278C477.088 56 470.782 51.2041 468.86 44.2758L459.833 11.7242Z" fill="#E0E0E0"/>
</svg>
