<svg width="48" height="48" viewBox="0 0 48 48" fill="none" xmlns="http://www.w3.org/2000/svg">
<g clip-path="url(#clip0_272_6495)">
<path d="M18.375 33.9375H16.5C14.6906 33.9375 13.2188 35.4093 13.2188 37.2188V44.7188C13.2188 46.5282 14.6906 48 16.5 48H18.375C20.1844 48 21.6562 46.5282 21.6562 44.7188V37.2188C21.6562 35.4093 20.1844 33.9375 18.375 33.9375ZM18.8438 44.7188C18.8438 44.9773 18.6335 45.1875 18.375 45.1875H16.5C16.2415 45.1875 16.0312 44.9773 16.0312 44.7188V37.2188C16.0312 36.9602 16.2415 36.75 16.5 36.75H18.375C18.6335 36.75 18.8438 36.9602 18.8438 37.2188V44.7188Z" fill="#717171"/>
<path d="M7.125 45.1875H5.71875V35.3438C5.71875 34.567 5.08923 33.9375 4.3125 33.9375H1.5C0.723267 33.9375 0.09375 34.567 0.09375 35.3438C0.09375 36.1205 0.723267 36.75 1.5 36.75H2.90625V45.1875H1.5C0.723267 45.1875 0.09375 45.817 0.09375 46.5938C0.09375 47.3705 0.723267 48 1.5 48H7.125C7.90173 48 8.53125 47.3705 8.53125 46.5938C8.53125 45.817 7.90173 45.1875 7.125 45.1875Z" fill="#717171"/>
<path d="M44.625 33.9375H42.75C40.9406 33.9375 39.4688 35.4093 39.4688 37.2188V44.7188C39.4688 46.5282 40.9406 48 42.75 48H44.625C46.4344 48 47.9062 46.5282 47.9062 44.7188V37.2188C47.9062 35.4093 46.4344 33.9375 44.625 33.9375ZM45.0938 44.7188C45.0938 44.9773 44.8835 45.1875 44.625 45.1875H42.75C42.4915 45.1875 42.2812 44.9773 42.2812 44.7188V37.2188C42.2812 36.9602 42.4915 36.75 42.75 36.75H44.625C44.8835 36.75 45.0938 36.9602 45.0938 37.2188V44.7188Z" fill="#717171"/>
<path d="M33.375 45.1875H31.9688V35.3438C31.9688 34.567 31.3392 33.9375 30.5625 33.9375H27.75C26.9733 33.9375 26.3438 34.567 26.3438 35.3438C26.3438 36.1205 26.9733 36.75 27.75 36.75H29.1562V45.1875H27.75C26.9733 45.1875 26.3438 45.817 26.3438 46.5938C26.3438 47.3705 26.9733 48 27.75 48H33.375C34.1517 48 34.7812 47.3705 34.7812 46.5938C34.7812 45.817 34.1517 45.1875 33.375 45.1875Z" fill="#717171"/>
<path d="M18.375 16.9688H16.5C14.6906 16.9688 13.2188 18.4406 13.2188 20.25V27.75C13.2188 29.5594 14.6906 31.0312 16.5 31.0312H18.375C20.1844 31.0312 21.6562 29.5594 21.6562 27.75V20.25C21.6562 18.4406 20.1844 16.9688 18.375 16.9688ZM18.8438 27.75C18.8438 28.0085 18.6335 28.2188 18.375 28.2188H16.5C16.2415 28.2188 16.0312 28.0085 16.0312 27.75V20.25C16.0312 19.9915 16.2415 19.7812 16.5 19.7812H18.375C18.6335 19.7812 18.8438 19.9915 18.8438 20.25V27.75Z" fill="#717171"/>
<path d="M7.125 28.2188H5.71875V18.375C5.71875 17.5983 5.08923 16.9688 4.3125 16.9688H1.5C0.723267 16.9688 0.09375 17.5983 0.09375 18.375C0.09375 19.1517 0.723267 19.7812 1.5 19.7812H2.90625V28.2188H1.5C0.723267 28.2188 0.09375 28.8483 0.09375 29.625C0.09375 30.4017 0.723267 31.0312 1.5 31.0312H7.125C7.90173 31.0312 8.53125 30.4017 8.53125 29.625C8.53125 28.8483 7.90173 28.2188 7.125 28.2188Z" fill="#717171"/>
<path d="M31.5 16.9688H29.625C27.8156 16.9688 26.3438 18.4406 26.3438 20.25V27.75C26.3438 29.5594 27.8156 31.0312 29.625 31.0312H31.5C33.3094 31.0312 34.7812 29.5594 34.7812 27.75V20.25C34.7812 18.4406 33.3094 16.9688 31.5 16.9688ZM31.9688 27.75C31.9688 28.0085 31.7585 28.2188 31.5 28.2188H29.625C29.3665 28.2188 29.1562 28.0085 29.1562 27.75V20.25C29.1562 19.9915 29.3665 19.7812 29.625 19.7812H31.5C31.7585 19.7812 31.9688 19.9915 31.9688 20.25V27.75Z" fill="#717171"/>
<path d="M46.5 28.2188H45.0938V18.375C45.0938 17.5983 44.4642 16.9688 43.6875 16.9688H40.875C40.0983 16.9688 39.4688 17.5983 39.4688 18.375C39.4688 19.1517 40.0983 19.7812 40.875 19.7812H42.2812V28.2188H40.875C40.0983 28.2188 39.4688 28.8483 39.4688 29.625C39.4688 30.4017 40.0983 31.0312 40.875 31.0312H46.5C47.2767 31.0312 47.9062 30.4017 47.9062 29.625C47.9062 28.8483 47.2767 28.2188 46.5 28.2188Z" fill="#717171"/>
<path d="M5.25 0H3.375C1.56555 0 0.09375 1.4718 0.09375 3.28125V10.7812C0.09375 12.5907 1.56555 14.0625 3.375 14.0625H5.25C7.05945 14.0625 8.53125 12.5907 8.53125 10.7812V3.28125C8.53125 1.4718 7.05945 0 5.25 0ZM5.71875 10.7812C5.71875 11.0398 5.50854 11.25 5.25 11.25H3.375C3.11646 11.25 2.90625 11.0398 2.90625 10.7812V3.28125C2.90625 3.02271 3.11646 2.8125 3.375 2.8125H5.25C5.50854 2.8125 5.71875 3.02271 5.71875 3.28125V10.7812Z" fill="#717171"/>
<path d="M20.25 11.25H18.8438V1.40625C18.8438 0.629517 18.2142 0 17.4375 0H14.625C13.8483 0 13.2188 0.629517 13.2188 1.40625C13.2188 2.18298 13.8483 2.8125 14.625 2.8125H16.0312V11.25H14.625C13.8483 11.25 13.2188 11.8795 13.2188 12.6562C13.2188 13.433 13.8483 14.0625 14.625 14.0625H20.25C21.0267 14.0625 21.6562 13.433 21.6562 12.6562C21.6562 11.8795 21.0267 11.25 20.25 11.25Z" fill="#717171"/>
<path d="M44.625 0H42.75C40.9406 0 39.4688 1.4718 39.4688 3.28125V10.7812C39.4688 12.5907 40.9406 14.0625 42.75 14.0625H44.625C46.4344 14.0625 47.9062 12.5907 47.9062 10.7812V3.28125C47.9062 1.4718 46.4344 0 44.625 0ZM45.0938 10.7812C45.0938 11.0398 44.8835 11.25 44.625 11.25H42.75C42.4915 11.25 42.2812 11.0398 42.2812 10.7812V3.28125C42.2812 3.02271 42.4915 2.8125 42.75 2.8125H44.625C44.8835 2.8125 45.0938 3.02271 45.0938 3.28125V10.7812Z" fill="#717171"/>
<path d="M33.375 11.25H31.9688V1.40625C31.9688 0.629517 31.3392 0 30.5625 0H27.75C26.9733 0 26.3438 0.629517 26.3438 1.40625C26.3438 2.18298 26.9733 2.8125 27.75 2.8125H29.1562V11.25H27.75C26.9733 11.25 26.3438 11.8795 26.3438 12.6562C26.3438 13.433 26.9733 14.0625 27.75 14.0625H33.375C34.1517 14.0625 34.7812 13.433 34.7812 12.6562C34.7812 11.8795 34.1517 11.25 33.375 11.25Z" fill="#717171"/>
</g>
<defs>
<clipPath id="clip0_272_6495">
<rect width="48" height="48" fill="white"/>
</clipPath>
</defs>
</svg>
