<svg width="48" height="48" viewBox="0 0 48 48" fill="none" xmlns="http://www.w3.org/2000/svg">
<g clip-path="url(#clip0_272_6529)">
<path d="M33.375 20.25C33.375 17.8057 31.8073 15.7216 29.625 14.9475V12.75C29.625 11.7144 28.7856 10.875 27.75 10.875C26.7144 10.875 25.875 11.7144 25.875 12.75V14.625H22.125V12.75C22.125 11.7144 21.2856 10.875 20.25 10.875C19.2144 10.875 18.375 11.7144 18.375 12.75V14.625H16.5C15.4644 14.625 14.625 15.4644 14.625 16.5C14.625 17.5356 15.4644 18.375 16.5 18.375H18.375V29.625H16.5C15.4644 29.625 14.625 30.4644 14.625 31.5C14.625 32.5356 15.4644 33.375 16.5 33.375H18.375V35.25C18.375 36.2856 19.2144 37.125 20.25 37.125C21.2856 37.125 22.125 36.2856 22.125 35.25V33.375H25.875V35.25C25.875 36.2856 26.7144 37.125 27.75 37.125C28.7856 37.125 29.625 36.2856 29.625 35.25V33.0525C31.8073 32.2785 33.375 30.1943 33.375 27.75C33.375 26.3107 32.8316 24.9959 31.9392 24C32.8316 23.0041 33.375 21.6893 33.375 20.25ZM27.75 29.625H22.125V25.875H27.75C28.7839 25.875 29.625 26.7161 29.625 27.75C29.625 28.7839 28.7839 29.625 27.75 29.625ZM27.75 22.125H22.125V18.375H27.75C28.7839 18.375 29.625 19.2161 29.625 20.25C29.625 21.2839 28.7839 22.125 27.75 22.125Z" fill="#717171"/>
<path d="M24 48C10.5421 48 0 37.458 0 24C0 10.542 10.5421 0 24 0C28.8844 0 33.5975 1.43991 37.6297 4.164C38.4877 4.74366 38.7134 5.90925 38.1337 6.76734C37.5539 7.62544 36.3884 7.851 35.5303 7.27134C32.1204 4.96762 28.1333 3.75 24 3.75C12.6448 3.75 3.75 12.6449 3.75 24C3.75 35.3551 12.6448 44.25 24 44.25C35.3552 44.25 44.25 35.3551 44.25 24C44.25 19.8667 43.0324 15.8796 40.7287 12.4697C40.1489 11.6116 40.3747 10.4461 41.2327 9.86634C42.0908 9.28669 43.2563 9.51225 43.836 10.3703C46.5601 14.4025 48 19.1156 48 24C48 37.458 37.4579 48 24 48Z" fill="#717171"/>
</g>
<defs>
<clipPath id="clip0_272_6529">
<rect width="48" height="48" fill="white"/>
</clipPath>
</defs>
</svg>
