<svg width="319" height="89" viewBox="0 0 319 89" fill="none" xmlns="http://www.w3.org/2000/svg">
<path fill-rule="evenodd" clip-rule="evenodd" d="M249.788 28.544C248.722 25.2396 245.646 23 242.174 23H76.825C73.3529 23 70.2772 25.2396 69.2113 28.544L62.7881 48.456C61.7221 51.7604 58.6465 54 55.1744 54H24.6424C21.7715 54 19.1208 55.5383 17.6965 58.0309L6.83932 77.0309C3.79174 82.3641 7.64267 89 13.7852 89H305.214C311.357 89 315.208 82.3641 312.16 77.0309L301.303 58.0309C299.879 55.5383 297.228 54 294.357 54H263.825C260.353 54 257.277 51.7604 256.211 48.456L249.788 28.544Z" fill="#EE4503"/>
<path d="M17.6966 58.0309C19.121 55.5383 21.7717 54 24.6426 54H294.357C297.228 54 299.879 55.5383 301.303 58.0309L319 89H0L17.6966 58.0309Z" fill="#EE4503"/>
<path d="M105.84 59.24C105.84 63.44 102.7 66 98.56 66H94.02V52.6H98.66C102.96 52.6 105.84 55.26 105.84 59.24ZM103.74 59.24C103.74 56.4 101.66 54.48 98.66 54.48H96.06V64.14H98.56C101.48 64.14 103.74 62.3 103.74 59.24ZM109.663 54.26C108.943 54.26 108.363 53.68 108.363 52.96C108.363 52.24 108.943 51.64 109.663 51.64C110.383 51.64 110.943 52.24 110.943 52.96C110.943 53.68 110.383 54.26 109.663 54.26ZM108.683 56.2H110.663V66H108.683V56.2ZM117.409 66.22C115.589 66.22 114.189 65.5 113.429 64.04L114.949 63.2C115.449 64.18 116.249 64.54 117.329 64.54C118.449 64.54 119.309 64.08 119.309 63.22C119.309 61.16 113.689 62.72 113.689 58.98C113.689 57.26 115.209 56 117.349 56C119.169 56 120.409 56.84 121.029 57.98L119.509 58.84C119.089 57.98 118.289 57.68 117.389 57.68C116.469 57.68 115.669 58.16 115.669 58.94C115.669 60.94 121.289 59.48 121.289 63.18C121.289 65.04 119.489 66.22 117.409 66.22ZM128.174 66.22C125.354 66.26 123.054 63.92 123.054 61.08C123.054 58.26 125.354 55.94 128.174 55.96C129.974 55.96 131.634 56.78 132.534 58.54L130.894 59.46C130.314 58.4 129.334 57.84 128.174 57.84C126.454 57.84 125.034 59.3 125.034 61.08C125.034 62.88 126.454 64.36 128.174 64.36C129.334 64.36 130.314 63.8 130.894 62.74L132.534 63.64C131.634 65.42 129.974 66.22 128.174 66.22ZM139.173 66.24C136.213 66.24 133.933 63.92 133.933 61.08C133.933 58.26 136.233 55.96 139.173 55.96C142.133 55.96 144.373 58.28 144.373 61.08C144.373 63.92 142.113 66.24 139.173 66.24ZM139.173 64.36C140.993 64.36 142.393 62.88 142.393 61.1C142.393 59.3 140.993 57.82 139.173 57.82C137.333 57.82 135.913 59.3 135.913 61.1C135.913 62.88 137.333 64.36 139.173 64.36ZM148.387 64.72L145.227 56.2H147.347L150.227 64.18C150.247 64.28 150.327 64.38 150.447 64.38C150.587 64.38 150.667 64.28 150.687 64.18L153.567 56.2H155.667L152.487 64.72C152.107 65.74 151.407 66.26 150.447 66.26C149.527 66.26 148.767 65.74 148.387 64.72ZM161.73 66.22C158.75 66.22 156.53 64.06 156.53 61.04C156.53 58.22 158.55 55.92 161.49 55.92C164.45 55.92 166.29 58.06 166.29 60.8V61.6H158.45C158.67 63.28 159.95 64.46 161.71 64.46C162.91 64.46 163.99 63.94 164.57 62.86L166.09 63.64C165.23 65.32 163.65 66.22 161.73 66.22ZM158.53 60.32H164.31C164.23 58.76 163.09 57.7 161.47 57.7C159.81 57.7 158.73 58.86 158.53 60.32ZM170.634 66H168.654V60.16C168.654 57.78 170.014 56 172.574 56C173.194 56 173.834 56.12 174.334 56.36V58.32C173.854 58.04 173.294 57.9 172.754 57.9C171.434 57.9 170.634 58.8 170.634 60.24V66ZM193.353 55.92C196.313 55.92 197.913 58.12 197.913 60.84V66H195.933V61.16C195.933 59.38 195.053 57.82 193.213 57.82C191.433 57.82 190.533 59.32 190.533 61.12V66H188.553V61.12C188.553 59.32 187.653 57.82 185.833 57.82C183.993 57.82 183.173 59.38 183.173 61.16V66H181.193V60.86C181.193 58.12 182.753 55.92 185.693 55.92C187.653 55.92 189.073 56.92 189.573 58.44C190.113 56.92 191.493 55.92 193.353 55.92ZM205.364 66.24C202.404 66.24 200.124 63.92 200.124 61.08C200.124 58.26 202.424 55.96 205.364 55.96C208.324 55.96 210.564 58.28 210.564 61.08C210.564 63.92 208.304 66.24 205.364 66.24ZM205.364 64.36C207.184 64.36 208.584 62.88 208.584 61.1C208.584 59.3 207.184 57.82 205.364 57.82C203.524 57.82 202.104 59.3 202.104 61.1C202.104 62.88 203.524 64.36 205.364 64.36ZM214.755 66H212.775V60.16C212.775 57.78 214.135 56 216.695 56C217.315 56 217.955 56.12 218.455 56.36V58.32C217.975 58.04 217.415 57.9 216.875 57.9C215.555 57.9 214.755 58.8 214.755 60.24V66ZM224.484 66.22C221.504 66.22 219.284 64.06 219.284 61.04C219.284 58.22 221.304 55.92 224.244 55.92C227.204 55.92 229.044 58.06 229.044 60.8V61.6H221.204C221.424 63.28 222.704 64.46 224.464 64.46C225.664 64.46 226.744 63.94 227.324 62.86L228.844 63.64C227.984 65.32 226.404 66.22 224.484 66.22ZM221.284 60.32H227.064C226.984 58.76 225.844 57.7 224.224 57.7C222.564 57.7 221.484 58.86 221.284 60.32Z" fill="white"/>
</svg>
