<svg width="309" height="78" viewBox="0 0 309 78" fill="none" xmlns="http://www.w3.org/2000/svg">
<path fill-rule="evenodd" clip-rule="evenodd" d="M237.174 0C240.646 0 243.722 2.2396 244.788 5.54398L251.211 25.456C252.277 28.7604 255.353 31 258.825 31H289.357C292.228 31 294.879 32.5383 296.303 35.0309L307.16 54.0309C310.208 59.3641 306.357 66 300.214 66H278.331H180.849C178.06 66 175.543 67.5202 173.689 69.6048C169.11 74.7553 162.434 78 155 78H154C146.566 78 139.89 74.7553 135.311 69.6048C133.457 67.5202 130.94 66 128.151 66H30.6685H8.78525C2.64267 66 -1.20826 59.3641 1.83932 54.0309L12.6965 35.0309C14.1208 32.5383 16.7715 31 19.6424 31H50.1744C53.6465 31 56.7221 28.7604 57.7881 25.456L64.2113 5.54398C65.2772 2.2396 68.3529 0 71.825 0H237.174Z" fill="#EE4503"/>
<path d="M100.84 36.24C100.84 40.44 97.7 43 93.56 43H89.02V29.6H93.66C97.96 29.6 100.84 32.26 100.84 36.24ZM98.74 36.24C98.74 33.4 96.66 31.48 93.66 31.48H91.06V41.14H93.56C96.48 41.14 98.74 39.3 98.74 36.24ZM104.663 31.26C103.943 31.26 103.363 30.68 103.363 29.96C103.363 29.24 103.943 28.64 104.663 28.64C105.383 28.64 105.943 29.24 105.943 29.96C105.943 30.68 105.383 31.26 104.663 31.26ZM103.683 33.2H105.663V43H103.683V33.2ZM112.409 43.22C110.589 43.22 109.189 42.5 108.429 41.04L109.949 40.2C110.449 41.18 111.249 41.54 112.329 41.54C113.449 41.54 114.309 41.08 114.309 40.22C114.309 38.16 108.689 39.72 108.689 35.98C108.689 34.26 110.209 33 112.349 33C114.169 33 115.409 33.84 116.029 34.98L114.509 35.84C114.089 34.98 113.289 34.68 112.389 34.68C111.469 34.68 110.669 35.16 110.669 35.94C110.669 37.94 116.289 36.48 116.289 40.18C116.289 42.04 114.489 43.22 112.409 43.22ZM123.174 43.22C120.354 43.26 118.054 40.92 118.054 38.08C118.054 35.26 120.354 32.94 123.174 32.96C124.974 32.96 126.634 33.78 127.534 35.54L125.894 36.46C125.314 35.4 124.334 34.84 123.174 34.84C121.454 34.84 120.034 36.3 120.034 38.08C120.034 39.88 121.454 41.36 123.174 41.36C124.334 41.36 125.314 40.8 125.894 39.74L127.534 40.64C126.634 42.42 124.974 43.22 123.174 43.22ZM134.173 43.24C131.213 43.24 128.933 40.92 128.933 38.08C128.933 35.26 131.233 32.96 134.173 32.96C137.133 32.96 139.373 35.28 139.373 38.08C139.373 40.92 137.113 43.24 134.173 43.24ZM134.173 41.36C135.993 41.36 137.393 39.88 137.393 38.1C137.393 36.3 135.993 34.82 134.173 34.82C132.333 34.82 130.913 36.3 130.913 38.1C130.913 39.88 132.333 41.36 134.173 41.36ZM143.387 41.72L140.227 33.2H142.347L145.227 41.18C145.247 41.28 145.327 41.38 145.447 41.38C145.587 41.38 145.667 41.28 145.687 41.18L148.567 33.2H150.667L147.487 41.72C147.107 42.74 146.407 43.26 145.447 43.26C144.527 43.26 143.767 42.74 143.387 41.72ZM156.73 43.22C153.75 43.22 151.53 41.06 151.53 38.04C151.53 35.22 153.55 32.92 156.49 32.92C159.45 32.92 161.29 35.06 161.29 37.8V38.6H153.45C153.67 40.28 154.95 41.46 156.71 41.46C157.91 41.46 158.99 40.94 159.57 39.86L161.09 40.64C160.23 42.32 158.65 43.22 156.73 43.22ZM153.53 37.32H159.31C159.23 35.76 158.09 34.7 156.47 34.7C154.81 34.7 153.73 35.86 153.53 37.32ZM165.634 43H163.654V37.16C163.654 34.78 165.014 33 167.574 33C168.194 33 168.834 33.12 169.334 33.36V35.32C168.854 35.04 168.294 34.9 167.754 34.9C166.434 34.9 165.634 35.8 165.634 37.24V43ZM188.353 32.92C191.313 32.92 192.913 35.12 192.913 37.84V43H190.933V38.16C190.933 36.38 190.053 34.82 188.213 34.82C186.433 34.82 185.533 36.32 185.533 38.12V43H183.553V38.12C183.553 36.32 182.653 34.82 180.833 34.82C178.993 34.82 178.173 36.38 178.173 38.16V43H176.193V37.86C176.193 35.12 177.753 32.92 180.693 32.92C182.653 32.92 184.073 33.92 184.573 35.44C185.113 33.92 186.493 32.92 188.353 32.92ZM200.364 43.24C197.404 43.24 195.124 40.92 195.124 38.08C195.124 35.26 197.424 32.96 200.364 32.96C203.324 32.96 205.564 35.28 205.564 38.08C205.564 40.92 203.304 43.24 200.364 43.24ZM200.364 41.36C202.184 41.36 203.584 39.88 203.584 38.1C203.584 36.3 202.184 34.82 200.364 34.82C198.524 34.82 197.104 36.3 197.104 38.1C197.104 39.88 198.524 41.36 200.364 41.36ZM209.755 43H207.775V37.16C207.775 34.78 209.135 33 211.695 33C212.315 33 212.955 33.12 213.455 33.36V35.32C212.975 35.04 212.415 34.9 211.875 34.9C210.555 34.9 209.755 35.8 209.755 37.24V43ZM219.484 43.22C216.504 43.22 214.284 41.06 214.284 38.04C214.284 35.22 216.304 32.92 219.244 32.92C222.204 32.92 224.044 35.06 224.044 37.8V38.6H216.204C216.424 40.28 217.704 41.46 219.464 41.46C220.664 41.46 221.744 40.94 222.324 39.86L223.844 40.64C222.984 42.32 221.404 43.22 219.484 43.22ZM216.284 37.32H222.064C221.984 35.76 220.844 34.7 219.224 34.7C217.564 34.7 216.484 35.86 216.284 37.32Z" fill="white"/>
<path d="M161.622 64.5801C157.73 65.5326 155.75 68.1951 155.75 72.5001H157.25C157.25 68.8776 158.75 66.8226 161.975 66.0351L161.622 64.5801Z" fill="white"/>
<path d="M155.75 57.5H154.25V72.5H155.75V57.5Z" fill="white"/>
<path d="M148.377 64.5801L148.024 66.0351C151.249 66.8226 152.749 68.8776 152.749 72.5001H154.249C154.249 68.1951 152.277 65.5326 148.377 64.5801Z" fill="white"/>
</svg>
