<svg width="33" height="32" viewBox="0 0 33 32" fill="none" xmlns="http://www.w3.org/2000/svg">
<g clip-path="url(#clip0_436_6359)">
<path d="M28.1797 16.233C26.4007 16.233 24.8698 17.3141 24.2084 18.8537L22.1127 18.4598C22.1217 18.3088 22.1269 18.1568 22.1269 18.0035C22.1269 16.2298 21.5097 14.5977 20.4792 13.31L25.5336 8.11658C26.1934 8.52533 26.9704 8.76202 27.8019 8.76202C30.1841 8.76202 32.1221 6.82396 32.1221 4.44183C32.1221 2.05964 30.1841 0.121582 27.8019 0.121582C25.4197 0.121582 23.4817 2.05964 23.4817 4.44183C23.4817 5.31508 23.7429 6.12814 24.1902 6.80846L19.1359 12.0019C18.6145 11.6071 18.0402 11.2787 17.4259 11.0291L18.2424 7.95658C20.0386 7.91071 21.4859 6.43633 21.4859 4.62933C21.4859 2.79346 19.9923 1.29989 18.1564 1.29989C16.3206 1.29989 14.827 2.79346 14.827 4.62933C14.827 5.83364 15.4697 6.89058 16.4302 7.47533L15.6139 10.5472C15.2832 10.5026 14.9459 10.4791 14.6032 10.4791C13.2453 10.4791 11.9704 10.8407 10.8694 11.4726L8.10087 7.78814C8.74819 7.03252 9.14056 6.05239 9.14056 4.98177C9.14056 2.59958 7.2025 0.661519 4.82031 0.661519C2.43806 0.661519 0.5 2.59958 0.5 4.98177C0.5 7.36396 2.43806 9.30202 4.82025 9.30202C5.45562 9.30202 6.05881 9.16302 6.60262 8.91564L9.37169 12.6009C7.95862 13.9696 7.07869 15.8856 7.07869 18.0035C7.07869 19.207 7.36319 20.345 7.86775 21.3548L5.96887 22.6171C5.38981 22.1302 4.64344 21.8361 3.82944 21.8361C1.99356 21.8361 0.5 23.3296 0.5 25.1655C0.5 27.0013 1.99356 28.495 3.82944 28.495C5.66531 28.495 7.15887 27.0014 7.15887 25.1655C7.15887 24.8215 7.10644 24.4895 7.00906 24.1771L8.90762 22.915C10.2885 24.5138 12.3296 25.5273 14.6031 25.5273C15.9371 25.5273 17.1909 25.1779 18.2784 24.5664L19.7306 26.5353C19.3044 27.0948 19.0507 27.7925 19.0507 28.5485C19.0507 30.3843 20.5442 31.8779 22.3801 31.8779C24.216 31.8779 25.7096 30.3843 25.7096 28.5485C25.7096 26.7126 24.216 25.219 22.3801 25.219C21.9792 25.219 21.5946 25.2903 21.2384 25.4208L19.7864 23.4521C20.688 22.594 21.3771 21.5149 21.7671 20.3028L23.8631 20.6968C23.9392 23.0126 25.8456 24.8735 28.1797 24.8735C30.5619 24.8735 32.4999 22.9355 32.4999 20.5533C32.5 18.171 30.5619 16.233 28.1797 16.233ZM18.1564 3.17496C18.9584 3.17496 19.6108 3.82739 19.6108 4.62939C19.6108 5.43133 18.9584 6.08383 18.1564 6.08383C17.3544 6.08383 16.7019 5.43133 16.7019 4.62939C16.7019 3.82739 17.3544 3.17496 18.1564 3.17496ZM2.375 4.98177C2.375 3.63346 3.47194 2.53652 4.82025 2.53652C6.16856 2.53652 7.2655 3.63346 7.2655 4.98177C7.2655 6.33008 6.16856 7.42702 4.82025 7.42702C3.47194 7.42702 2.375 6.33008 2.375 4.98177ZM3.82944 26.62C3.02744 26.62 2.375 25.9675 2.375 25.1655C2.375 24.3635 3.02744 23.7111 3.82944 23.7111C4.63144 23.7111 5.28387 24.3635 5.28387 25.1655C5.28387 25.9675 4.63144 26.62 3.82944 26.62ZM23.8346 28.5484C23.8346 29.3504 23.1822 30.0028 22.3802 30.0028C21.5782 30.0028 20.9257 29.3504 20.9257 28.5484C20.9257 27.7464 21.5782 27.094 22.3802 27.094C23.1822 27.094 23.8346 27.7464 23.8346 28.5484ZM27.8018 1.99664C29.1501 1.99664 30.2471 3.09358 30.2471 4.44189C30.2471 5.79014 29.1501 6.88708 27.8018 6.88708C26.4536 6.88708 25.3566 5.79014 25.3566 4.44189C25.3566 3.09358 26.4536 1.99664 27.8018 1.99664ZM14.6031 23.6523C11.4881 23.6523 8.95375 21.1182 8.95375 18.0035C8.95375 14.8884 11.4881 12.3541 14.6031 12.3541C17.7178 12.3541 20.2519 14.8884 20.2519 18.0035C20.2519 21.1183 17.7178 23.6523 14.6031 23.6523ZM28.1797 22.9985C26.8315 22.9985 25.7346 21.9015 25.7346 20.5533C25.7346 19.205 26.8315 18.108 28.1797 18.108C29.5281 18.108 30.625 19.205 30.625 20.5533C30.625 21.9015 29.5281 22.9985 28.1797 22.9985Z" fill="#020011"/>
</g>
<defs>
<clipPath id="clip0_436_6359">
<rect width="32" height="32" fill="white" transform="translate(0.5)"/>
</clipPath>
</defs>
</svg>
