<svg width="48" height="48" viewBox="0 0 48 48" fill="none" xmlns="http://www.w3.org/2000/svg">
<path d="M39 27.375C37.659 27.375 36.4267 27.8474 35.4591 28.6335L29.502 25.1689C29.5821 24.7916 29.625 24.4008 29.625 24C29.625 23.5992 29.5821 23.2084 29.502 22.831L35.4591 19.3664C36.4267 20.1526 37.659 20.625 39 20.625C42.1016 20.625 44.625 18.1016 44.625 15C44.625 11.8984 42.1016 9.375 39 9.375C37.6777 9.375 36.4613 9.83484 35.4999 10.6014L29.4902 6.84525C29.5775 6.45206 29.625 6.04406 29.625 5.625C29.625 2.52338 27.1016 0 24 0C20.8984 0 18.375 2.52338 18.375 5.625C18.375 6.04406 18.4225 6.45206 18.5098 6.84525L12.5001 10.6014C11.5387 9.83484 10.3223 9.375 9 9.375C5.89838 9.375 3.375 11.8984 3.375 15C3.375 18.1016 5.89838 20.625 9 20.625C10.341 20.625 11.5733 20.1526 12.5409 19.3665L18.498 22.8311C18.4179 23.2084 18.375 23.5992 18.375 24C18.375 24.4008 18.4179 24.7916 18.498 25.169L12.5409 28.6336C11.5733 27.8474 10.341 27.375 9 27.375C5.89838 27.375 3.375 29.8984 3.375 33C3.375 36.1016 5.89838 38.625 9 38.625C10.3223 38.625 11.5387 38.1652 12.5001 37.3986L18.5098 41.1548C18.4225 41.5479 18.375 41.9559 18.375 42.375C18.375 45.4766 20.8984 48 24 48C27.1016 48 29.625 45.4766 29.625 42.375C29.625 39.2734 27.1016 36.75 24 36.75C22.6777 36.75 21.4613 37.2098 20.4999 37.9764L14.4902 34.2202C14.5775 33.8271 14.625 33.4191 14.625 33C14.625 32.5992 14.5821 32.2084 14.502 31.831L20.4591 28.3664C21.4267 29.1526 22.659 29.625 24 29.625C25.341 29.625 26.5733 29.1526 27.5409 28.3665L33.498 31.8311C33.4179 32.2084 33.375 32.5992 33.375 33C33.375 36.1016 35.8984 38.625 39 38.625C42.1016 38.625 44.625 36.1016 44.625 33C44.625 29.8984 42.1016 27.375 39 27.375ZM20.4591 19.6335L14.502 16.1689C14.5821 15.7916 14.625 15.4008 14.625 15C14.625 14.5809 14.5775 14.1729 14.4902 13.7797L20.4999 10.0236C21.4613 10.7902 22.6777 11.25 24 11.25C25.3223 11.25 26.5387 10.7902 27.5001 10.0236L33.5098 13.7797C33.4225 14.1729 33.375 14.5809 33.375 15C33.375 15.4008 33.4179 15.7916 33.498 16.169L27.5409 19.6336C26.5733 18.8474 25.341 18.375 24 18.375C22.659 18.375 21.4267 18.8474 20.4591 19.6335ZM40.875 15C40.875 16.0339 40.0339 16.875 39 16.875C37.9661 16.875 37.125 16.0339 37.125 15C37.125 13.9661 37.9661 13.125 39 13.125C40.0339 13.125 40.875 13.9661 40.875 15ZM24 3.75C25.0339 3.75 25.875 4.59113 25.875 5.625C25.875 6.65887 25.0339 7.5 24 7.5C22.9661 7.5 22.125 6.65887 22.125 5.625C22.125 4.59113 22.9661 3.75 24 3.75ZM7.125 15C7.125 13.9661 7.96613 13.125 9 13.125C10.0339 13.125 10.875 13.9661 10.875 15C10.875 16.0339 10.0339 16.875 9 16.875C7.96613 16.875 7.125 16.0339 7.125 15ZM7.125 33C7.125 31.9661 7.96613 31.125 9 31.125C10.0339 31.125 10.875 31.9661 10.875 33C10.875 34.0339 10.0339 34.875 9 34.875C7.96613 34.875 7.125 34.0339 7.125 33ZM25.875 42.375C25.875 43.4089 25.0339 44.25 24 44.25C22.9661 44.25 22.125 43.4089 22.125 42.375C22.125 41.3411 22.9661 40.5 24 40.5C25.0339 40.5 25.875 41.3411 25.875 42.375ZM22.125 24C22.125 22.9661 22.9661 22.125 24 22.125C25.0339 22.125 25.875 22.9661 25.875 24C25.875 25.0339 25.0339 25.875 24 25.875C22.9661 25.875 22.125 25.0339 22.125 24ZM39 34.875C37.9661 34.875 37.125 34.0339 37.125 33C37.125 31.9661 37.9661 31.125 39 31.125C40.0339 31.125 40.875 31.9661 40.875 33C40.875 34.0339 40.0339 34.875 39 34.875Z" fill="#717171"/>
</svg>
