<svg width="33" height="32" viewBox="0 0 33 32" fill="none" xmlns="http://www.w3.org/2000/svg">
<g clip-path="url(#clip0_270_5041)">
<path d="M26.5 18.25C25.606 18.25 24.7844 18.5649 24.1394 19.089L20.168 16.7792C20.2214 16.5277 20.25 16.2672 20.25 16C20.25 15.7328 20.2214 15.4722 20.168 15.2207L24.1394 12.9109C24.7844 13.4351 25.606 13.75 26.5 13.75C28.5677 13.75 30.25 12.0677 30.25 10C30.25 7.93225 28.5677 6.25 26.5 6.25C25.6184 6.25 24.8076 6.55656 24.1666 7.06762L20.1601 4.5635C20.2183 4.30137 20.25 4.02937 20.25 3.75C20.25 1.68225 18.5677 0 16.5 0C14.4322 0 12.75 1.68225 12.75 3.75C12.75 4.02937 12.7817 4.30137 12.8399 4.5635L8.83337 7.06762C8.19244 6.55656 7.38156 6.25 6.5 6.25C4.43225 6.25 2.75 7.93225 2.75 10C2.75 12.0677 4.43225 13.75 6.5 13.75C7.394 13.75 8.21556 13.4351 8.86062 12.911L12.832 15.2207C12.7786 15.4722 12.75 15.7328 12.75 16C12.75 16.2672 12.7786 16.5277 12.832 16.7793L8.86062 19.0891C8.21556 18.5649 7.394 18.25 6.5 18.25C4.43225 18.25 2.75 19.9322 2.75 22C2.75 24.0677 4.43225 25.75 6.5 25.75C7.38156 25.75 8.19244 25.4434 8.83337 24.9324L12.8399 27.4365C12.7817 27.6986 12.75 27.9706 12.75 28.25C12.75 30.3177 14.4322 32 16.5 32C18.5677 32 20.25 30.3177 20.25 28.25C20.25 26.1822 18.5677 24.5 16.5 24.5C15.6184 24.5 14.8076 24.8066 14.1666 25.3176L10.1601 22.8135C10.2183 22.5514 10.25 22.2794 10.25 22C10.25 21.7328 10.2214 21.4722 10.168 21.2207L14.1394 18.9109C14.7844 19.4351 15.606 19.75 16.5 19.75C17.394 19.75 18.2156 19.4351 18.8606 18.911L22.832 21.2207C22.7786 21.4722 22.75 21.7328 22.75 22C22.75 24.0677 24.4322 25.75 26.5 25.75C28.5677 25.75 30.25 24.0677 30.25 22C30.25 19.9322 28.5677 18.25 26.5 18.25ZM14.1394 13.089L10.168 10.7792C10.2214 10.5277 10.25 10.2672 10.25 10C10.25 9.72062 10.2183 9.44862 10.1601 9.1865L14.1666 6.68237C14.8076 7.19344 15.6184 7.5 16.5 7.5C17.3816 7.5 18.1924 7.19344 18.8334 6.68237L22.8399 9.1865C22.7817 9.44862 22.75 9.72062 22.75 10C22.75 10.2672 22.7786 10.5277 22.832 10.7793L18.8606 13.0891C18.2156 12.5649 17.394 12.25 16.5 12.25C15.606 12.25 14.7844 12.5649 14.1394 13.089ZM27.75 10C27.75 10.6892 27.1892 11.25 26.5 11.25C25.8107 11.25 25.25 10.6892 25.25 10C25.25 9.31075 25.8107 8.75 26.5 8.75C27.1892 8.75 27.75 9.31075 27.75 10ZM16.5 2.5C17.1892 2.5 17.75 3.06075 17.75 3.75C17.75 4.43925 17.1892 5 16.5 5C15.8107 5 15.25 4.43925 15.25 3.75C15.25 3.06075 15.8107 2.5 16.5 2.5ZM5.25 10C5.25 9.31075 5.81075 8.75 6.5 8.75C7.18925 8.75 7.75 9.31075 7.75 10C7.75 10.6892 7.18925 11.25 6.5 11.25C5.81075 11.25 5.25 10.6892 5.25 10ZM5.25 22C5.25 21.3107 5.81075 20.75 6.5 20.75C7.18925 20.75 7.75 21.3107 7.75 22C7.75 22.6892 7.18925 23.25 6.5 23.25C5.81075 23.25 5.25 22.6892 5.25 22ZM17.75 28.25C17.75 28.9392 17.1892 29.5 16.5 29.5C15.8107 29.5 15.25 28.9392 15.25 28.25C15.25 27.5607 15.8107 27 16.5 27C17.1892 27 17.75 27.5607 17.75 28.25ZM15.25 16C15.25 15.3107 15.8107 14.75 16.5 14.75C17.1892 14.75 17.75 15.3107 17.75 16C17.75 16.6892 17.1892 17.25 16.5 17.25C15.8107 17.25 15.25 16.6892 15.25 16ZM26.5 23.25C25.8107 23.25 25.25 22.6892 25.25 22C25.25 21.3107 25.8107 20.75 26.5 20.75C27.1892 20.75 27.75 21.3107 27.75 22C27.75 22.6892 27.1892 23.25 26.5 23.25Z" fill="#020011"/>
</g>
<defs>
<clipPath id="clip0_270_5041">
<rect width="32" height="32" fill="white" transform="translate(0.5)"/>
</clipPath>
</defs>
</svg>
