<svg width="33" height="32" viewBox="0 0 33 32" fill="none" xmlns="http://www.w3.org/2000/svg">
<g clip-path="url(#clip0_270_4925)">
<path d="M29.6875 0.0625H3.3125C1.76169 0.0625 0.5 1.32419 0.5 2.875V29.125C0.5 30.6758 1.76169 31.9375 3.3125 31.9375H29.6875C31.2383 31.9375 32.5 30.6758 32.5 29.125V2.875C32.5 1.32419 31.2383 0.0625 29.6875 0.0625ZM3.3125 1.9375H29.6875C30.2044 1.9375 30.625 2.35806 30.625 2.875V7.5625H2.375V2.875C2.375 2.35806 2.79556 1.9375 3.3125 1.9375ZM29.6875 30.0625H3.3125C2.79556 30.0625 2.375 29.6419 2.375 29.125V9.4375H30.625V29.125C30.625 29.6419 30.2044 30.0625 29.6875 30.0625Z" fill="#020011"/>
<path d="M19.6821 12.326C19.2062 12.1221 18.655 12.3425 18.4511 12.8184L12.8261 25.9434C12.6221 26.4193 12.8426 26.9705 13.3184 27.1744C13.7945 27.3784 14.3456 27.1578 14.5494 26.682L20.1744 13.557C20.3784 13.0811 20.1579 12.53 19.6821 12.326Z" fill="#020011"/>
<path d="M11.6068 15.4144C11.2833 15.01 10.6933 14.9445 10.2891 15.268L5.60163 19.018C5.13295 19.3928 5.13263 20.107 5.60163 20.4821L10.2891 24.2321C10.6934 24.5556 11.2835 24.49 11.6068 24.0857C11.9303 23.6814 11.8648 23.0914 11.4604 22.768L7.68801 19.75L11.4604 16.7321C11.8648 16.4087 11.9303 15.8187 11.6068 15.4144Z" fill="#020011"/>
<path d="M27.3982 19.018L22.7107 15.268C22.3064 14.9445 21.7164 15.0101 21.393 15.4144C21.0695 15.8187 21.135 16.4087 21.5394 16.7321L25.3118 19.7501L21.5394 22.768C21.135 23.0914 21.0695 23.6814 21.393 24.0857C21.7169 24.4904 22.3069 24.5552 22.7107 24.2321L27.3982 20.4821C27.8669 20.1073 27.8672 19.3931 27.3982 19.018Z" fill="#020011"/>
<path d="M5.25 5.6875C5.76777 5.6875 6.1875 5.26777 6.1875 4.75C6.1875 4.23223 5.76777 3.8125 5.25 3.8125C4.73223 3.8125 4.3125 4.23223 4.3125 4.75C4.3125 5.26777 4.73223 5.6875 5.25 5.6875Z" fill="#020011"/>
<path d="M9 5.6875C9.51777 5.6875 9.9375 5.26777 9.9375 4.75C9.9375 4.23223 9.51777 3.8125 9 3.8125C8.48223 3.8125 8.0625 4.23223 8.0625 4.75C8.0625 5.26777 8.48223 5.6875 9 5.6875Z" fill="#020011"/>
<path d="M12.75 5.6875C13.2678 5.6875 13.6875 5.26777 13.6875 4.75C13.6875 4.23223 13.2678 3.8125 12.75 3.8125C12.2322 3.8125 11.8125 4.23223 11.8125 4.75C11.8125 5.26777 12.2322 5.6875 12.75 5.6875Z" fill="#020011"/>
<path d="M22.125 5.6875H27.75C28.2677 5.6875 28.6875 5.26775 28.6875 4.75C28.6875 4.23225 28.2677 3.8125 27.75 3.8125H22.125C21.6072 3.8125 21.1875 4.23225 21.1875 4.75C21.1875 5.26775 21.6072 5.6875 22.125 5.6875Z" fill="#020011"/>
</g>
<defs>
<clipPath id="clip0_270_4925">
<rect width="32" height="32" fill="white" transform="translate(0.5)"/>
</clipPath>
</defs>
</svg>
