<svg width="358" height="372" viewBox="0 0 358 372" fill="none" xmlns="http://www.w3.org/2000/svg">
<path fill-rule="evenodd" clip-rule="evenodd" d="M260.801 10.8712C258.602 4.37316 252.505 0 245.645 0L16 0C7.16345 0 0 7.16345 0 16V318.188C0 327.025 7.16344 334.188 16 334.188H66.3338C72.5112 334.188 78.1367 337.744 80.7867 343.325L90.066 362.864C92.716 368.444 98.3415 372 104.519 372H342C350.837 372 358 364.837 358 356V84C358 75.1634 350.837 68 342 68H291.61C284.75 68 278.653 63.6268 276.454 57.1288L260.801 10.8712Z" fill="#EE4503"/>
</svg>
