<svg width="33" height="32" viewBox="0 0 33 32" fill="none" xmlns="http://www.w3.org/2000/svg">
<g clip-path="url(#clip0_270_4909)">
<path d="M31.2494 13.5833C31.9398 13.5833 32.4994 13.0237 32.4994 12.3333V8.66684C32.4994 8.19436 32.233 7.76231 31.811 7.55013L17.0615 0.133702C16.7082 -0.0439164 16.2918 -0.0439164 15.9384 0.133702L1.18894 7.55013C0.766896 7.76237 0.50053 8.19442 0.50053 8.66684V12.3333C0.50053 13.0237 1.06014 13.5833 1.75049 13.5833H2.91713V24.5864C2.3809 24.622 1.92304 24.9979 1.78905 25.5249L0.539091 30.4414C0.338473 31.2304 0.935327 31.9993 1.75049 31.9993H31.2494C32.0636 31.9993 32.6617 31.2314 32.4608 30.4414L31.2109 25.5249C31.0735 24.9843 30.5952 24.603 30.0411 24.5847V13.5833H31.2494ZM3.00044 9.43737L16.5 2.64949L29.9995 9.43737V11.0834H3.00044V9.43737ZM11.5835 24.5829V13.5833H21.3748V24.5829H11.5835ZM9.08354 13.5833V24.5829H5.41698V13.5833H9.08354ZM3.35793 29.4994L3.97235 27.0828H29.0275L29.6419 29.4994H3.35793ZM27.5412 24.5829H23.8746V13.5833H27.5412V24.5829Z" fill="#020011"/>
</g>
<defs>
<clipPath id="clip0_270_4909">
<rect width="32" height="32" fill="white" transform="translate(0.5)"/>
</clipPath>
</defs>
</svg>
