<svg width="777" height="577" viewBox="0 0 777 577" fill="none" xmlns="http://www.w3.org/2000/svg">
<path d="M388.5 477.092C602.51 477.092 776 303.696 776 89.8014C776 -92.833 649.515 -245.941 479.32 -286.793L298.545 -287C127.914 -246.46 1 -93.1423 1 89.8014C1 303.696 174.49 477.092 388.5 477.092Z" fill="#F3F3F3"/>
<path d="M598.53 182.398L599.483 182.683C599.662 182.098 599.834 181.513 600.014 180.92L599.061 180.643C598.889 181.228 598.71 181.813 598.538 182.398H598.53Z" fill="#E8E8E8"/>
<path d="M600.677 176.796L596.725 181.753L599.435 181.076L601.372 183.061L600.677 176.796Z" fill="#E8E8E8"/>
<path d="M90.2936 45.5327L121.01 50.8977L121.158 50.0894C132.928 -15.3367 168.713 -73.8969 221.914 -114.808C242.946 -130.987 266.094 -143.98 290.703 -153.432L291.484 -153.732L280.152 -182.381L279.371 -182.081C251.935 -171.536 226.147 -157.057 202.725 -139.046C172.61 -115.885 147.548 -87.8597 128.226 -55.7547C109.568 -24.7427 96.8539 9.06339 90.442 44.7245L90.2936 45.5327ZM119.659 48.9964L92.2305 44.2011C98.658 9.04031 111.248 -24.3039 129.663 -54.9157C148.876 -86.8513 173.805 -114.723 203.756 -137.753C226.834 -155.495 252.216 -169.796 279.207 -180.249L289.329 -154.671C264.86 -145.181 241.837 -132.211 220.898 -116.108C167.588 -75.1131 131.663 -16.5067 119.674 48.9887L119.659 48.9964ZM86.6308 120.257L86.6932 121.081C91.4026 179.533 113.309 234.968 150.063 281.39C164.081 299.094 180.06 315.219 197.555 329.305C214.58 343.014 233.176 354.906 252.825 364.651L253.567 365.02L267.594 337.557L266.852 337.187C230.747 319.276 199.726 294.137 174.656 262.47C141.675 220.813 122.01 171.074 117.792 118.641L117.73 117.817L86.6308 120.249V120.257ZM252.833 362.811C233.566 353.19 215.33 341.49 198.617 328.027C181.216 314.018 165.323 297.985 151.383 280.374C115.004 234.422 93.2457 179.595 88.427 121.766L116.199 119.595C120.588 172.051 140.332 221.791 173.344 263.486C198.39 295.13 229.349 320.292 265.36 338.288L252.833 362.811ZM353.854 -200.385L357.415 -169.842L358.243 -169.935C453.602 -180.742 545.735 -142.725 604.708 -68.2395L605.223 -67.5929L629.816 -86.5049L629.301 -87.1515C612.736 -108.08 593.516 -126.7 572.179 -142.51C551.483 -157.843 528.803 -170.512 504.772 -180.18C457.421 -199.223 405.516 -206.242 354.682 -200.485L353.854 -200.393V-200.385ZM358.891 -171.659L355.713 -198.938C406.001 -204.495 457.312 -197.491 504.155 -178.656C528.054 -169.05 550.601 -156.442 571.188 -141.201C592.188 -125.645 611.127 -107.349 627.481 -86.7974L605.52 -69.9098C546.344 -144.211 454.266 -182.204 358.899 -171.674L358.891 -171.659ZM325.199 389.851L326.02 390.021C414.24 408.602 505.592 387.919 576.655 333.277C588.643 324.056 599.99 313.911 610.385 303.119L610.963 302.519L588.338 281.352L587.76 281.952C578.427 291.643 568.235 300.749 557.466 309.038C493.698 358.07 411.717 376.635 332.541 359.955L331.729 359.786L325.207 389.851H325.199ZM608.597 302.588C598.421 313.095 587.331 322.986 575.624 331.984C505.178 386.157 414.67 406.77 327.183 388.589L333.002 361.741C412.413 378.221 494.549 359.509 558.481 310.339C569.095 302.173 579.154 293.213 588.385 283.684L608.589 302.588H608.597ZM625.786 -37.5123L626.2 -36.7965C673.341 43.8239 674.333 144.734 628.801 226.548L628.403 227.271L655.753 242.057L656.151 241.334C680.932 196.806 693.889 146.327 693.615 95.3489C693.483 69.8327 690.038 44.432 683.4 19.8549C676.598 -5.31496 666.445 -29.538 653.23 -52.1447L652.817 -52.8605L625.786 -37.5123ZM661.845 130.625C669.022 73.3195 657.729 14.1974 628.067 -36.9119L652.207 -50.6206C665.148 -28.345 675.098 -4.49905 681.799 20.2705C688.406 44.7091 691.827 69.9713 691.96 95.3489C692.225 145.773 679.48 195.705 655.097 239.818L630.675 226.609C647.303 196.521 657.69 163.869 661.853 130.617L661.845 130.625Z" fill="#E8E8E8"/>
<path d="M776.865 93.0049L776.865 92.813L744.402 92.813L744.402 93.0049C744.402 95.858 744.368 98.7612 744.293 101.631L776.739 102.407C776.814 99.2784 776.857 96.1166 776.857 93.0049L776.865 93.0049ZM776.739 83.2108C776.663 80.0324 776.537 76.8039 776.377 73.617L743.957 75.2105C744.099 78.1303 744.217 81.0919 744.284 84.0117L776.73 83.2108L776.739 83.2108ZM776.394 112.001L743.973 110.432C743.831 113.36 743.646 116.314 743.427 119.225L775.798 121.594C776.033 118.424 776.235 115.204 776.386 112.009L776.394 112.001ZM775.781 64.0316C775.546 60.8531 775.26 57.6329 774.94 54.4628L742.637 57.6496C742.931 60.5528 743.184 63.506 743.402 66.4175L775.772 64.0316L775.781 64.0316ZM774.974 131.163L742.671 128.001C742.385 130.913 742.049 133.849 741.688 136.753L773.898 140.715C774.293 137.553 774.655 134.342 774.966 131.172L774.974 131.163ZM773.865 44.9106C773.47 41.7489 773.024 38.5454 772.545 35.3919L740.444 40.1722C740.881 43.0586 741.284 45.9952 741.654 48.89L773.865 44.9024L773.865 44.9106ZM772.596 150.226L740.494 145.471C740.057 148.357 739.587 151.277 739.074 154.155L771.05 159.711C771.604 156.566 772.125 153.379 772.596 150.226ZM770.999 25.9066C770.436 22.7531 769.831 19.5664 769.201 16.4379L737.385 22.8116C737.965 25.673 738.52 28.5929 739.032 31.4877L770.999 25.9066ZM769.26 169.155L737.435 162.806C736.856 165.676 736.234 168.571 735.578 171.407L767.234 178.548C767.949 175.445 768.629 172.283 769.26 169.155ZM767.159 7.0193C766.445 3.90757 765.68 0.754156 764.881 -2.34923L733.427 5.60942C734.158 8.4542 734.856 11.3324 735.511 14.1855L767.159 7.0193ZM764.965 187.892L733.503 179.966C732.78 182.795 732.007 185.656 731.217 188.467L762.47 197.185C763.335 194.115 764.176 190.995 764.974 187.9L764.965 187.892ZM762.36 -11.6511C761.486 -14.7128 760.562 -17.8245 759.612 -20.8862L728.603 -11.3674C729.477 -8.56438 730.326 -5.71126 731.124 -2.9082L762.369 -11.6511L762.36 -11.6511ZM759.73 206.387L728.713 196.893C727.847 199.68 726.931 202.499 725.998 205.269L756.764 215.53C757.789 212.502 758.789 209.424 759.73 206.379L759.73 206.387ZM756.629 -30.0545C755.596 -33.0912 754.52 -36.1445 753.411 -39.1395L722.923 -28.069C723.931 -25.3243 724.923 -22.5296 725.864 -19.7515L756.621 -30.0462L756.629 -30.0545ZM753.562 224.607L723.065 213.578C722.057 216.314 721.007 219.084 719.931 221.804L750.142 233.592C751.318 230.622 752.469 227.593 753.57 224.599L753.562 224.607ZM749.965 -48.1409C748.789 -51.1108 747.553 -54.1058 746.293 -57.0506L716.41 -44.4786C717.561 -41.784 718.696 -39.0393 719.771 -36.3197L749.965 -48.1409ZM746.495 242.468L716.595 229.929C715.452 232.607 714.267 235.31 713.057 237.971L742.637 251.244C743.957 248.349 745.259 245.396 746.503 242.468L746.495 242.468ZM742.402 -65.8603C741.074 -68.7718 739.688 -71.7 738.284 -74.5698L709.074 -60.5211C710.359 -57.8932 711.628 -55.2069 712.847 -52.5457L742.402 -65.8603ZM738.553 259.92L709.317 245.922C708.048 248.541 706.721 251.178 705.376 253.772L734.251 268.496C735.721 265.66 737.167 262.774 738.553 259.92ZM733.948 -83.1792C732.477 -86.0156 730.94 -88.8687 729.393 -91.6718L700.931 -76.1882C702.351 -73.6271 703.746 -71.0075 705.099 -68.413L733.948 -83.1875L733.948 -83.1792ZM729.729 276.964L701.233 261.531C699.83 264.083 698.367 266.661 696.897 269.181L724.99 285.315C726.595 282.562 728.192 279.75 729.721 276.956L729.729 276.964ZM724.637 -100.048C723.023 -102.809 721.351 -105.587 719.662 -108.298L692.014 -91.4215C693.552 -88.9355 695.09 -86.391 696.569 -83.8549L724.637 -100.048ZM720.057 293.565L692.376 276.739C690.838 279.233 689.25 281.736 687.661 284.172L714.914 301.683C716.654 299.021 718.385 296.285 720.057 293.565ZM714.494 -116.432C712.746 -119.11 710.931 -121.796 709.116 -124.433L682.35 -106.204C684.014 -103.793 685.678 -101.332 687.275 -98.8797L714.494 -116.44L714.494 -116.432ZM709.561 309.658L682.754 291.48C681.098 293.891 679.384 296.31 677.669 298.679L704.006 317.508C705.88 314.93 707.746 312.286 709.553 309.658L709.561 309.658ZM703.536 -132.283C701.662 -134.861 699.72 -137.455 697.762 -140L671.938 -120.47C673.728 -118.134 675.51 -115.756 677.232 -113.395L703.536 -132.283ZM698.267 325.233L672.409 305.754C670.627 308.081 668.795 310.417 666.963 312.695L692.334 332.8C694.334 330.314 696.325 327.77 698.267 325.233ZM691.804 -147.566C689.787 -150.061 687.72 -152.555 685.653 -154.991L660.846 -134.21C662.736 -131.982 664.636 -129.697 666.484 -127.411L691.804 -147.574L691.804 -147.566ZM686.207 340.225L661.35 319.502C659.459 321.738 657.518 323.982 655.568 326.168L679.896 347.499C682.023 345.105 684.149 342.661 686.207 340.225ZM679.317 -162.257C677.182 -164.643 674.997 -167.029 672.804 -169.365L649.064 -147.391C651.072 -145.255 653.081 -143.061 655.03 -140.875L679.308 -162.257L679.317 -162.257ZM673.401 354.615L649.618 332.692C647.61 334.836 645.551 336.988 643.501 339.074L666.736 361.573C668.972 359.296 671.216 356.96 673.401 354.615ZM666.123 -176.306C663.871 -178.583 661.568 -180.869 659.266 -183.08L636.66 -159.963C638.769 -157.927 640.887 -155.842 642.946 -153.748L666.131 -176.306L666.123 -176.306ZM659.896 368.364L637.232 345.297C635.122 347.333 632.963 349.376 630.803 351.362L652.879 374.988C655.232 372.819 657.593 370.591 659.888 368.364L659.896 368.364ZM652.24 -189.687C649.879 -191.856 647.459 -194.017 645.055 -196.119L623.635 -171.909C625.845 -169.982 628.055 -168.005 630.223 -166.02L652.249 -189.687L652.24 -189.687ZM645.711 381.428L624.231 357.268C622.03 359.204 619.761 361.131 617.509 363.016L638.383 387.693C640.845 385.641 643.316 383.53 645.719 381.428L645.711 381.428ZM637.702 -202.368C635.24 -204.412 632.719 -206.447 630.206 -208.433L610.013 -183.205C612.315 -181.386 614.626 -179.518 616.887 -177.641L637.702 -202.368ZM630.879 393.783L610.634 368.597C608.323 370.424 605.962 372.251 603.626 374.003L623.231 399.681C625.778 397.763 628.349 395.777 630.87 393.783L630.879 393.783ZM622.559 -214.306C619.988 -216.233 617.366 -218.143 614.769 -219.995L595.869 -193.8C598.256 -192.106 600.659 -190.354 603.012 -188.586L622.567 -214.306L622.559 -214.306ZM615.45 405.396L596.491 379.242C594.105 380.953 591.651 382.654 589.222 384.298L607.517 410.91C610.172 409.108 612.845 407.256 615.45 405.396ZM606.836 -225.485C604.18 -227.278 601.466 -229.055 598.769 -230.782L581.205 -203.686C583.676 -202.109 586.163 -200.474 588.6 -198.83L606.836 -225.485ZM599.449 416.241L581.835 389.178C579.356 390.772 576.819 392.348 574.314 393.875L591.247 421.363C593.979 419.703 596.743 417.985 599.449 416.241ZM582.911 426.277L566.676 398.372C564.121 399.84 561.516 401.291 558.927 402.685L574.457 430.982C577.281 429.456 580.121 427.87 582.911 426.269L582.911 426.277ZM565.886 435.487L551.078 406.814C548.448 408.149 545.776 409.475 543.12 410.735L557.196 439.767C560.087 438.382 563.012 436.939 565.886 435.487ZM548.398 443.838L535.061 414.464C532.372 415.665 529.633 416.85 526.91 417.985L539.498 447.684C542.465 446.441 545.457 445.148 548.398 443.838ZM530.507 451.304L518.683 421.297C515.926 422.364 513.128 423.416 510.363 424.408L521.422 454.7C524.448 453.615 527.498 452.472 530.507 451.304ZM512.246 457.878L501.96 427.32C499.161 428.246 496.313 429.155 493.489 430.014L502.993 460.823C506.077 459.889 509.195 458.896 512.246 457.878ZM493.699 463.518L484.976 432.475C482.144 433.26 479.262 434.019 476.405 434.736L484.338 465.979C487.455 465.195 490.607 464.369 493.691 463.509L493.699 463.518ZM474.926 468.215L467.791 436.78C464.909 437.423 461.993 438.04 459.119 438.607L465.463 470.208C468.606 469.591 471.791 468.915 474.926 468.215ZM455.95 471.969L450.404 440.217C447.505 440.718 444.564 441.185 441.656 441.61L446.396 473.487C449.572 473.02 452.791 472.511 455.95 471.969ZM436.799 474.772L432.857 442.787C429.941 443.137 426.983 443.462 424.042 443.746L427.177 475.823C430.378 475.514 433.614 475.164 436.799 474.78L436.799 474.772ZM417.538 476.624L415.21 444.48C412.269 444.689 409.294 444.864 406.353 445.006L407.882 477.191C411.084 477.041 414.336 476.849 417.538 476.624ZM398.218 477.525L397.487 445.306C394.798 445.365 392.058 445.398 389.361 445.398L388.613 445.398L388.554 477.616L389.361 477.616C392.31 477.616 395.285 477.583 398.218 477.516L398.218 477.525ZM379.747 445.273C376.806 445.198 373.823 445.081 370.881 444.931L369.226 477.116C372.436 477.283 375.688 477.408 378.89 477.491L379.755 445.281L379.747 445.273ZM362.024 444.372C359.091 444.147 356.125 443.888 353.192 443.596L349.923 475.656C353.125 475.973 356.36 476.265 359.562 476.507L362.024 444.38L362.024 444.372ZM344.385 442.603C341.461 442.236 338.502 441.827 335.603 441.394L330.729 473.253C333.897 473.729 337.124 474.179 340.309 474.58L344.377 442.612L344.385 442.603ZM326.855 439.959C323.956 439.45 321.031 438.891 318.149 438.315L311.67 469.891C314.813 470.525 318.015 471.134 321.174 471.693L326.847 439.967L326.855 439.959ZM309.485 436.455C306.619 435.804 303.72 435.103 300.871 434.378L292.804 465.587C295.913 466.379 299.081 467.147 302.208 467.856L309.477 436.455L309.485 436.455ZM292.308 432.075C289.493 431.283 286.627 430.44 283.812 429.572L274.173 460.348C277.249 461.299 280.375 462.216 283.451 463.084L292.3 432.083L292.308 432.075ZM275.383 426.853C272.593 425.91 269.778 424.926 267.022 423.924L255.837 454.174C258.845 455.267 261.921 456.343 264.963 457.369L275.375 426.853L275.383 426.853ZM258.744 420.788C256.022 419.72 253.274 418.602 250.576 417.459L237.878 447.116C240.828 448.36 243.828 449.586 246.803 450.754L258.753 420.796L258.744 420.788ZM242.484 413.93C239.811 412.721 237.122 411.469 234.483 410.193L220.307 439.183C223.189 440.568 226.122 441.944 229.038 443.262L242.484 413.93ZM226.584 406.264C223.987 404.929 221.357 403.544 218.777 402.134L203.155 430.382C205.97 431.917 208.836 433.435 211.676 434.886L226.576 406.264L226.584 406.264ZM211.08 397.813C208.542 396.344 205.979 394.826 203.483 393.299L186.466 420.738C189.188 422.406 191.978 424.058 194.751 425.66L211.08 397.813ZM196.004 388.603C193.533 387.009 191.054 385.366 188.642 383.714L170.264 410.276C172.902 412.07 175.6 413.864 178.297 415.607L196.004 388.603ZM181.407 378.65C179.028 376.94 176.633 375.171 174.297 373.403L154.616 399.031C157.162 400.958 159.776 402.885 162.373 404.754L181.407 378.65ZM167.322 367.988C165.02 366.153 162.717 364.268 160.482 362.399L139.54 387.026C141.986 389.07 144.49 391.122 147.003 393.124L167.322 367.997L167.322 367.988ZM153.776 356.643C151.574 354.699 149.364 352.705 147.221 350.72L125.078 374.279C127.422 376.448 129.826 378.625 132.229 380.744L153.776 356.643ZM140.809 344.63C138.708 342.586 136.599 340.483 134.557 338.389L111.262 360.831C113.498 363.116 115.792 365.402 118.086 367.638L140.809 344.63ZM128.456 331.999C126.464 329.855 124.464 327.653 122.523 325.459L98.1359 346.724C100.254 349.118 102.438 351.52 104.615 353.865L128.464 331.999L128.456 331.999ZM116.75 318.768C114.859 316.524 112.977 314.221 111.145 311.936L85.7238 331.974C87.7155 334.469 89.7744 336.971 91.8332 339.424L116.741 318.768L116.75 318.768ZM112.876 -128.195L87.6146 -148.425C85.5978 -145.939 83.5809 -143.403 81.6313 -140.875L107.397 -121.271C109.187 -123.59 111.027 -125.917 112.876 -128.195ZM105.716 304.97C103.943 302.634 102.17 300.239 100.455 297.87L74.0597 316.624C75.9253 319.21 77.8581 321.821 79.7909 324.374L105.707 304.97L105.716 304.97ZM102.086 -114.221L75.8413 -133.184C73.9505 -130.606 72.0681 -127.97 70.2445 -125.35L96.9594 -107.047C98.6317 -109.449 100.354 -111.869 102.086 -114.23L102.086 -114.221ZM95.3795 290.637C93.724 288.218 92.0769 285.749 90.4887 283.288L63.1855 300.715C64.9251 303.401 66.7234 306.104 68.5302 308.74L95.3879 290.637L95.3795 290.637ZM92.0181 -99.7305L64.8578 -117.366C63.1015 -114.697 61.3535 -111.969 59.6644 -109.266L87.2617 -92.3058C88.8079 -94.7835 90.413 -97.2862 92.0181 -99.7305ZM85.7827 275.813C84.2532 273.31 82.7322 270.757 81.2616 268.221L53.1181 284.272C54.7148 287.042 56.3787 289.828 58.051 292.556L85.7827 275.813ZM82.6817 -84.7725L54.6643 -101.04C53.0424 -98.2873 51.429 -95.4758 49.8827 -92.6895L78.3035 -77.1225C79.7237 -79.6753 81.1943 -82.2448 82.6817 -84.7725ZM76.9337 260.521C75.5303 257.952 74.1438 255.324 72.7992 252.713L43.8742 267.337C45.3364 270.182 46.8574 273.051 48.3869 275.863L76.9337 260.521ZM74.1185 -69.3641L45.3196 -84.2219C43.8406 -81.3939 42.3783 -78.5073 40.9665 -75.6459L70.1352 -61.5055C71.4294 -64.1334 72.7656 -66.7696 74.1269 -69.3641L74.1185 -69.3641ZM68.8663 244.804C67.589 242.159 66.3369 239.465 65.1352 236.795L35.5043 249.96C36.8152 252.871 38.1934 255.816 39.58 258.702L68.8663 244.804ZM66.3453 -53.5552L36.832 -66.9614C35.4958 -64.0583 34.1765 -61.105 32.916 -58.1768L62.7653 -45.5046C63.9166 -48.1826 65.1267 -50.8939 66.3537 -53.5468L66.3453 -53.5552ZM61.6057 228.695C60.4712 225.992 59.3535 223.239 58.2863 220.511L28.0335 232.182C29.2016 235.16 30.4201 238.172 31.6638 241.117L61.6141 228.695L61.6057 228.695ZM59.3787 -37.3875L29.2184 -49.3088C28.0335 -46.3473 26.8654 -43.3273 25.7561 -40.3407L56.2022 -29.1785C57.219 -31.9149 58.2863 -34.6762 59.3787 -37.3875ZM55.1686 212.243C54.1685 209.49 53.1937 206.687 52.2609 203.901L21.4535 214.037C22.4704 217.082 23.5376 220.144 24.6217 223.155L55.1686 212.252L55.1686 212.243ZM53.2357 -20.8861L22.5124 -31.2891C21.4787 -28.2692 20.4619 -25.1992 19.5039 -22.1625L50.4794 -12.5353C51.3533 -15.3134 52.2861 -18.1247 53.2357 -20.8944L53.2357 -20.8861ZM49.5718 195.483C48.723 192.697 47.8911 189.852 47.1011 187.033L15.8148 195.617C16.6719 198.695 17.5795 201.799 18.5123 204.844L49.5718 195.483ZM47.9499 -4.10947L16.7391 -12.9608C15.8568 -9.89917 14.9996 -6.77905 14.2013 -3.70069L45.6221 4.37479C46.3616 1.55505 47.1432 -1.29806 47.9499 -4.10947ZM44.849 178.523C44.1347 175.695 43.454 172.809 42.8153 169.964L11.134 176.972C11.8315 180.083 12.5794 183.228 13.3609 186.323L44.8574 178.523L44.849 178.523ZM43.5128 12.9091L11.8903 5.6178C11.1676 8.72119 10.4701 11.8746 9.82302 14.9947L41.6136 21.4935C42.2019 18.6404 42.8405 15.7455 43.5044 12.9091L43.5128 12.9091ZM41.0002 161.346C40.4287 158.485 39.8909 155.565 39.3951 152.687L7.3944 158.109C7.93223 161.254 8.52047 164.433 9.14234 167.561L40.9918 161.346L41.0002 161.346ZM39.9413 30.1196L7.99104 24.4134C7.4196 27.5501 6.89018 30.7369 6.40277 33.882L38.4875 38.7874C38.9329 35.9092 39.4287 32.9894 39.9413 30.1196ZM38.0169 143.994C37.5967 141.107 37.2018 138.171 36.8572 135.268L4.62963 139.097C5.00779 142.259 5.43637 145.471 5.89857 148.624L38.0253 144.002L38.0169 143.994ZM37.2438 47.4969L5.0498 43.384C4.63803 46.5458 4.26827 49.7493 3.93213 52.9111L36.2185 56.2231C36.5211 53.3283 36.8656 50.3917 37.2354 47.4969L37.2438 47.4969ZM35.9076 126.517C35.6303 123.613 35.3866 120.66 35.1849 117.74L2.80606 119.976C3.02455 123.154 3.29347 126.375 3.596 129.545L35.9076 126.517ZM35.4202 64.9743L3.05817 62.4549C2.80606 65.6167 2.59597 68.8368 2.4195 72.0153L34.832 73.7422C34.9916 70.8224 35.1849 67.8775 35.4118 64.9743L35.4202 64.9743ZM34.6807 108.947C34.5463 106.027 34.4538 103.066 34.395 100.146L1.9405 100.788C2.00772 103.975 2.10857 107.204 2.25143 110.382L34.6807 108.947ZM34.4706 82.5268L2.02453 81.5924C1.93209 84.7793 1.87327 88.0078 1.86486 91.1862L34.3278 91.3281C34.3446 88.4082 34.395 85.4466 34.479 82.5184L34.4706 82.5268Z" fill="#DBDBDB"/>
<path d="M776.865 93.0049L776.865 92.813L744.402 92.813L744.402 93.0049C744.402 95.858 744.368 98.7612 744.293 101.631L776.739 102.407C776.814 99.2784 776.857 96.1166 776.857 93.0049L776.865 93.0049ZM776.739 83.2108C776.663 80.0324 776.537 76.8039 776.377 73.617L743.957 75.2105C744.099 78.1303 744.217 81.0919 744.284 84.0117L776.73 83.2108L776.739 83.2108ZM776.394 112.001L743.973 110.432C743.831 113.36 743.646 116.314 743.427 119.225L775.798 121.594C776.033 118.424 776.235 115.204 776.386 112.009L776.394 112.001ZM775.781 64.0316C775.546 60.8531 775.26 57.6329 774.94 54.4628L742.637 57.6496C742.931 60.5528 743.184 63.506 743.402 66.4175L775.772 64.0316L775.781 64.0316ZM774.974 131.163L742.671 128.001C742.385 130.913 742.049 133.849 741.688 136.753L773.898 140.715C774.293 137.553 774.655 134.342 774.966 131.172L774.974 131.163ZM773.865 44.9106C773.47 41.7489 773.024 38.5454 772.545 35.3919L740.444 40.1722C740.881 43.0586 741.284 45.9952 741.654 48.89L773.865 44.9024L773.865 44.9106ZM772.596 150.226L740.494 145.471C740.057 148.357 739.587 151.277 739.074 154.155L771.05 159.711C771.604 156.566 772.125 153.379 772.596 150.226ZM770.999 25.9066C770.436 22.7531 769.831 19.5664 769.201 16.4379L737.385 22.8116C737.965 25.673 738.52 28.5929 739.032 31.4877L770.999 25.9066ZM769.26 169.155L737.435 162.806C736.856 165.676 736.234 168.571 735.578 171.407L767.234 178.548C767.949 175.445 768.629 172.283 769.26 169.155ZM767.159 7.0193C766.445 3.90757 765.68 0.754156 764.881 -2.34923L733.427 5.60942C734.158 8.4542 734.856 11.3324 735.511 14.1855L767.159 7.0193ZM764.965 187.892L733.503 179.966C732.78 182.795 732.007 185.656 731.217 188.467L762.47 197.185C763.335 194.115 764.176 190.995 764.974 187.9L764.965 187.892ZM762.36 -11.6511C761.486 -14.7128 760.562 -17.8245 759.612 -20.8862L728.603 -11.3674C729.477 -8.56438 730.326 -5.71126 731.124 -2.9082L762.369 -11.6511L762.36 -11.6511ZM759.73 206.387L728.713 196.893C727.847 199.68 726.931 202.499 725.998 205.269L756.764 215.53C757.789 212.502 758.789 209.424 759.73 206.379L759.73 206.387ZM756.629 -30.0545C755.596 -33.0912 754.52 -36.1445 753.411 -39.1395L722.923 -28.069C723.931 -25.3243 724.923 -22.5296 725.864 -19.7515L756.621 -30.0462L756.629 -30.0545ZM753.562 224.607L723.065 213.578C722.057 216.314 721.007 219.084 719.931 221.804L750.142 233.592C751.318 230.622 752.469 227.593 753.57 224.599L753.562 224.607ZM749.965 -48.1409C748.789 -51.1108 747.553 -54.1058 746.293 -57.0506L716.41 -44.4786C717.561 -41.784 718.696 -39.0393 719.771 -36.3197L749.965 -48.1409ZM746.495 242.468L716.595 229.929C715.452 232.607 714.267 235.31 713.057 237.971L742.637 251.244C743.957 248.349 745.259 245.396 746.503 242.468L746.495 242.468ZM742.402 -65.8603C741.074 -68.7718 739.688 -71.7 738.284 -74.5698L709.074 -60.5211C710.359 -57.8932 711.628 -55.2069 712.847 -52.5457L742.402 -65.8603ZM738.553 259.92L709.317 245.922C708.048 248.541 706.721 251.178 705.376 253.772L734.251 268.496C735.721 265.66 737.167 262.774 738.553 259.92ZM733.948 -83.1792C732.477 -86.0156 730.94 -88.8687 729.393 -91.6718L700.931 -76.1882C702.351 -73.6271 703.746 -71.0075 705.099 -68.413L733.948 -83.1875L733.948 -83.1792ZM729.729 276.964L701.233 261.531C699.83 264.083 698.367 266.661 696.897 269.181L724.99 285.315C726.595 282.562 728.192 279.75 729.721 276.956L729.729 276.964ZM724.637 -100.048C723.023 -102.809 721.351 -105.587 719.662 -108.298L692.014 -91.4215C693.552 -88.9355 695.09 -86.391 696.569 -83.8549L724.637 -100.048ZM720.057 293.565L692.376 276.739C690.838 279.233 689.25 281.736 687.661 284.172L714.914 301.683C716.654 299.021 718.385 296.285 720.057 293.565ZM714.494 -116.432C712.746 -119.11 710.931 -121.796 709.116 -124.433L682.35 -106.204C684.014 -103.793 685.678 -101.332 687.275 -98.8797L714.494 -116.44L714.494 -116.432ZM709.561 309.658L682.754 291.48C681.098 293.891 679.384 296.31 677.669 298.679L704.006 317.508C705.88 314.93 707.746 312.286 709.553 309.658L709.561 309.658ZM703.536 -132.283C701.662 -134.861 699.72 -137.455 697.762 -140L671.938 -120.47C673.728 -118.134 675.51 -115.756 677.232 -113.395L703.536 -132.283ZM698.267 325.233L672.409 305.754C670.627 308.081 668.795 310.417 666.963 312.695L692.334 332.8C694.334 330.314 696.325 327.77 698.267 325.233ZM691.804 -147.566C689.787 -150.061 687.72 -152.555 685.653 -154.991L660.846 -134.21C662.736 -131.982 664.636 -129.697 666.484 -127.411L691.804 -147.574L691.804 -147.566ZM686.207 340.225L661.35 319.502C659.459 321.738 657.518 323.982 655.568 326.168L679.896 347.499C682.023 345.105 684.149 342.661 686.207 340.225ZM679.317 -162.257C677.182 -164.643 674.997 -167.029 672.804 -169.365L649.064 -147.391C651.072 -145.255 653.081 -143.061 655.03 -140.875L679.308 -162.257L679.317 -162.257ZM673.401 354.615L649.618 332.692C647.61 334.836 645.551 336.988 643.501 339.074L666.736 361.573C668.972 359.296 671.216 356.96 673.401 354.615ZM666.123 -176.306C663.871 -178.583 661.568 -180.869 659.266 -183.08L636.66 -159.963C638.769 -157.927 640.887 -155.842 642.946 -153.748L666.131 -176.306L666.123 -176.306ZM659.896 368.364L637.232 345.297C635.122 347.333 632.963 349.376 630.803 351.362L652.879 374.988C655.232 372.819 657.593 370.591 659.888 368.364L659.896 368.364ZM652.24 -189.687C649.879 -191.856 647.459 -194.017 645.055 -196.119L623.635 -171.909C625.845 -169.982 628.055 -168.005 630.223 -166.02L652.249 -189.687L652.24 -189.687ZM645.711 381.428L624.231 357.268C622.03 359.204 619.761 361.131 617.509 363.016L638.383 387.693C640.845 385.641 643.316 383.53 645.719 381.428L645.711 381.428ZM637.702 -202.368C635.24 -204.412 632.719 -206.447 630.206 -208.433L610.013 -183.205C612.315 -181.386 614.626 -179.518 616.887 -177.641L637.702 -202.368ZM630.879 393.783L610.634 368.597C608.323 370.424 605.962 372.251 603.626 374.003L623.231 399.681C625.778 397.763 628.349 395.777 630.87 393.783L630.879 393.783ZM622.559 -214.306C619.988 -216.233 617.366 -218.143 614.769 -219.995L595.869 -193.8C598.256 -192.106 600.659 -190.354 603.012 -188.586L622.567 -214.306L622.559 -214.306ZM615.45 405.396L596.491 379.242C594.105 380.953 591.651 382.654 589.222 384.298L607.517 410.91C610.172 409.108 612.845 407.256 615.45 405.396ZM606.836 -225.485C604.18 -227.278 601.466 -229.055 598.769 -230.782L581.205 -203.686C583.676 -202.109 586.163 -200.474 588.6 -198.83L606.836 -225.485ZM599.449 416.241L581.835 389.178C579.356 390.772 576.819 392.348 574.314 393.875L591.247 421.363C593.979 419.703 596.743 417.985 599.449 416.241ZM582.911 426.277L566.676 398.372C564.121 399.84 561.516 401.291 558.927 402.685L574.457 430.982C577.281 429.456 580.121 427.87 582.911 426.269L582.911 426.277ZM565.886 435.487L551.078 406.814C548.448 408.149 545.776 409.475 543.12 410.735L557.196 439.767C560.087 438.382 563.012 436.939 565.886 435.487ZM548.398 443.838L535.061 414.464C532.372 415.665 529.633 416.85 526.91 417.985L539.498 447.684C542.465 446.441 545.457 445.148 548.398 443.838ZM530.507 451.304L518.683 421.297C515.926 422.364 513.128 423.416 510.363 424.408L521.422 454.7C524.448 453.615 527.498 452.472 530.507 451.304ZM512.246 457.878L501.96 427.32C499.161 428.246 496.313 429.155 493.489 430.014L502.993 460.823C506.077 459.889 509.195 458.896 512.246 457.878ZM493.699 463.518L484.976 432.475C482.144 433.26 479.262 434.019 476.405 434.736L484.338 465.979C487.455 465.195 490.607 464.369 493.691 463.509L493.699 463.518ZM474.926 468.215L467.791 436.78C464.909 437.423 461.993 438.04 459.119 438.607L465.463 470.208C468.606 469.591 471.791 468.915 474.926 468.215ZM455.95 471.969L450.404 440.217C447.505 440.718 444.564 441.185 441.656 441.61L446.396 473.487C449.572 473.02 452.791 472.511 455.95 471.969ZM436.799 474.772L432.857 442.787C429.941 443.137 426.983 443.462 424.042 443.746L427.177 475.823C430.378 475.514 433.614 475.164 436.799 474.78L436.799 474.772ZM417.538 476.624L415.21 444.48C412.269 444.689 409.294 444.864 406.353 445.006L407.882 477.191C411.084 477.041 414.336 476.849 417.538 476.624ZM398.218 477.525L397.487 445.306C394.798 445.365 392.058 445.398 389.361 445.398L388.613 445.398L388.554 477.616L389.361 477.616C392.31 477.616 395.285 477.583 398.218 477.516L398.218 477.525ZM379.747 445.273C376.806 445.198 373.823 445.081 370.881 444.931L369.226 477.116C372.436 477.283 375.688 477.408 378.89 477.491L379.755 445.281L379.747 445.273ZM362.024 444.372C359.091 444.147 356.125 443.888 353.192 443.596L349.923 475.656C353.125 475.973 356.36 476.265 359.562 476.507L362.024 444.38L362.024 444.372ZM344.385 442.603C341.461 442.236 338.502 441.827 335.603 441.394L330.729 473.253C333.897 473.729 337.124 474.179 340.309 474.58L344.377 442.612L344.385 442.603ZM326.855 439.959C323.956 439.45 321.031 438.891 318.149 438.315L311.67 469.891C314.813 470.525 318.015 471.134 321.174 471.693L326.847 439.967L326.855 439.959ZM309.485 436.455C306.619 435.804 303.72 435.103 300.871 434.378L292.804 465.587C295.913 466.379 299.081 467.147 302.208 467.856L309.477 436.455L309.485 436.455ZM292.308 432.075C289.493 431.283 286.627 430.44 283.812 429.572L274.173 460.348C277.249 461.299 280.375 462.216 283.451 463.084L292.3 432.083L292.308 432.075ZM275.383 426.853C272.593 425.91 269.778 424.926 267.022 423.924L255.837 454.174C258.845 455.267 261.921 456.343 264.963 457.369L275.375 426.853L275.383 426.853ZM258.744 420.788C256.022 419.72 253.274 418.602 250.576 417.459L237.878 447.116C240.828 448.36 243.828 449.586 246.803 450.754L258.753 420.796L258.744 420.788ZM242.484 413.93C239.811 412.721 237.122 411.469 234.483 410.193L220.307 439.183C223.189 440.568 226.122 441.944 229.038 443.262L242.484 413.93ZM226.584 406.264C223.987 404.929 221.357 403.544 218.777 402.134L203.155 430.382C205.97 431.917 208.836 433.435 211.676 434.886L226.576 406.264L226.584 406.264ZM211.08 397.813C208.542 396.344 205.979 394.826 203.483 393.299L186.466 420.738C189.188 422.406 191.978 424.058 194.751 425.66L211.08 397.813ZM196.004 388.603C193.533 387.009 191.054 385.366 188.642 383.714L170.264 410.276C172.902 412.07 175.6 413.864 178.297 415.607L196.004 388.603ZM181.407 378.65C179.028 376.94 176.633 375.171 174.297 373.403L154.616 399.031C157.162 400.958 159.776 402.885 162.373 404.754L181.407 378.65ZM167.322 367.988C165.02 366.153 162.717 364.268 160.482 362.399L139.54 387.026C141.986 389.07 144.49 391.122 147.003 393.124L167.322 367.997L167.322 367.988ZM153.776 356.643C151.574 354.699 149.364 352.705 147.221 350.72L125.078 374.279C127.422 376.448 129.826 378.625 132.229 380.744L153.776 356.643ZM140.809 344.63C138.708 342.586 136.599 340.483 134.557 338.389L111.262 360.831C113.498 363.116 115.792 365.402 118.086 367.638L140.809 344.63ZM128.456 331.999C126.464 329.855 124.464 327.653 122.523 325.459L98.1359 346.724C100.254 349.118 102.438 351.52 104.615 353.865L128.464 331.999L128.456 331.999ZM116.75 318.768C114.859 316.524 112.977 314.221 111.145 311.936L85.7238 331.974C87.7155 334.469 89.7744 336.971 91.8332 339.424L116.741 318.768L116.75 318.768ZM112.876 -128.195L87.6146 -148.425C85.5978 -145.939 83.5809 -143.403 81.6313 -140.875L107.397 -121.271C109.187 -123.59 111.027 -125.917 112.876 -128.195ZM105.716 304.97C103.943 302.634 102.17 300.239 100.455 297.87L74.0597 316.624C75.9253 319.21 77.8581 321.821 79.7909 324.374L105.707 304.97L105.716 304.97ZM102.086 -114.221L75.8413 -133.184C73.9505 -130.606 72.0681 -127.97 70.2445 -125.35L96.9594 -107.047C98.6317 -109.449 100.354 -111.869 102.086 -114.23L102.086 -114.221ZM95.3795 290.637C93.724 288.218 92.0769 285.749 90.4887 283.288L63.1855 300.715C64.9251 303.401 66.7234 306.104 68.5302 308.74L95.3879 290.637L95.3795 290.637ZM92.0181 -99.7305L64.8578 -117.366C63.1015 -114.697 61.3535 -111.969 59.6644 -109.266L87.2617 -92.3058C88.8079 -94.7835 90.413 -97.2862 92.0181 -99.7305ZM85.7827 275.813C84.2532 273.31 82.7322 270.757 81.2616 268.221L53.1181 284.272C54.7148 287.042 56.3787 289.828 58.051 292.556L85.7827 275.813ZM82.6817 -84.7725L54.6643 -101.04C53.0424 -98.2873 51.429 -95.4758 49.8827 -92.6895L78.3035 -77.1225C79.7237 -79.6753 81.1943 -82.2448 82.6817 -84.7725ZM76.9337 260.521C75.5303 257.952 74.1438 255.324 72.7992 252.713L43.8742 267.337C45.3364 270.182 46.8574 273.051 48.3869 275.863L76.9337 260.521ZM74.1185 -69.3641L45.3196 -84.2219C43.8406 -81.3939 42.3783 -78.5073 40.9665 -75.6459L70.1352 -61.5055C71.4294 -64.1334 72.7656 -66.7696 74.1269 -69.3641L74.1185 -69.3641ZM68.8663 244.804C67.589 242.159 66.3369 239.465 65.1352 236.795L35.5043 249.96C36.8152 252.871 38.1934 255.816 39.58 258.702L68.8663 244.804ZM66.3453 -53.5552L36.832 -66.9614C35.4958 -64.0583 34.1765 -61.105 32.916 -58.1768L62.7653 -45.5046C63.9166 -48.1826 65.1267 -50.8939 66.3537 -53.5468L66.3453 -53.5552ZM61.6057 228.695C60.4712 225.992 59.3535 223.239 58.2863 220.511L28.0335 232.182C29.2016 235.16 30.4201 238.172 31.6638 241.117L61.6141 228.695L61.6057 228.695ZM59.3787 -37.3875L29.2184 -49.3088C28.0335 -46.3473 26.8654 -43.3273 25.7561 -40.3407L56.2022 -29.1785C57.219 -31.9149 58.2863 -34.6762 59.3787 -37.3875ZM55.1686 212.243C54.1685 209.49 53.1937 206.687 52.2609 203.901L21.4535 214.037C22.4704 217.082 23.5376 220.144 24.6217 223.155L55.1686 212.252L55.1686 212.243ZM53.2357 -20.8861L22.5124 -31.2891C21.4787 -28.2692 20.4619 -25.1992 19.5039 -22.1625L50.4794 -12.5353C51.3533 -15.3134 52.2861 -18.1247 53.2357 -20.8944L53.2357 -20.8861ZM49.5718 195.483C48.723 192.697 47.8911 189.852 47.1011 187.033L15.8148 195.617C16.6719 198.695 17.5795 201.799 18.5123 204.844L49.5718 195.483ZM47.9499 -4.10947L16.7391 -12.9608C15.8568 -9.89917 14.9996 -6.77905 14.2013 -3.70069L45.6221 4.37479C46.3616 1.55505 47.1432 -1.29806 47.9499 -4.10947ZM44.849 178.523C44.1347 175.695 43.454 172.809 42.8153 169.964L11.134 176.972C11.8315 180.083 12.5794 183.228 13.3609 186.323L44.8574 178.523L44.849 178.523ZM43.5128 12.9091L11.8903 5.6178C11.1676 8.72119 10.4701 11.8746 9.82302 14.9947L41.6136 21.4935C42.2019 18.6404 42.8405 15.7455 43.5044 12.9091L43.5128 12.9091ZM41.0002 161.346C40.4287 158.485 39.8909 155.565 39.3951 152.687L7.3944 158.109C7.93223 161.254 8.52047 164.433 9.14234 167.561L40.9918 161.346L41.0002 161.346ZM39.9413 30.1196L7.99104 24.4134C7.4196 27.5501 6.89018 30.7369 6.40277 33.882L38.4875 38.7874C38.9329 35.9092 39.4287 32.9894 39.9413 30.1196ZM38.0169 143.994C37.5967 141.107 37.2018 138.171 36.8572 135.268L4.62963 139.097C5.00779 142.259 5.43637 145.471 5.89857 148.624L38.0253 144.002L38.0169 143.994ZM37.2438 47.4969L5.0498 43.384C4.63803 46.5458 4.26827 49.7493 3.93213 52.9111L36.2185 56.2231C36.5211 53.3283 36.8656 50.3917 37.2354 47.4969L37.2438 47.4969ZM35.9076 126.517C35.6303 123.613 35.3866 120.66 35.1849 117.74L2.80606 119.976C3.02455 123.154 3.29347 126.375 3.596 129.545L35.9076 126.517ZM35.4202 64.9743L3.05817 62.4549C2.80606 65.6167 2.59597 68.8368 2.4195 72.0153L34.832 73.7422C34.9916 70.8224 35.1849 67.8775 35.4118 64.9743L35.4202 64.9743ZM34.6807 108.947C34.5463 106.027 34.4538 103.066 34.395 100.146L1.9405 100.788C2.00772 103.975 2.10857 107.204 2.25143 110.382L34.6807 108.947ZM34.4706 82.5268L2.02453 81.5924C1.93209 84.7793 1.87327 88.0078 1.86486 91.1862L34.3278 91.3281C34.3446 88.4082 34.395 85.4466 34.479 82.5184L34.4706 82.5268Z" fill="url(#paint0_linear_60_112)"/>
<path d="M298.545 -287C127.914 -246.46 1 -93.1423 1 89.8014C1 303.696 174.49 477.092 388.5 477.092C602.51 477.092 776 303.696 776 89.8014C776 -92.833 649.515 -245.941 479.32 -286.793" stroke="url(#paint1_linear_60_112)" stroke-width="0.708705"/>
<defs>
<linearGradient id="paint0_linear_60_112" x1="389.365" y1="177.477" x2="389.365" y2="2268.94" gradientUnits="userSpaceOnUse">
<stop stop-color="#F3F3F3"/>
<stop offset="1" stop-color="#DBDBDB" stop-opacity="0"/>
</linearGradient>
<linearGradient id="paint1_linear_60_112" x1="330.528" y1="438.571" x2="323.205" y2="473.354" gradientUnits="userSpaceOnUse">
<stop offset="0.666803" stop-color="#DBDBDB"/>
</linearGradient>
</defs>
</svg>
