<svg width="896" height="863" viewBox="0 0 896 863" fill="none" xmlns="http://www.w3.org/2000/svg">
<path d="M428.705 180.827L428.795 181.957C429.508 181.904 430.222 181.859 430.935 181.806L430.863 180.676C430.149 180.72 429.427 180.774 428.714 180.827H428.705Z" fill="#E8E8E8"/>
<path d="M201.475 348.963L201.303 350.306L202.441 350.449L202.603 349.15C202.784 348.224 202.974 347.281 203.172 346.338L202.053 346.106C201.854 347.058 201.655 348.019 201.475 348.954V348.972V348.963ZM200.78 354.498L200.256 358.689L201.394 358.832L201.917 354.64L200.78 354.498ZM199.723 362.881L199.199 367.072L200.337 367.214L200.861 363.023L199.723 362.881ZM198.676 371.272L198.152 375.464L199.29 375.606L199.813 371.415L198.676 371.272ZM197.628 379.655L197.105 383.847L198.242 383.989L198.766 379.798L197.628 379.655ZM196.951 388.136C196.915 389.542 196.897 390.966 196.897 392.372H198.044C198.044 390.975 198.071 389.56 198.098 388.163L196.951 388.136ZM202.965 341.959L204.084 342.208C204.4 340.856 204.725 339.476 205.068 338.115L203.958 337.839C203.615 339.209 203.281 340.598 202.965 341.959ZM196.915 396.608C196.933 398.014 196.969 399.438 197.014 400.844L198.161 400.808C198.116 399.411 198.08 397.987 198.062 396.59L196.915 396.608ZM205.032 333.746L206.143 334.039C206.513 332.695 206.892 331.325 207.29 329.981L206.188 329.67C205.791 331.022 205.403 332.393 205.041 333.746H205.032ZM197.186 405.071C197.258 406.468 197.339 407.892 197.43 409.298L198.576 409.226C198.486 407.829 198.396 406.414 198.333 405.017L197.186 405.071ZM207.407 325.603L208.5 325.932C208.915 324.597 209.357 323.245 209.8 321.919L208.707 321.563C208.265 322.898 207.822 324.25 207.407 325.594V325.603ZM197.755 413.525C197.872 414.913 198.008 416.337 198.152 417.743L199.29 417.627C199.145 416.23 199.01 414.815 198.892 413.427L197.746 413.525H197.755ZM210.089 317.558L211.172 317.932C211.642 316.615 212.12 315.28 212.617 313.963L211.542 313.572C211.046 314.889 210.558 316.232 210.089 317.558ZM198.613 421.952C198.658 422.343 198.712 422.744 198.757 423.135C198.838 424.123 198.929 425.138 199.028 426.143L200.166 426.037C200.066 425.031 199.976 424.025 199.895 423.02C199.84 422.601 199.795 422.21 199.75 421.818L198.613 421.952ZM213.068 309.612L214.134 310.021C214.648 308.722 215.181 307.405 215.723 306.105L214.657 305.678C214.116 306.986 213.574 308.312 213.059 309.612H213.068ZM199.47 430.353C199.633 431.759 199.804 433.173 199.976 434.562L201.114 434.419C200.933 433.04 200.761 431.625 200.608 430.228L199.47 430.353ZM216.328 301.772L217.384 302.217C217.944 300.935 218.522 299.636 219.109 298.354L218.062 297.892C217.475 299.182 216.897 300.481 216.328 301.772ZM200.563 438.762C200.771 440.159 200.996 441.574 201.222 442.945L202.351 442.758C202.125 441.387 201.899 439.981 201.691 438.593L200.554 438.753L200.563 438.762ZM219.849 294.047L220.888 294.528C221.493 293.264 222.116 291.983 222.739 290.728L221.709 290.23C221.077 291.493 220.454 292.784 219.849 294.047ZM201.962 447.118C202.224 448.506 202.495 449.904 202.784 451.274L203.904 451.051C203.624 449.69 203.344 448.293 203.091 446.913L201.962 447.118ZM223.624 286.439L224.644 286.955C225.285 285.718 225.944 284.454 226.612 283.208L225.601 282.683C224.933 283.929 224.265 285.193 223.624 286.439ZM203.678 455.421C203.994 456.8 204.319 458.18 204.662 459.541L205.773 459.274C205.439 457.921 205.105 456.542 204.798 455.172L203.678 455.421ZM227.642 278.955L228.644 279.498C229.321 278.287 230.016 277.041 230.73 275.813L229.736 275.253C229.023 276.49 228.319 277.736 227.642 278.955ZM205.719 463.652C206.08 465.005 206.468 466.384 206.856 467.737L207.958 467.426C207.57 466.082 207.181 464.711 206.82 463.368L205.71 463.661L205.719 463.652ZM231.876 271.577L232.869 272.147C233.583 270.937 234.323 269.718 235.055 268.516L234.07 267.929C233.33 269.13 232.599 270.358 231.876 271.569V271.577ZM208.075 471.795C208.491 473.139 208.933 474.491 209.375 475.835L210.468 475.488C210.025 474.162 209.592 472.809 209.177 471.475L208.084 471.804L208.075 471.795ZM236.337 264.316L237.294 264.939C238.079 263.773 238.892 262.598 239.696 261.45L238.747 260.81C237.944 261.967 237.131 263.141 236.337 264.316ZM210.748 479.84C211.217 481.166 211.705 482.5 212.192 483.826L213.267 483.435C212.779 482.118 212.292 480.783 211.831 479.466L210.748 479.84ZM241.212 257.348L242.142 258.007C242.973 256.859 243.813 255.72 244.653 254.598L243.732 253.931C242.892 255.052 242.043 256.209 241.212 257.357V257.348ZM213.709 487.795C214.224 489.103 214.757 490.42 215.299 491.729L216.364 491.301C215.831 490.002 215.299 488.685 214.784 487.386L213.718 487.795H213.709ZM246.314 250.549L247.226 251.234C248.084 250.122 248.969 249.01 249.844 247.906L248.942 247.203C248.057 248.307 247.172 249.428 246.305 250.54L246.314 250.549ZM216.951 495.635C217.258 496.356 217.574 497.077 217.899 497.798L218.739 499.506L219.768 499.008L218.937 497.326C218.63 496.623 218.314 495.911 218.007 495.19L216.951 495.635ZM251.632 243.902L252.517 244.614C253.411 243.528 254.332 242.442 255.244 241.374L254.368 240.645C253.447 241.713 252.526 242.816 251.623 243.902H251.632ZM220.617 503.306C221.249 504.579 221.881 505.842 222.513 507.097L223.542 506.599C222.91 505.344 222.278 504.08 221.646 502.808L220.617 503.306ZM257.167 237.441L258.034 238.18C258.964 237.121 259.921 236.062 260.869 235.029L260.02 234.273C259.072 235.314 258.115 236.382 257.176 237.441H257.167ZM224.427 510.888C225.077 512.152 225.727 513.406 226.377 514.661L227.398 514.145C226.748 512.899 226.098 511.644 225.456 510.381L224.436 510.888H224.427ZM262.919 231.15L263.759 231.915C264.716 230.9 265.709 229.868 266.693 228.854L265.862 228.071C264.869 229.085 263.876 230.126 262.91 231.15H262.919ZM228.364 518.408C229.041 519.671 229.727 520.926 230.395 522.136L231.407 521.593C230.739 520.392 230.061 519.137 229.384 517.874L228.373 518.399L228.364 518.408ZM268.86 225.045L269.673 225.837C270.666 224.849 271.686 223.852 272.706 222.874L271.903 222.064C270.883 223.043 269.853 224.048 268.851 225.045H268.86ZM232.481 525.838C233.195 527.093 233.917 528.33 234.621 529.514L235.614 528.944C234.91 527.769 234.197 526.532 233.483 525.286L232.481 525.838ZM275.009 219.136L275.794 219.955C276.824 218.994 277.88 218.033 278.928 217.089L278.151 216.253C277.104 217.196 276.047 218.166 275.009 219.136ZM236.833 533.144C237.592 534.363 238.35 535.574 239.109 536.739L240.075 536.134C239.325 534.969 238.558 533.767 237.808 532.557L236.833 533.144ZM281.347 213.423L282.106 214.268C283.171 213.343 284.255 212.408 285.329 211.501L284.58 210.646C283.496 211.563 282.413 212.497 281.338 213.423H281.347ZM241.456 540.281C242.251 541.456 243.073 542.631 243.885 543.779L244.824 543.129C244.012 541.99 243.208 540.824 242.413 539.649L241.456 540.281ZM287.867 207.914L288.598 208.786C289.69 207.897 290.801 206.998 291.912 206.126L291.189 205.245C290.079 206.126 288.959 207.024 287.858 207.923L287.867 207.914ZM246.386 547.222C247.235 548.353 248.102 549.492 248.978 550.604L249.89 549.91C249.023 548.806 248.156 547.676 247.316 546.546L246.395 547.214L246.386 547.222ZM294.566 202.62L295.271 203.509C296.39 202.655 297.537 201.792 298.666 200.955L297.979 200.048C296.842 200.893 295.695 201.756 294.566 202.62ZM251.768 553.861C252.707 554.92 253.664 555.988 254.603 557.038L255.461 556.29C254.522 555.249 253.564 554.181 252.625 553.122L251.759 553.861H251.768ZM301.428 197.538L302.106 198.455C303.261 197.627 304.435 196.808 305.591 196.008L304.932 195.082C303.767 195.883 302.593 196.711 301.438 197.538H301.428ZM257.483 560.197C258.44 561.238 259.424 562.288 260.382 563.321L261.221 562.555C260.255 561.532 259.289 560.482 258.332 559.441L257.483 560.197ZM308.471 192.688L309.112 193.623C310.286 192.84 311.487 192.056 312.679 191.291L312.056 190.348C310.864 191.113 309.663 191.905 308.48 192.688H308.471ZM263.316 566.409C264.309 567.441 265.302 568.464 266.287 569.47L267.108 568.687C266.124 567.69 265.131 566.667 264.147 565.634L263.316 566.409ZM315.659 188.061L316.273 189.022C317.482 188.274 318.701 187.527 319.911 186.806L319.315 185.836C318.106 186.557 316.878 187.304 315.659 188.061ZM269.293 572.487C270.305 573.492 271.334 574.498 272.336 575.477L273.14 574.667C272.138 573.697 271.117 572.691 270.106 571.695L269.293 572.487ZM323.008 183.674L323.586 184.653C324.814 183.95 326.06 183.238 327.297 182.561L326.737 181.573C325.5 182.259 324.245 182.971 323.008 183.674ZM275.433 578.422C276.472 579.401 277.528 580.38 278.557 581.323L279.334 580.496C278.305 579.552 277.257 578.573 276.219 577.603L275.424 578.422H275.433ZM330.494 179.527L331.035 180.523C332.281 179.856 333.555 179.197 334.819 178.548L334.286 177.542C333.022 178.192 331.74 178.859 330.494 179.527ZM281.727 584.189C282.783 585.132 283.867 586.084 284.932 587.001L285.691 586.146C284.625 585.23 283.551 584.287 282.494 583.343L281.727 584.18V584.189ZM338.123 175.62L338.638 176.635C339.902 176.012 341.193 175.398 342.484 174.793L341.988 173.769C340.688 174.374 339.396 175.006 338.123 175.62ZM288.183 589.768C289.275 590.685 290.386 591.593 291.478 592.482L292.21 591.61C291.117 590.729 290.016 589.813 288.923 588.905L288.183 589.768ZM345.879 171.98L346.358 173.013C347.649 172.434 348.958 171.856 350.268 171.295L349.807 170.263C348.498 170.824 347.18 171.402 345.879 171.989V171.98ZM294.828 595.143C295.948 596.024 297.094 596.905 298.214 597.751L298.909 596.852C297.79 596.006 296.661 595.134 295.541 594.253L294.828 595.134V595.143ZM353.762 168.599L354.204 169.64C355.514 169.106 356.85 168.572 358.168 168.056L357.744 167.006C356.417 167.522 355.08 168.056 353.762 168.599ZM301.636 600.305C302.783 601.141 303.948 601.978 305.112 602.796L305.781 601.88C304.625 601.07 303.46 600.233 302.322 599.397L301.636 600.305ZM361.753 165.484L362.159 166.543C363.486 166.054 364.841 165.564 366.177 165.093L365.789 164.025C364.444 164.496 363.089 164.986 361.753 165.484ZM308.625 605.226C309.799 606.027 310.999 606.819 312.182 607.593L312.814 606.65C311.632 605.875 310.44 605.083 309.275 604.291L308.625 605.226ZM369.852 162.637L370.222 163.704C371.559 163.259 372.931 162.815 374.285 162.396L373.942 161.319C372.579 161.747 371.197 162.192 369.852 162.637ZM315.794 609.898C316.995 610.654 318.223 611.402 319.442 612.131L320.038 611.17C318.828 610.441 317.609 609.693 316.408 608.946L315.794 609.898ZM378.042 160.074L378.367 161.159C379.73 160.759 381.112 160.367 382.475 159.985L382.168 158.899C380.796 159.273 379.405 159.673 378.033 160.074H378.042ZM323.135 614.303C324.372 615.015 325.627 615.718 326.864 616.412L327.424 615.424C326.187 614.739 324.941 614.036 323.713 613.324L323.135 614.303ZM386.321 157.796L386.61 158.89C387.983 158.534 389.373 158.196 390.764 157.867L390.493 156.772C389.102 157.101 387.694 157.448 386.321 157.804V157.796ZM330.629 618.459C331.884 619.126 333.157 619.793 334.43 620.443L334.954 619.437C333.69 618.788 332.417 618.129 331.171 617.462L330.629 618.459ZM394.682 155.802L394.935 156.906C396.317 156.603 397.725 156.309 399.125 156.025L398.899 154.921C397.5 155.206 396.082 155.5 394.692 155.811L394.682 155.802ZM338.259 622.356C339.541 622.988 340.841 623.611 342.123 624.207L342.62 623.184C341.347 622.588 340.047 621.965 338.773 621.342L338.259 622.356ZM403.116 154.111L403.323 155.224C404.723 154.966 406.141 154.716 407.54 154.494L407.351 153.382C405.951 153.613 404.524 153.862 403.116 154.12V154.111ZM346.024 625.996C347.324 626.574 348.642 627.162 349.952 627.722L350.412 626.69C349.112 626.129 347.794 625.56 346.502 624.973L346.024 626.005V625.996ZM411.603 152.714L411.775 153.835C413.183 153.631 414.61 153.435 416.019 153.257L415.874 152.136C414.466 152.314 413.03 152.51 411.612 152.723L411.603 152.714ZM353.906 629.377C355.225 629.911 356.561 630.454 357.888 630.97L358.313 629.92C356.994 629.404 355.658 628.87 354.349 628.336L353.906 629.377ZM420.136 151.611L420.262 152.732C421.671 152.581 423.107 152.429 424.524 152.305L424.416 151.184C422.998 151.317 421.554 151.459 420.136 151.62V151.611ZM361.906 632.483C363.243 632.973 364.597 633.462 365.942 633.934L366.331 632.866C364.994 632.394 363.64 631.914 362.313 631.415L361.906 632.474V632.483ZM370.006 635.322C371.351 635.767 372.732 636.212 374.087 636.639L374.43 635.562C373.075 635.135 371.703 634.699 370.367 634.254L370.006 635.322ZM378.204 637.885C379.568 638.285 380.958 638.686 382.33 639.06L382.637 637.974C381.265 637.6 379.884 637.2 378.529 636.799L378.204 637.885ZM386.484 640.172C387.865 640.528 389.265 640.875 390.655 641.204L390.926 640.11C389.545 639.78 388.154 639.433 386.782 639.077L386.493 640.172H386.484ZM394.836 642.174C396.226 642.486 397.644 642.779 399.035 643.064L399.269 641.961C397.879 641.676 396.47 641.382 395.089 641.071L394.836 642.174ZM403.251 643.892C404.651 644.15 406.077 644.408 407.477 644.639L407.667 643.527C406.267 643.295 404.849 643.037 403.459 642.779L403.242 643.892H403.251ZM411.721 645.316C413.129 645.529 414.556 645.734 415.973 645.921L416.127 644.799C414.718 644.612 413.292 644.408 411.892 644.194L411.721 645.316ZM420.371 645.333L420.235 646.455C421.644 646.615 423.079 646.775 424.506 646.917L424.623 645.796C423.206 645.654 421.779 645.502 420.371 645.342V645.333ZM428.885 646.17L428.795 647.3C430.222 647.416 431.666 647.522 433.084 647.611L433.156 646.481C431.747 646.392 430.312 646.286 428.894 646.17H428.885ZM437.418 646.722L437.364 647.852C438.781 647.923 440.226 647.976 441.653 648.021L441.689 646.891C440.271 646.846 438.826 646.793 437.418 646.722ZM445.969 646.98L445.951 648.11C447.377 648.128 448.822 648.136 450.248 648.128V646.997C448.822 646.997 447.386 646.997 445.969 646.98ZM454.519 646.944L454.546 648.074C455.964 648.047 457.409 648.003 458.835 647.95L458.79 646.819C457.372 646.873 455.928 646.917 454.519 646.944ZM463.061 646.615L463.124 647.745C464.551 647.665 465.986 647.576 467.413 647.469L467.332 646.339C465.914 646.446 464.478 646.535 463.07 646.615H463.061ZM471.585 646.001L471.693 647.122C473.11 646.997 474.546 646.855 475.964 646.704L475.837 645.582C474.429 645.734 472.993 645.876 471.585 646.001ZM480.09 645.093L480.235 646.214C481.643 646.036 483.079 645.849 484.487 645.645L484.325 644.524C482.916 644.719 481.49 644.915 480.09 645.084V645.093ZM488.55 643.892L488.731 645.004C490.131 644.782 491.557 644.541 492.966 644.292L492.767 643.18C491.368 643.429 489.95 643.66 488.55 643.883V643.892ZM496.957 642.414L497.182 643.527C498.573 643.26 499.991 642.966 501.39 642.673L501.146 641.569C499.756 641.863 498.347 642.147 496.957 642.414ZM505.318 640.644L505.58 641.747C506.97 641.427 508.37 641.097 509.751 640.75L509.471 639.656C508.099 639.994 506.699 640.332 505.318 640.644ZM513.607 638.597L513.905 639.691C515.277 639.327 516.668 638.944 518.04 638.561L517.724 637.476C516.361 637.858 514.97 638.241 513.607 638.606V638.597ZM521.814 636.274L522.148 637.351C523.512 636.942 524.884 636.514 526.239 636.078L525.886 635.002C524.541 635.429 523.169 635.856 521.814 636.265V636.274ZM529.941 633.676L530.311 634.744C531.656 634.29 533.019 633.818 534.356 633.338L533.968 632.279C532.631 632.759 531.277 633.222 529.941 633.676ZM537.967 630.81L538.374 631.869C539.701 631.371 541.046 630.855 542.365 630.33L541.94 629.28C540.622 629.796 539.286 630.312 537.967 630.81ZM545.895 627.678L546.338 628.719C547.647 628.176 548.974 627.615 550.274 627.055L549.814 626.023C548.514 626.583 547.195 627.144 545.895 627.687V627.678ZM553.714 624.296L554.193 625.32C555.484 624.732 556.793 624.127 558.085 623.522L557.588 622.499C556.306 623.104 555.006 623.709 553.714 624.287V624.296ZM561.426 620.648L561.94 621.662C563.213 621.03 564.504 620.381 565.769 619.731L565.236 618.725C563.981 619.375 562.699 620.016 561.426 620.648ZM569.01 616.741L569.561 617.738C570.807 617.07 572.071 616.376 573.317 615.691L572.757 614.703C571.52 615.397 570.256 616.082 569.01 616.741ZM576.468 612.603L577.046 613.582C578.274 612.87 579.511 612.14 580.739 611.411L580.143 610.449C578.924 611.179 577.696 611.909 576.468 612.612V612.603ZM583.773 608.216L584.387 609.168C585.597 608.412 586.825 607.637 588.008 606.863L587.376 605.92C586.193 606.685 584.974 607.459 583.764 608.207L583.773 608.216ZM590.951 603.571L591.592 604.505C592.775 603.713 593.967 602.894 595.132 602.084L594.473 601.159C593.308 601.969 592.125 602.779 590.942 603.571H590.951ZM597.958 598.694L598.635 599.602C599.791 598.774 600.955 597.92 602.093 597.065L601.398 596.167C600.26 597.012 599.104 597.866 597.958 598.694ZM604.793 593.586L605.497 594.476C606.617 593.604 607.755 592.714 608.865 591.824L608.143 590.952C607.041 591.833 605.913 592.723 604.793 593.595V593.586ZM611.438 588.255L612.179 589.119C613.271 588.211 614.373 587.285 615.447 586.36L614.689 585.506C613.615 586.431 612.522 587.357 611.438 588.255ZM617.903 582.703L618.671 583.539C619.727 582.596 620.793 581.626 621.84 580.665L621.055 579.837C620.016 580.798 618.951 581.759 617.903 582.694V582.703ZM624.152 576.927L624.946 577.737C625.966 576.758 626.996 575.761 628.007 574.756L627.194 573.955C626.192 574.952 625.163 575.948 624.143 576.918L624.152 576.927ZM630.201 570.947L631.032 571.73C632.025 570.716 633.018 569.683 633.984 568.651L633.145 567.886C632.179 568.909 631.185 569.941 630.201 570.956V570.947ZM636.034 564.762L636.883 565.519C637.831 564.477 638.788 563.41 639.727 562.342L638.86 561.603C637.93 562.662 636.973 563.73 636.025 564.771L636.034 564.762ZM641.641 558.391L642.517 559.111C643.429 558.035 644.35 556.931 645.244 555.837L644.35 555.125C643.456 556.219 642.544 557.314 641.632 558.382L641.641 558.391ZM647.023 551.823L647.926 552.517C648.801 551.414 649.677 550.284 650.535 549.153L649.614 548.477C648.756 549.598 647.88 550.729 647.014 551.823H647.023ZM652.16 545.087L653.09 545.754C653.921 544.615 654.761 543.458 655.582 542.301L654.643 541.652C653.831 542.8 652.991 543.956 652.16 545.087ZM657.063 538.172L658.011 538.804C658.806 537.638 659.6 536.455 660.377 535.271L659.411 534.657C658.634 535.832 657.84 537.015 657.054 538.172H657.063ZM661.722 531.106L662.697 531.703C663.456 530.51 664.205 529.291 664.946 528.09L663.962 527.511C663.23 528.704 662.481 529.914 661.722 531.106ZM666.129 523.88L667.122 524.45C667.835 523.231 668.548 521.994 669.244 520.766L668.241 520.214C667.555 521.433 666.842 522.67 666.129 523.88ZM670.282 516.521L671.293 517.055C671.961 515.818 672.63 514.563 673.28 513.308L672.259 512.792C671.609 514.038 670.941 515.293 670.282 516.521ZM674.183 509.019L675.212 509.518C675.835 508.263 676.467 506.981 677.072 505.709L676.034 505.228C675.429 506.492 674.806 507.773 674.183 509.019ZM677.821 501.402L678.869 501.864C679.456 500.583 680.034 499.284 680.602 497.993L679.546 497.548C678.986 498.83 678.408 500.129 677.821 501.402ZM681.198 493.669L682.255 494.096C682.797 492.796 683.338 491.47 683.853 490.171L682.788 489.762C682.273 491.061 681.74 492.369 681.198 493.669ZM684.322 485.829L685.397 486.22C685.894 484.903 686.39 483.568 686.86 482.251L685.776 481.877C685.298 483.194 684.81 484.529 684.313 485.829H684.322ZM687.176 477.891L688.259 478.247C688.711 476.921 689.162 475.568 689.596 474.224L688.503 473.877C688.07 475.212 687.627 476.565 687.176 477.882V477.891Z" fill="#C9C9C9"/>
<path d="M689.822 499.685L690.924 500.014C691.132 499.338 691.33 498.662 691.538 497.977L690.436 497.656C690.238 498.333 690.03 499.009 689.831 499.685H689.822Z" fill="#E8E8E8"/>
<path d="M430.926 183.815C432.352 183.717 433.427 182.498 433.327 181.092C433.228 179.686 431.991 178.627 430.564 178.725C429.138 178.823 428.063 180.042 428.163 181.448C428.262 182.854 429.499 183.913 430.926 183.815Z" fill="#E8E8E8"/>
<path d="M430.953 184.155C429.337 184.262 427.937 183.06 427.829 181.476C427.721 179.883 428.94 178.504 430.547 178.397C432.163 178.29 433.563 179.492 433.671 181.076C433.779 182.669 432.56 184.048 430.953 184.155C432.569 184.048 429.337 184.262 430.953 184.155ZM430.592 179.074C429.355 179.163 428.425 180.213 428.515 181.432C428.605 182.651 429.671 183.568 430.908 183.479C432.145 183.39 433.075 182.339 432.985 181.12C432.894 179.901 431.829 178.985 430.592 179.074C431.829 178.985 429.355 179.163 430.592 179.074Z" fill="#E8E8E8"/>
<path d="M692.304 493.207L687.735 498.938L690.868 498.155L693.107 500.451L692.304 493.207Z" fill="#E8E8E8"/>
<path d="M102.235 341.453L137.747 347.656L137.918 346.722C151.525 271.081 192.897 203.377 254.405 156.079C278.72 137.374 305.483 122.352 333.934 111.425L334.837 111.077L321.736 77.9556L320.833 78.3026C289.113 90.4942 259.298 107.233 232.22 128.057C197.403 154.834 168.428 187.235 146.09 224.352C124.519 260.206 109.819 299.29 102.406 340.519L102.235 341.453ZM136.185 345.458L104.474 339.914C111.905 299.264 126.46 260.713 147.751 225.322C169.963 188.4 198.784 156.177 233.412 129.552C260.093 109.04 289.438 92.5053 320.643 80.4206L332.345 109.992C304.056 120.964 277.438 135.959 253.231 154.576C191.597 201.971 150.063 269.728 136.203 345.449L136.185 345.458ZM98 427.844L98.0722 428.797C103.517 496.375 128.844 560.465 171.335 614.135C187.543 634.603 206.017 653.246 226.242 669.531C245.926 685.38 267.425 699.129 290.142 710.395L291 710.822L307.217 679.071L306.359 678.644C264.617 657.936 228.752 628.872 199.769 592.261C161.638 544.1 138.902 486.595 134.027 425.976L133.954 425.023L98 427.836V427.844ZM290.151 708.268C267.876 697.144 246.793 683.618 227.47 668.054C207.353 651.858 188.979 633.321 172.861 612.96C130.803 559.834 105.648 496.446 100.077 429.589L132.185 427.079C137.259 487.725 160.085 545.23 198.252 593.436C227.208 630.02 263 659.11 304.634 679.916L290.151 708.268ZM406.944 57.1409L411.062 92.452L412.019 92.3452C522.266 79.8511 628.784 123.803 696.964 209.918L697.56 210.666L725.993 188.801L725.397 188.053C706.246 163.857 684.025 142.331 659.357 124.052C635.429 106.325 609.208 91.6778 581.426 80.5007C526.681 58.4847 466.673 50.3688 407.902 57.0252L406.944 57.132V57.1409ZM412.768 90.3518L409.093 58.8139C467.233 52.3889 526.555 60.4869 580.712 82.2627C608.342 93.3686 634.409 107.945 658.21 125.565C682.49 143.55 704.386 164.703 723.293 188.463L697.903 207.987C629.488 122.085 523.033 78.1602 412.777 90.334L412.768 90.3518ZM373.816 739.53L374.764 739.726C476.759 761.208 582.374 737.296 664.531 674.123C678.391 663.462 691.51 651.733 703.528 639.257L704.196 638.563L678.038 614.09L677.37 614.785C666.58 625.988 654.797 636.516 642.346 646.1C568.622 702.786 473.842 724.251 382.304 704.967L381.365 704.771L373.825 739.53H373.816ZM701.46 638.643C689.695 650.79 676.874 662.225 663.339 672.628C581.895 735.259 477.255 759.09 376.11 738.071L382.836 707.031C474.646 726.084 569.606 704.45 643.52 647.604C655.79 638.162 667.42 627.804 678.093 616.787L701.451 638.643H701.46ZM721.334 245.443L721.812 246.27C776.313 339.478 777.459 456.143 724.819 550.73L724.358 551.567L755.979 568.661L756.439 567.825C785.089 516.344 800.069 457.985 799.753 399.047C799.599 369.547 795.617 340.181 787.942 311.767C780.078 282.667 768.34 254.662 753.062 228.526L752.584 227.698L721.334 245.443ZM763.022 439.831C771.319 373.579 758.263 305.226 723.97 246.137L751.88 230.288C766.841 256.041 778.344 283.61 786.091 312.247C793.73 340.501 797.685 369.708 797.838 399.047C798.145 457.344 783.41 515.072 755.22 566.072L726.986 550.801C746.209 516.015 758.218 478.266 763.031 439.822L763.022 439.831Z" fill="#E8E8E8"/>
<path d="M896 396.339L896 396.118L858.469 396.118L858.469 396.339C858.469 399.638 858.43 402.994 858.342 406.312L895.854 407.209C895.942 403.592 895.99 399.937 895.99 396.339L896 396.339ZM895.854 385.016C895.767 381.342 895.621 377.609 895.437 373.925L857.954 375.767C858.119 379.142 858.255 382.566 858.333 385.942L895.845 385.016L895.854 385.016ZM895.456 418.301L857.973 416.488C857.808 419.873 857.594 423.287 857.342 426.653L894.766 429.393C895.038 425.728 895.271 422.005 895.446 418.311L895.456 418.301ZM894.747 362.843C894.475 359.168 894.144 355.445 893.775 351.78L856.429 355.464C856.769 358.821 857.06 362.235 857.313 365.601L894.737 362.843L894.747 362.843ZM893.814 440.455L856.467 436.8C856.137 440.166 855.748 443.561 855.331 446.917L892.57 451.499C893.027 447.843 893.445 444.13 893.804 440.465L893.814 440.455ZM892.532 340.736C892.075 337.081 891.56 333.377 891.006 329.731L853.893 335.258C854.398 338.595 854.864 341.99 855.292 345.337L892.532 340.727L892.532 340.736ZM891.064 462.494L853.951 456.996C853.446 460.334 852.902 463.709 852.309 467.037L889.277 473.46C889.918 469.824 890.52 466.14 891.064 462.494ZM889.219 318.765C888.568 315.119 887.868 311.435 887.139 307.818L850.356 315.187C851.027 318.495 851.668 321.871 852.26 325.218L889.219 318.765ZM887.207 484.378L850.415 477.039C849.744 480.356 849.025 483.703 848.267 486.983L884.866 495.239C885.692 491.651 886.479 487.995 887.207 484.378ZM884.779 296.929C883.953 293.331 883.069 289.686 882.146 286.098L845.78 295.299C846.625 298.588 847.432 301.915 848.19 305.214L884.779 296.929ZM882.243 506.041L845.868 496.878C845.032 500.148 844.138 503.456 843.225 506.706L879.357 516.785C880.358 513.236 881.33 509.629 882.252 506.051L882.243 506.041ZM879.231 275.344C878.221 271.804 877.152 268.206 876.054 264.667L840.203 275.672C841.214 278.912 842.195 282.211 843.118 285.452L879.241 275.344L879.231 275.344ZM876.19 527.424L840.33 516.448C839.329 519.669 838.27 522.929 837.192 526.131L872.76 537.995C873.946 534.493 875.102 530.934 876.19 527.414L876.19 527.424ZM872.605 254.067C871.41 250.556 870.166 247.026 868.884 243.563L833.636 256.362C834.802 259.536 835.948 262.767 837.036 265.978L872.595 254.076L872.605 254.067ZM869.059 548.488L833.801 535.738C832.635 538.901 831.421 542.103 830.177 545.248L865.104 558.876C866.465 555.442 867.796 551.941 869.068 548.479L869.059 548.488ZM864.9 233.157C863.54 229.723 862.112 226.261 860.655 222.856L826.106 237.391C827.437 240.506 828.749 243.679 829.992 246.824L864.9 233.157ZM860.888 569.138L826.32 554.642C824.999 557.738 823.629 560.863 822.23 563.939L856.429 579.285C857.954 575.938 859.46 572.523 860.898 569.138L860.888 569.138ZM856.156 212.671C854.621 209.305 853.018 205.919 851.396 202.601L817.624 218.844C819.111 221.882 820.578 224.987 821.987 228.064L856.156 212.671ZM851.707 589.315L817.906 573.131C816.439 576.16 814.904 579.207 813.35 582.207L846.732 599.23C848.433 595.951 850.104 592.614 851.707 589.315ZM846.383 192.648C844.682 189.369 842.904 186.07 841.117 182.829L808.21 200.73C809.852 203.691 811.465 206.72 813.029 209.719L846.383 192.638L846.383 192.648ZM841.505 609.02L808.56 591.177C806.937 594.128 805.247 597.108 803.547 600.021L836.026 618.674C837.881 615.492 839.727 612.241 841.496 609.01L841.505 609.02ZM835.618 173.146C833.752 169.953 831.819 166.742 829.866 163.607L797.902 183.119C799.68 185.993 801.458 188.935 803.168 191.867L835.618 173.146ZM830.323 628.213L798.32 608.759C796.542 611.643 794.705 614.537 792.869 617.353L824.377 637.598C826.388 634.521 828.389 631.358 830.323 628.213ZM823.891 154.203C821.87 151.107 819.772 148.002 817.673 144.954L786.729 166.028C788.653 168.815 790.576 171.661 792.422 174.496L823.891 154.194L823.891 154.203ZM818.188 646.818L787.195 625.802C785.281 628.589 783.299 631.387 781.317 634.126L811.766 655.894C813.932 652.914 816.089 649.857 818.178 646.818L818.188 646.818ZM811.222 135.878C809.055 132.898 806.811 129.898 804.547 126.956L774.691 149.535C776.761 152.236 778.82 154.984 780.812 157.714L811.222 135.878ZM805.13 664.826L775.235 642.305C773.176 644.996 771.058 647.696 768.94 650.329L798.271 673.573C800.583 670.699 802.886 667.758 805.13 664.826ZM797.659 118.208C795.327 115.324 792.937 112.441 790.547 109.624L761.867 133.65C764.053 136.225 766.248 138.868 768.386 141.51L797.659 118.199L797.659 118.208ZM791.188 682.157L762.45 658.199C760.264 660.784 758.019 663.379 755.765 665.906L783.892 690.568C786.35 687.8 788.808 684.974 791.188 682.157ZM783.222 101.224C780.754 98.4651 778.228 95.7067 775.692 93.0061L748.245 118.411C750.567 120.88 752.89 123.417 755.144 125.944L783.212 101.224L783.222 101.224ZM776.382 698.795L748.887 673.448C746.565 675.927 744.184 678.415 741.814 680.826L768.677 706.839C771.262 704.206 773.856 701.505 776.382 698.795ZM767.968 84.9815C765.364 82.3484 762.702 79.7057 760.04 77.1497L733.905 103.876C736.344 106.229 738.792 108.641 741.173 111.061L767.978 84.9815L767.968 84.9815ZM760.769 714.69L734.566 688.022C732.127 690.375 729.63 692.738 727.134 695.033L752.656 722.348C755.377 719.84 758.107 717.265 760.759 714.69L760.769 714.69ZM751.918 69.511C749.188 67.0033 746.39 64.5053 743.611 62.0747L718.846 90.0644C721.401 92.2923 723.956 94.5782 726.463 96.8737L751.928 69.511L751.918 69.511ZM744.369 729.794L719.536 701.862C716.99 704.1 714.367 706.328 711.763 708.507L735.897 737.037C738.744 734.665 741.6 732.224 744.379 729.794L744.369 729.794ZM735.11 54.8507C732.263 52.4877 729.349 50.1343 726.444 47.8388L703.097 77.0052C705.759 79.1078 708.431 81.2682 711.045 83.4383L735.11 54.8507ZM727.221 744.078L703.816 714.96C701.144 717.072 698.414 719.184 695.713 721.21L718.38 750.897C721.324 748.679 724.297 746.383 727.211 744.078L727.221 744.078ZM717.603 41.0488C714.63 38.8208 711.598 36.6121 708.596 34.4709L686.746 64.7561C689.505 66.714 692.284 68.7394 695.004 70.7841L717.612 41.0488L717.603 41.0488ZM709.383 757.504L687.465 727.267C684.706 729.244 681.869 731.212 679.061 733.112L700.212 763.879C703.282 761.796 706.371 759.655 709.383 757.504ZM699.425 28.1245C696.355 26.0509 693.216 23.9965 690.098 22L669.792 53.3268C672.649 55.1496 675.524 57.0401 678.342 58.9402L699.425 28.1245ZM690.885 770.042L670.521 738.754C667.655 740.596 664.721 742.419 661.825 744.184L681.402 775.964C684.56 774.045 687.756 772.058 690.885 770.042ZM671.764 781.645L652.994 749.383C650.04 751.08 647.029 752.758 644.036 754.369L661.991 787.085C665.255 785.32 668.539 783.487 671.764 781.635L671.764 781.645ZM652.081 792.293L634.962 759.143C631.921 760.687 628.831 762.22 625.761 763.677L642.035 797.241C645.377 795.64 648.758 793.971 652.081 792.293ZM631.863 801.948L616.444 767.988C613.335 769.377 610.168 770.746 607.02 772.058L621.574 806.394C625.003 804.957 628.462 803.462 631.863 801.948ZM611.178 810.58L597.508 775.887C594.322 777.122 591.086 778.337 587.89 779.485L600.675 814.505C604.173 813.251 607.7 811.93 611.178 810.58ZM590.066 818.18L578.174 782.851C574.939 783.921 571.645 784.973 568.381 785.966L579.369 821.585C582.935 820.504 586.539 819.357 590.066 818.18ZM568.624 824.7L558.539 788.811C555.265 789.718 551.932 790.596 548.629 791.425L557.801 827.545C561.405 826.639 565.048 825.684 568.614 824.69L568.624 824.7ZM546.919 830.13L538.671 793.788C535.338 794.531 531.967 795.244 528.644 795.9L535.979 832.435C539.613 831.722 543.295 830.94 546.919 830.13ZM524.981 834.47L518.569 797.762C515.217 798.34 511.817 798.881 508.455 799.372L513.935 836.226C517.607 835.686 521.328 835.097 524.981 834.47ZM502.84 837.711L498.283 800.732C494.912 801.137 491.492 801.514 488.091 801.842L491.715 838.926C495.417 838.569 499.157 838.164 502.84 837.721L502.84 837.711ZM480.572 839.852L477.88 802.69C474.48 802.931 471.041 803.134 467.64 803.298L469.408 840.508C473.11 840.334 476.87 840.113 480.572 839.852ZM458.235 840.894L457.39 803.645C454.281 803.713 451.114 803.751 447.995 803.751L447.13 803.751L447.062 841L447.995 841C451.405 841 454.845 840.961 458.235 840.884L458.235 840.894ZM436.881 803.607C433.48 803.52 430.031 803.385 426.631 803.211L424.717 840.421C428.428 840.614 432.188 840.759 435.89 840.855L436.89 803.616L436.881 803.607ZM416.39 802.565C413 802.304 409.57 802.005 406.179 801.668L402.4 838.733C406.102 839.1 409.842 839.438 413.544 839.717L416.39 802.575L416.39 802.565ZM395.997 800.52C392.616 800.096 389.196 799.623 385.845 799.122L380.21 835.956C383.872 836.505 387.603 837.026 391.285 837.489L395.988 800.53L395.997 800.52ZM375.731 797.463C372.379 796.874 368.998 796.228 365.665 795.563L358.175 832.069C361.808 832.802 365.51 833.506 369.163 834.152L375.721 797.472L375.731 797.463ZM355.649 793.412C352.336 792.66 348.984 791.849 345.69 791.01L336.363 827.092C339.958 828.008 343.621 828.896 347.235 829.715L355.639 793.412L355.649 793.412ZM335.79 788.348C332.535 787.432 329.222 786.458 325.967 785.455L314.824 821.035C318.38 822.134 321.994 823.195 325.55 824.199L335.78 788.358L335.79 788.348ZM316.223 782.311C312.997 781.221 309.742 780.083 306.556 778.925L293.624 813.898C297.102 815.161 300.658 816.405 304.175 817.592L316.213 782.311L316.223 782.311ZM296.986 775.299C293.838 774.064 290.661 772.772 287.542 771.45L272.862 805.738C276.272 807.175 279.741 808.593 283.18 809.943L296.996 775.308L296.986 775.299ZM278.186 767.371C275.097 765.972 271.988 764.525 268.937 763.05L252.547 796.566C255.879 798.167 259.27 799.758 262.641 801.282L278.186 767.371ZM259.804 758.507C256.802 756.964 253.761 755.363 250.779 753.733L232.717 786.39C235.972 788.165 239.285 789.92 242.569 791.599L259.795 758.507L259.804 758.507ZM241.879 748.737C238.945 747.039 235.982 745.284 233.096 743.519L213.422 775.241C216.57 777.17 219.796 779.079 223.002 780.931L241.879 748.737ZM224.449 738.088C221.593 736.246 218.727 734.346 215.939 732.437L194.691 763.146C197.741 765.22 200.86 767.293 203.979 769.309L224.449 738.088ZM207.573 726.582C204.824 724.605 202.055 722.56 199.354 720.515L176.6 750.145C179.544 752.373 182.565 754.601 185.568 756.761L207.573 726.582ZM191.29 714.256C188.628 712.134 185.966 709.954 183.382 707.794L159.17 736.266C161.998 738.629 164.893 741.001 167.798 743.316L191.29 714.266L191.29 714.256ZM175.629 701.139C173.083 698.891 170.528 696.586 168.05 694.291L142.45 721.528C145.16 724.036 147.939 726.553 150.718 729.003L175.629 701.139ZM160.637 687.25C158.209 684.887 155.77 682.457 153.409 680.036L126.477 705.981C129.062 708.623 131.714 711.266 134.366 713.851L160.637 687.25ZM146.356 672.648C144.053 670.169 141.741 667.623 139.496 665.086L111.302 689.671C113.75 692.439 116.276 695.217 118.792 697.927L146.365 672.648L146.356 672.648ZM132.822 657.351C130.636 654.756 128.459 652.094 126.341 649.452L96.9518 672.619C99.2544 675.503 101.635 678.396 104.015 681.232L132.812 657.351L132.822 657.351ZM128.343 140.604L99.1378 117.215C96.806 120.089 94.4743 123.021 92.2203 125.944L122.008 148.609C124.078 145.928 126.205 143.237 128.343 140.604ZM120.065 641.398C118.015 638.697 115.965 635.929 113.983 633.19L83.4666 654.872C85.6234 657.862 87.858 660.881 90.0926 663.832L120.055 641.398L120.065 641.398ZM115.868 156.759L85.5262 134.836C83.3402 137.816 81.1639 140.864 79.0557 143.893L109.941 165.054C111.875 162.276 113.867 159.479 115.868 156.75L115.868 156.759ZM108.115 624.828C106.201 622.031 104.297 619.176 102.461 616.331L70.8946 636.479C72.9057 639.585 74.9848 642.71 77.0737 645.758L108.125 624.828L108.115 624.828ZM104.229 173.512L72.828 153.123C70.7974 156.209 68.7766 159.363 66.8237 162.488L98.7297 182.096C100.517 179.232 102.373 176.338 104.229 173.512ZM97.0198 607.689C95.2516 604.795 93.493 601.844 91.7928 598.912L59.2553 617.469C61.1013 620.671 63.025 623.892 64.9584 627.046L97.0198 607.689ZM93.4347 190.806L61.043 171.998C59.1679 175.181 57.3025 178.431 55.5148 181.653L88.3729 199.65C90.0148 196.699 91.7151 193.728 93.4347 190.806ZM86.7893 590.01C85.1668 587.039 83.5637 584.001 82.0092 580.982L48.5682 597.89C50.2587 601.179 52.0172 604.496 53.7855 607.747L86.7893 590.01ZM83.5345 208.62L50.2392 191.442C48.5293 194.712 46.8388 198.049 45.2066 201.357L78.9294 217.705C80.4256 214.667 81.9703 211.62 83.5443 208.62L83.5345 208.62ZM77.4623 571.839C75.9856 568.781 74.5379 565.666 73.1486 562.58L38.8915 577.799C40.4071 581.165 42.0005 584.57 43.6035 587.907L77.4623 571.839ZM74.5476 226.897L40.4265 211.398C38.8817 214.754 37.3564 218.168 35.899 221.554L70.4088 236.205C71.7398 233.109 73.1389 229.974 74.5573 226.907L74.5476 226.897ZM69.0681 553.214C67.7565 550.089 66.4643 546.907 65.2304 543.753L30.2543 557.246C31.6048 560.689 33.0135 564.171 34.4514 567.576L69.0778 553.214L69.0681 553.214ZM66.4934 245.589L31.6242 231.806C30.2543 235.23 28.9038 238.722 27.6214 242.175L62.8209 255.08C63.9965 251.916 65.2304 248.724 66.4934 245.589ZM61.6259 534.195C60.4698 531.012 59.3428 527.771 58.2643 524.55L22.647 536.268C23.8226 539.789 25.0565 543.328 26.3098 546.81L61.6259 534.204L61.6259 534.195ZM59.3913 264.667L23.8712 252.639C22.6761 256.131 21.5006 259.68 20.393 263.191L56.2046 274.321C57.215 271.11 58.2935 267.859 59.3913 264.657L59.3913 264.667ZM55.1553 514.818C54.1741 511.596 53.2122 508.308 52.299 505.048L16.1279 514.972C17.1188 518.531 18.1681 522.119 19.2466 525.639L55.1553 514.818ZM53.2802 284.063L17.1966 273.829C16.1764 277.369 15.1854 280.976 14.2624 284.535L50.589 293.872C51.444 290.612 52.3475 287.313 53.2802 284.063ZM49.6952 495.21C48.8694 491.94 48.0824 488.603 47.344 485.314L10.7163 493.416C11.5227 497.013 12.3873 500.649 13.2909 504.228L49.7049 495.21L49.6952 495.21ZM48.1504 303.738L11.5907 295.309C10.7551 298.897 9.94873 302.542 9.20063 306.15L45.9547 313.663C46.6348 310.364 47.3732 307.018 48.1407 303.738L48.1504 303.738ZM45.2454 475.351C44.5848 472.043 43.963 468.667 43.3898 465.339L6.39284 471.609C7.01463 475.245 7.69472 478.919 8.41368 482.536L45.2357 475.351L45.2454 475.351ZM44.0213 323.636L7.08263 317.039C6.42198 320.665 5.80989 324.35 5.24639 327.986L42.3405 333.657C42.8554 330.329 43.4286 326.954 44.0213 323.636ZM41.7964 455.289C41.3106 451.952 40.854 448.557 40.4557 445.201L3.19641 449.628C3.63361 453.283 4.1291 456.996 4.66346 460.642L41.8061 455.299L41.7964 455.289ZM40.9026 343.726L3.68218 338.971C3.20612 342.627 2.77863 346.33 2.39001 349.986L39.7173 353.815C40.067 350.468 40.4654 347.073 40.8929 343.726L40.9026 343.726ZM39.3578 435.083C39.0372 431.727 38.7554 428.312 38.5223 424.937L1.08813 427.522C1.34073 431.196 1.65163 434.919 2.00139 438.584L39.3578 435.083ZM38.7943 363.932L1.37959 361.02C1.08812 364.675 0.845235 368.398 0.641208 372.073L38.1142 374.069C38.2988 370.694 38.5223 367.289 38.7846 363.932L38.7943 363.932ZM37.9393 414.771C37.7839 411.395 37.677 407.971 37.609 404.595L0.0874213 405.338C0.165146 409.023 0.281732 412.755 0.446897 416.43L37.9393 414.771ZM37.6964 384.225L0.184575 383.145C0.0777035 386.83 0.00969589 390.562 -1.95286e-05 394.237L37.5313 394.401C37.5507 391.025 37.609 387.601 37.7061 384.216L37.6964 384.225Z" fill="#DBDBDB"/>
<path d="M896 396.339L896 396.118L858.469 396.118L858.469 396.339C858.469 399.638 858.43 402.994 858.342 406.312L895.854 407.209C895.942 403.592 895.99 399.937 895.99 396.339L896 396.339ZM895.854 385.016C895.767 381.342 895.621 377.609 895.437 373.925L857.954 375.767C858.119 379.142 858.255 382.566 858.333 385.942L895.845 385.016L895.854 385.016ZM895.456 418.301L857.973 416.488C857.808 419.873 857.594 423.287 857.342 426.653L894.766 429.393C895.038 425.728 895.271 422.005 895.446 418.311L895.456 418.301ZM894.747 362.843C894.475 359.168 894.144 355.445 893.775 351.78L856.429 355.464C856.769 358.821 857.06 362.235 857.313 365.601L894.737 362.843L894.747 362.843ZM893.814 440.455L856.467 436.8C856.137 440.166 855.748 443.561 855.331 446.917L892.57 451.499C893.027 447.843 893.445 444.13 893.804 440.465L893.814 440.455ZM892.532 340.736C892.075 337.081 891.56 333.377 891.006 329.731L853.893 335.258C854.398 338.595 854.864 341.99 855.292 345.337L892.532 340.727L892.532 340.736ZM891.064 462.494L853.951 456.996C853.446 460.334 852.902 463.709 852.309 467.037L889.277 473.46C889.918 469.824 890.52 466.14 891.064 462.494ZM889.219 318.765C888.568 315.119 887.868 311.435 887.139 307.818L850.356 315.187C851.027 318.495 851.668 321.871 852.26 325.218L889.219 318.765ZM887.207 484.378L850.415 477.039C849.744 480.356 849.025 483.703 848.267 486.983L884.866 495.239C885.692 491.651 886.479 487.995 887.207 484.378ZM884.779 296.929C883.953 293.331 883.069 289.686 882.146 286.098L845.78 295.299C846.625 298.588 847.432 301.915 848.19 305.214L884.779 296.929ZM882.243 506.041L845.868 496.878C845.032 500.148 844.138 503.456 843.225 506.706L879.357 516.785C880.358 513.236 881.33 509.629 882.252 506.051L882.243 506.041ZM879.231 275.344C878.221 271.804 877.152 268.206 876.054 264.667L840.203 275.672C841.214 278.912 842.195 282.211 843.118 285.452L879.241 275.344L879.231 275.344ZM876.19 527.424L840.33 516.448C839.329 519.669 838.27 522.929 837.192 526.131L872.76 537.995C873.946 534.493 875.102 530.934 876.19 527.414L876.19 527.424ZM872.605 254.067C871.41 250.556 870.166 247.026 868.884 243.563L833.636 256.362C834.802 259.536 835.948 262.767 837.036 265.978L872.595 254.076L872.605 254.067ZM869.059 548.488L833.801 535.738C832.635 538.901 831.421 542.103 830.177 545.248L865.104 558.876C866.465 555.442 867.796 551.941 869.068 548.479L869.059 548.488ZM864.9 233.157C863.54 229.723 862.112 226.261 860.655 222.856L826.106 237.391C827.437 240.506 828.749 243.679 829.992 246.824L864.9 233.157ZM860.888 569.138L826.32 554.642C824.999 557.738 823.629 560.863 822.23 563.939L856.429 579.285C857.954 575.938 859.46 572.523 860.898 569.138L860.888 569.138ZM856.156 212.671C854.621 209.305 853.018 205.919 851.396 202.601L817.624 218.844C819.111 221.882 820.578 224.987 821.987 228.064L856.156 212.671ZM851.707 589.315L817.906 573.131C816.439 576.16 814.904 579.207 813.35 582.207L846.732 599.23C848.433 595.951 850.104 592.614 851.707 589.315ZM846.383 192.648C844.682 189.369 842.904 186.07 841.117 182.829L808.21 200.73C809.852 203.691 811.465 206.72 813.029 209.719L846.383 192.638L846.383 192.648ZM841.505 609.02L808.56 591.177C806.937 594.128 805.247 597.108 803.547 600.021L836.026 618.674C837.881 615.492 839.727 612.241 841.496 609.01L841.505 609.02ZM835.618 173.146C833.752 169.953 831.819 166.742 829.866 163.607L797.902 183.119C799.68 185.993 801.458 188.935 803.168 191.867L835.618 173.146ZM830.323 628.213L798.32 608.759C796.542 611.643 794.705 614.537 792.869 617.353L824.377 637.598C826.388 634.521 828.389 631.358 830.323 628.213ZM823.891 154.203C821.87 151.107 819.772 148.002 817.673 144.954L786.729 166.028C788.653 168.815 790.576 171.661 792.422 174.496L823.891 154.194L823.891 154.203ZM818.188 646.818L787.195 625.802C785.281 628.589 783.299 631.387 781.317 634.126L811.766 655.894C813.932 652.914 816.089 649.857 818.178 646.818L818.188 646.818ZM811.222 135.878C809.055 132.898 806.811 129.898 804.547 126.956L774.691 149.535C776.761 152.236 778.82 154.984 780.812 157.714L811.222 135.878ZM805.13 664.826L775.235 642.305C773.176 644.996 771.058 647.696 768.94 650.329L798.271 673.573C800.583 670.699 802.886 667.758 805.13 664.826ZM797.659 118.208C795.327 115.324 792.937 112.441 790.547 109.624L761.867 133.65C764.053 136.225 766.248 138.868 768.386 141.51L797.659 118.199L797.659 118.208ZM791.188 682.157L762.45 658.199C760.264 660.784 758.019 663.379 755.765 665.906L783.892 690.568C786.35 687.8 788.808 684.974 791.188 682.157ZM783.222 101.224C780.754 98.4651 778.228 95.7067 775.692 93.0061L748.245 118.411C750.567 120.88 752.89 123.417 755.144 125.944L783.212 101.224L783.222 101.224ZM776.382 698.795L748.887 673.448C746.565 675.927 744.184 678.415 741.814 680.826L768.677 706.839C771.262 704.206 773.856 701.505 776.382 698.795ZM767.968 84.9815C765.364 82.3484 762.702 79.7057 760.04 77.1497L733.905 103.876C736.344 106.229 738.792 108.641 741.173 111.061L767.978 84.9815L767.968 84.9815ZM760.769 714.69L734.566 688.022C732.127 690.375 729.63 692.738 727.134 695.033L752.656 722.348C755.377 719.84 758.107 717.265 760.759 714.69L760.769 714.69ZM751.918 69.511C749.188 67.0033 746.39 64.5053 743.611 62.0747L718.846 90.0644C721.401 92.2923 723.956 94.5782 726.463 96.8737L751.928 69.511L751.918 69.511ZM744.369 729.794L719.536 701.862C716.99 704.1 714.367 706.328 711.763 708.507L735.897 737.037C738.744 734.665 741.6 732.224 744.379 729.794L744.369 729.794ZM735.11 54.8507C732.263 52.4877 729.349 50.1343 726.444 47.8388L703.097 77.0052C705.759 79.1078 708.431 81.2682 711.045 83.4383L735.11 54.8507ZM727.221 744.078L703.816 714.96C701.144 717.072 698.414 719.184 695.713 721.21L718.38 750.897C721.324 748.679 724.297 746.383 727.211 744.078L727.221 744.078ZM717.603 41.0488C714.63 38.8208 711.598 36.6121 708.596 34.4709L686.746 64.7561C689.505 66.714 692.284 68.7394 695.004 70.7841L717.612 41.0488L717.603 41.0488ZM709.383 757.504L687.465 727.267C684.706 729.244 681.869 731.212 679.061 733.112L700.212 763.879C703.282 761.796 706.371 759.655 709.383 757.504ZM699.425 28.1245C696.355 26.0509 693.216 23.9965 690.098 22L669.792 53.3268C672.649 55.1496 675.524 57.0401 678.342 58.9402L699.425 28.1245ZM690.885 770.042L670.521 738.754C667.655 740.596 664.721 742.419 661.825 744.184L681.402 775.964C684.56 774.045 687.756 772.058 690.885 770.042ZM671.764 781.645L652.994 749.383C650.04 751.08 647.029 752.758 644.036 754.369L661.991 787.085C665.255 785.32 668.539 783.487 671.764 781.635L671.764 781.645ZM652.081 792.293L634.962 759.143C631.921 760.687 628.831 762.22 625.761 763.677L642.035 797.241C645.377 795.64 648.758 793.971 652.081 792.293ZM631.863 801.948L616.444 767.988C613.335 769.377 610.168 770.746 607.02 772.058L621.574 806.394C625.003 804.957 628.462 803.462 631.863 801.948ZM611.178 810.58L597.508 775.887C594.322 777.122 591.086 778.337 587.89 779.485L600.675 814.505C604.173 813.251 607.7 811.93 611.178 810.58ZM590.066 818.18L578.174 782.851C574.939 783.921 571.645 784.973 568.381 785.966L579.369 821.585C582.935 820.504 586.539 819.357 590.066 818.18ZM568.624 824.7L558.539 788.811C555.265 789.718 551.932 790.596 548.629 791.425L557.801 827.545C561.405 826.639 565.048 825.684 568.614 824.69L568.624 824.7ZM546.919 830.13L538.671 793.788C535.338 794.531 531.967 795.244 528.644 795.9L535.979 832.435C539.613 831.722 543.295 830.94 546.919 830.13ZM524.981 834.47L518.569 797.762C515.217 798.34 511.817 798.881 508.455 799.372L513.935 836.226C517.607 835.686 521.328 835.097 524.981 834.47ZM502.84 837.711L498.283 800.732C494.912 801.137 491.492 801.514 488.091 801.842L491.715 838.926C495.417 838.569 499.157 838.164 502.84 837.721L502.84 837.711ZM480.572 839.852L477.88 802.69C474.48 802.931 471.041 803.134 467.64 803.298L469.408 840.508C473.11 840.334 476.87 840.113 480.572 839.852ZM458.235 840.894L457.39 803.645C454.281 803.713 451.114 803.751 447.995 803.751L447.13 803.751L447.062 841L447.995 841C451.405 841 454.845 840.961 458.235 840.884L458.235 840.894ZM436.881 803.607C433.48 803.52 430.031 803.385 426.631 803.211L424.717 840.421C428.428 840.614 432.188 840.759 435.89 840.855L436.89 803.616L436.881 803.607ZM416.39 802.565C413 802.304 409.57 802.005 406.179 801.668L402.4 838.733C406.102 839.1 409.842 839.438 413.544 839.717L416.39 802.575L416.39 802.565ZM395.997 800.52C392.616 800.096 389.196 799.623 385.845 799.122L380.21 835.956C383.872 836.505 387.603 837.026 391.285 837.489L395.988 800.53L395.997 800.52ZM375.731 797.463C372.379 796.874 368.998 796.228 365.665 795.563L358.175 832.069C361.808 832.802 365.51 833.506 369.163 834.152L375.721 797.472L375.731 797.463ZM355.649 793.412C352.336 792.66 348.984 791.849 345.69 791.01L336.363 827.092C339.958 828.008 343.621 828.896 347.235 829.715L355.639 793.412L355.649 793.412ZM335.79 788.348C332.535 787.432 329.222 786.458 325.967 785.455L314.824 821.035C318.38 822.134 321.994 823.195 325.55 824.199L335.78 788.358L335.79 788.348ZM316.223 782.311C312.997 781.221 309.742 780.083 306.556 778.925L293.624 813.898C297.102 815.161 300.658 816.405 304.175 817.592L316.213 782.311L316.223 782.311ZM296.986 775.299C293.838 774.064 290.661 772.772 287.542 771.45L272.862 805.738C276.272 807.175 279.741 808.593 283.18 809.943L296.996 775.308L296.986 775.299ZM278.186 767.371C275.097 765.972 271.988 764.525 268.937 763.05L252.547 796.566C255.879 798.167 259.27 799.758 262.641 801.282L278.186 767.371ZM259.804 758.507C256.802 756.964 253.761 755.363 250.779 753.733L232.717 786.39C235.972 788.165 239.285 789.92 242.569 791.599L259.795 758.507L259.804 758.507ZM241.879 748.737C238.945 747.039 235.982 745.284 233.096 743.519L213.422 775.241C216.57 777.17 219.796 779.079 223.002 780.931L241.879 748.737ZM224.449 738.088C221.593 736.246 218.727 734.346 215.939 732.437L194.691 763.146C197.741 765.22 200.86 767.293 203.979 769.309L224.449 738.088ZM207.573 726.582C204.824 724.605 202.055 722.56 199.354 720.515L176.6 750.145C179.544 752.373 182.565 754.601 185.568 756.761L207.573 726.582ZM191.29 714.256C188.628 712.134 185.966 709.954 183.382 707.794L159.17 736.266C161.998 738.629 164.893 741.001 167.798 743.316L191.29 714.266L191.29 714.256ZM175.629 701.139C173.083 698.891 170.528 696.586 168.05 694.291L142.45 721.528C145.16 724.036 147.939 726.553 150.718 729.003L175.629 701.139ZM160.637 687.25C158.209 684.887 155.77 682.457 153.409 680.036L126.477 705.981C129.062 708.623 131.714 711.266 134.366 713.851L160.637 687.25ZM146.356 672.648C144.053 670.169 141.741 667.623 139.496 665.086L111.302 689.671C113.75 692.439 116.276 695.217 118.792 697.927L146.365 672.648L146.356 672.648ZM132.822 657.351C130.636 654.756 128.459 652.094 126.341 649.452L96.9518 672.619C99.2544 675.503 101.635 678.396 104.015 681.232L132.812 657.351L132.822 657.351ZM128.343 140.604L99.1378 117.215C96.806 120.089 94.4743 123.021 92.2203 125.944L122.008 148.609C124.078 145.928 126.205 143.237 128.343 140.604ZM120.065 641.398C118.015 638.697 115.965 635.929 113.983 633.19L83.4666 654.872C85.6234 657.862 87.858 660.881 90.0926 663.832L120.055 641.398L120.065 641.398ZM115.868 156.759L85.5262 134.836C83.3402 137.816 81.1639 140.864 79.0557 143.893L109.941 165.054C111.875 162.276 113.867 159.479 115.868 156.75L115.868 156.759ZM108.115 624.828C106.201 622.031 104.297 619.176 102.461 616.331L70.8946 636.479C72.9057 639.585 74.9848 642.71 77.0737 645.758L108.125 624.828L108.115 624.828ZM104.229 173.512L72.828 153.123C70.7974 156.209 68.7766 159.363 66.8237 162.488L98.7297 182.096C100.517 179.232 102.373 176.338 104.229 173.512ZM97.0198 607.689C95.2516 604.795 93.493 601.844 91.7928 598.912L59.2553 617.469C61.1013 620.671 63.025 623.892 64.9584 627.046L97.0198 607.689ZM93.4347 190.806L61.043 171.998C59.1679 175.181 57.3025 178.431 55.5148 181.653L88.3729 199.65C90.0148 196.699 91.7151 193.728 93.4347 190.806ZM86.7893 590.01C85.1668 587.039 83.5637 584.001 82.0092 580.982L48.5682 597.89C50.2587 601.179 52.0172 604.496 53.7855 607.747L86.7893 590.01ZM83.5345 208.62L50.2392 191.442C48.5293 194.712 46.8388 198.049 45.2066 201.357L78.9294 217.705C80.4256 214.667 81.9703 211.62 83.5443 208.62L83.5345 208.62ZM77.4623 571.839C75.9856 568.781 74.5379 565.666 73.1486 562.58L38.8915 577.799C40.4071 581.165 42.0005 584.57 43.6035 587.907L77.4623 571.839ZM74.5476 226.897L40.4265 211.398C38.8817 214.754 37.3564 218.168 35.899 221.554L70.4088 236.205C71.7398 233.109 73.1389 229.974 74.5573 226.907L74.5476 226.897ZM69.0681 553.214C67.7565 550.089 66.4643 546.907 65.2304 543.753L30.2543 557.246C31.6048 560.689 33.0135 564.171 34.4514 567.576L69.0778 553.214L69.0681 553.214ZM66.4934 245.589L31.6242 231.806C30.2543 235.23 28.9038 238.722 27.6214 242.175L62.8209 255.08C63.9965 251.916 65.2304 248.724 66.4934 245.589ZM61.6259 534.195C60.4698 531.012 59.3428 527.771 58.2643 524.55L22.647 536.268C23.8226 539.789 25.0565 543.328 26.3098 546.81L61.6259 534.204L61.6259 534.195ZM59.3913 264.667L23.8712 252.639C22.6761 256.131 21.5006 259.68 20.393 263.191L56.2046 274.321C57.215 271.11 58.2935 267.859 59.3913 264.657L59.3913 264.667ZM55.1553 514.818C54.1741 511.596 53.2122 508.308 52.299 505.048L16.1279 514.972C17.1188 518.531 18.1681 522.119 19.2466 525.639L55.1553 514.818ZM53.2802 284.063L17.1966 273.829C16.1764 277.369 15.1854 280.976 14.2624 284.535L50.589 293.872C51.444 290.612 52.3475 287.313 53.2802 284.063ZM49.6952 495.21C48.8694 491.94 48.0824 488.603 47.344 485.314L10.7163 493.416C11.5227 497.013 12.3873 500.649 13.2909 504.228L49.7049 495.21L49.6952 495.21ZM48.1504 303.738L11.5907 295.309C10.7551 298.897 9.94873 302.542 9.20063 306.15L45.9547 313.663C46.6348 310.364 47.3732 307.018 48.1407 303.738L48.1504 303.738ZM45.2454 475.351C44.5848 472.043 43.963 468.667 43.3898 465.339L6.39284 471.609C7.01463 475.245 7.69472 478.919 8.41368 482.536L45.2357 475.351L45.2454 475.351ZM44.0213 323.636L7.08263 317.039C6.42198 320.665 5.80989 324.35 5.24639 327.986L42.3405 333.657C42.8554 330.329 43.4286 326.954 44.0213 323.636ZM41.7964 455.289C41.3106 451.952 40.854 448.557 40.4557 445.201L3.19641 449.628C3.63361 453.283 4.1291 456.996 4.66346 460.642L41.8061 455.299L41.7964 455.289ZM40.9026 343.726L3.68218 338.971C3.20612 342.627 2.77863 346.33 2.39001 349.986L39.7173 353.815C40.067 350.468 40.4654 347.073 40.8929 343.726L40.9026 343.726ZM39.3578 435.083C39.0372 431.727 38.7554 428.312 38.5223 424.937L1.08813 427.522C1.34073 431.196 1.65163 434.919 2.00139 438.584L39.3578 435.083ZM38.7943 363.932L1.37959 361.02C1.08812 364.675 0.845235 368.398 0.641208 372.073L38.1142 374.069C38.2988 370.694 38.5223 367.289 38.7846 363.932L38.7943 363.932ZM37.9393 414.771C37.7839 411.395 37.677 407.971 37.609 404.595L0.0874213 405.338C0.165146 409.023 0.281732 412.755 0.446897 416.43L37.9393 414.771ZM37.6964 384.225L0.184575 383.145C0.0777035 386.83 0.00969589 390.562 -1.95286e-05 394.237L37.5313 394.401C37.5507 391.025 37.609 387.601 37.7061 384.216L37.6964 384.225Z" fill="url(#paint0_linear_46_83)"/>
<path d="M879.237 344.773L877.287 345.156C877.53 346.357 877.765 347.559 878 348.76L879.959 348.395C879.724 347.185 879.49 345.975 879.237 344.773Z" fill="#C9C9C9"/>
<path d="M874.469 349.195C874.947 351.598 877.304 353.164 879.742 352.692C882.18 352.221 883.769 349.898 883.29 347.495C882.812 345.092 880.455 343.526 878.017 343.998C875.579 344.47 873.99 346.792 874.469 349.195Z" fill="#C9C9C9"/>
<path d="M873.881 349.302C873.34 346.588 875.146 343.945 877.908 343.411C880.662 342.877 883.344 344.657 883.886 347.38C884.428 350.094 882.622 352.737 879.859 353.271C877.105 353.805 874.423 352.025 873.881 349.302C874.423 352.016 873.34 346.588 873.881 349.302ZM882.712 347.611C882.297 345.529 880.247 344.167 878.143 344.577C876.03 344.986 874.649 347.006 875.064 349.08C875.48 351.162 877.529 352.524 879.633 352.114C881.746 351.705 883.127 349.685 882.712 347.611C883.127 349.694 882.297 345.529 882.712 347.611Z" fill="#C9C9C9"/>
<defs>
<linearGradient id="paint0_linear_46_83" x1="448" y1="494" x2="448" y2="2912" gradientUnits="userSpaceOnUse">
<stop stop-color="#F3F3F3"/>
<stop offset="1" stop-color="#DBDBDB" stop-opacity="0"/>
</linearGradient>
</defs>
</svg>
