<svg width="1440" height="655" viewBox="0 0 1440 655" fill="none" xmlns="http://www.w3.org/2000/svg">
<g clip-path="url(#clip0_697_7372)">
<path d="M720 566.389C967.424 566.389 1168 365.921 1168 118.631C1168 -92.5179 1021.77 -269.531 825 -316.761L616 -317C418.728 -270.13 272 -92.8754 272 118.631C272 365.921 472.576 566.389 720 566.389Z" fill="#F3F3F3"/>
<path d="M474.475 74.9652L474.304 76.3089L475.441 76.4513L475.604 75.152C475.785 74.2266 475.974 73.2833 476.173 72.34L475.053 72.1086C474.855 73.0608 474.656 74.0219 474.475 74.9563V74.9741V74.9652ZM473.78 80.5003L473.256 84.6917L474.394 84.8341L474.918 80.6427L473.78 80.5003ZM472.724 88.8831L472.2 93.0745L473.338 93.2169L473.861 89.0255L472.724 88.8831ZM471.676 97.2748L471.153 101.466L472.29 101.609L472.814 97.4172L471.676 97.2748ZM470.629 105.658L470.105 109.849L471.243 109.991L471.767 105.8L470.629 105.658ZM469.952 114.138C469.916 115.544 469.897 116.968 469.897 118.374H471.044C471.044 116.977 471.071 115.562 471.098 114.165L469.952 114.138ZM475.965 67.9617L477.085 68.2109C477.401 66.8582 477.726 65.4789 478.069 64.1174L476.958 63.8415C476.615 65.2119 476.281 66.6001 475.965 67.9617ZM469.916 122.61C469.934 124.016 469.97 125.44 470.015 126.846L471.162 126.81C471.116 125.413 471.08 123.989 471.062 122.592L469.916 122.61ZM478.033 59.748L479.143 60.0416C479.514 58.6979 479.893 57.3274 480.29 55.9837L479.189 55.6722C478.791 57.0249 478.403 58.3953 478.042 59.748H478.033ZM470.186 131.073C470.259 132.47 470.34 133.894 470.43 135.3L471.577 135.229C471.487 133.832 471.396 132.417 471.333 131.02L470.186 131.073ZM480.407 51.6054L481.5 51.9347C481.915 50.5999 482.358 49.2472 482.8 47.9213L481.708 47.5653C481.265 48.9002 480.823 50.2528 480.407 51.5965V51.6054ZM470.755 139.527C470.873 140.915 471.008 142.339 471.153 143.745L472.29 143.629C472.146 142.232 472.01 140.817 471.893 139.429L470.746 139.527H470.755ZM483.089 43.5608L484.173 43.9345C484.642 42.6175 485.121 41.2826 485.617 39.9656L484.543 39.574C484.046 40.8911 483.559 42.2348 483.089 43.5608ZM471.613 147.954C471.658 148.346 471.712 148.746 471.757 149.138C471.839 150.126 471.929 151.14 472.028 152.146L473.166 152.039C473.067 151.033 472.976 150.028 472.895 149.022C472.841 148.604 472.796 148.212 472.751 147.821L471.613 147.954ZM486.069 35.614L487.134 36.0234C487.649 34.7241 488.182 33.4071 488.723 32.1078L487.658 31.6807C487.116 32.9888 486.574 34.3148 486.06 35.614H486.069ZM472.471 156.355C472.633 157.761 472.805 159.176 472.976 160.564L474.114 160.422C473.934 159.042 473.762 157.628 473.608 156.23L472.471 156.355ZM489.328 27.774L490.385 28.219C490.945 26.9375 491.522 25.6383 492.109 24.3568L491.062 23.8941C490.475 25.1844 489.897 26.4837 489.328 27.774ZM473.563 164.764C473.771 166.162 473.997 167.577 474.222 168.947L475.351 168.76C475.125 167.39 474.9 165.984 474.692 164.595L473.554 164.756L473.563 164.764ZM492.85 20.0497L493.888 20.5303C494.493 19.2666 495.116 17.9852 495.739 16.7305L494.71 16.2321C494.078 17.4957 493.455 18.7861 492.85 20.0497ZM474.963 173.121C475.225 174.509 475.496 175.906 475.785 177.276L476.904 177.054C476.624 175.692 476.344 174.295 476.092 172.916L474.963 173.121ZM496.624 12.4412L497.644 12.9573C498.285 11.7203 498.945 10.4567 499.613 9.21083L498.601 8.6858C497.933 9.93165 497.265 11.1953 496.624 12.4412ZM476.678 181.423C476.994 182.803 477.319 184.182 477.663 185.544L478.773 185.277C478.439 183.924 478.105 182.545 477.798 181.174L476.678 181.423ZM500.642 4.95714L501.644 5.49996C502.321 4.2897 503.017 3.04387 503.73 1.81581L502.737 1.25517C502.023 2.49213 501.319 3.73798 500.642 4.95714ZM478.719 189.655C479.08 191.007 479.468 192.387 479.857 193.739L480.958 193.428C480.57 192.084 480.182 190.714 479.821 189.37L478.71 189.664L478.719 189.655ZM504.877 -2.4201L505.87 -1.85055C506.583 -3.06081 507.324 -4.27998 508.055 -5.48134L507.071 -6.06867C506.33 -4.86731 505.599 -3.63923 504.877 -2.42898V-2.4201ZM481.076 197.797C481.491 199.141 481.933 200.494 482.376 201.837L483.468 201.49C483.026 200.164 482.593 198.812 482.177 197.477L481.085 197.806L481.076 197.797ZM509.337 -9.68164L510.294 -9.05871C511.08 -10.2245 511.892 -11.3991 512.696 -12.5471L511.748 -13.1878C510.944 -12.031 510.132 -10.8563 509.337 -9.68164ZM483.748 205.842C484.218 207.168 484.705 208.503 485.193 209.829L486.267 209.437C485.78 208.12 485.292 206.785 484.832 205.468L483.748 205.842ZM514.213 -16.6495L515.143 -15.991C515.974 -17.139 516.813 -18.278 517.653 -19.3993L516.732 -20.0667C515.892 -18.9454 515.044 -17.7886 514.213 -16.6406V-16.6495ZM486.71 213.798C487.225 215.106 487.757 216.423 488.299 217.731L489.365 217.304C488.832 216.005 488.299 214.688 487.784 213.388L486.719 213.798H486.71ZM519.314 -23.4483L520.226 -22.7631C521.084 -23.8754 521.969 -24.9878 522.845 -26.0913L521.942 -26.7943C521.057 -25.6908 520.172 -24.5696 519.305 -23.4572L519.314 -23.4483ZM489.951 221.638C490.258 222.358 490.574 223.079 490.899 223.8L491.739 225.509L492.769 225.01L491.938 223.328C491.631 222.625 491.315 221.914 491.008 221.193L489.951 221.638ZM524.633 -30.0958L525.518 -29.3839C526.411 -30.4696 527.332 -31.5553 528.244 -32.6231L527.369 -33.3528C526.448 -32.2849 525.527 -31.1815 524.624 -30.0958H524.633ZM493.617 229.309C494.249 230.581 494.881 231.845 495.513 233.099L496.543 232.601C495.911 231.346 495.279 230.083 494.647 228.81L493.617 229.309ZM530.168 -36.5565L531.034 -35.8178C531.964 -36.8768 532.922 -37.9358 533.87 -38.9681L533.021 -39.7245C532.073 -38.6833 531.116 -37.6154 530.177 -36.5565H530.168ZM497.428 236.89C498.078 238.154 498.728 239.409 499.378 240.664L500.398 240.147C499.748 238.902 499.098 237.647 498.457 236.383L497.437 236.89H497.428ZM535.919 -42.848L536.759 -42.0827C537.716 -43.0972 538.709 -44.1295 539.693 -45.1439L538.863 -45.927C537.87 -44.9126 536.876 -43.8714 535.91 -42.848H535.919ZM501.364 244.41C502.042 245.674 502.728 246.928 503.396 248.139L504.407 247.596C503.739 246.394 503.062 245.14 502.385 243.876L501.373 244.401L501.364 244.41ZM541.861 -48.9527L542.673 -48.1607C543.666 -49.1485 544.687 -50.1451 545.707 -51.124L544.903 -51.9338C543.883 -50.9549 542.854 -49.9494 541.851 -48.9527H541.861ZM505.482 251.841C506.195 253.095 506.917 254.332 507.622 255.516L508.615 254.946C507.911 253.772 507.197 252.535 506.484 251.289L505.482 251.841ZM548.009 -54.8616L548.795 -54.0429C549.824 -55.004 550.881 -55.9651 551.928 -56.9083L551.152 -57.7448C550.104 -56.8016 549.048 -55.8316 548.009 -54.8616ZM509.834 259.147C510.592 260.366 511.351 261.576 512.109 262.742L513.075 262.137C512.326 260.971 511.558 259.77 510.809 258.559L509.834 259.147ZM554.348 -60.5747L555.106 -59.7293C556.172 -60.6548 557.255 -61.5892 558.33 -62.4969L557.58 -63.3512C556.497 -62.4346 555.413 -61.5002 554.339 -60.5747H554.348ZM514.457 266.284C515.251 267.458 516.073 268.633 516.886 269.781L517.825 269.131C517.012 267.992 516.208 266.827 515.414 265.652L514.457 266.284ZM560.867 -66.0832L561.598 -65.2111C562.691 -66.101 563.802 -66.9998 564.912 -67.8719L564.19 -68.7529C563.079 -67.8719 561.96 -66.9731 560.858 -66.0743L560.867 -66.0832ZM519.387 273.225C520.235 274.355 521.102 275.494 521.978 276.606L522.89 275.912C522.023 274.809 521.156 273.679 520.317 272.549L519.396 273.216L519.387 273.225ZM567.567 -71.378L568.271 -70.4881C569.391 -71.3424 570.537 -72.2056 571.666 -73.0421L570.98 -73.9498C569.842 -73.1044 568.695 -72.2412 567.567 -71.378ZM524.768 279.863C525.707 280.922 526.664 281.99 527.603 283.04L528.461 282.293C527.522 281.252 526.565 280.184 525.626 279.125L524.759 279.863H524.768ZM574.429 -76.4593L575.106 -75.5428C576.262 -76.3704 577.436 -77.1891 578.591 -77.99L577.932 -78.9155C576.768 -78.1145 575.594 -77.2869 574.438 -76.4593H574.429ZM530.484 286.199C531.441 287.241 532.425 288.291 533.382 289.323L534.222 288.558C533.256 287.534 532.29 286.484 531.332 285.443L530.484 286.199ZM581.472 -81.3093L582.113 -80.3749C583.287 -81.158 584.488 -81.9411 585.679 -82.7064L585.056 -83.6497C583.865 -82.8844 582.664 -82.0924 581.481 -81.3093H581.472ZM536.317 292.411C537.31 293.443 538.303 294.467 539.287 295.472L540.109 294.689C539.125 293.692 538.131 292.669 537.147 291.637L536.317 292.411ZM588.659 -85.9367L589.273 -84.9756C590.483 -85.7231 591.702 -86.4707 592.912 -87.1915L592.316 -88.1615C591.106 -87.4406 589.878 -86.6931 588.659 -85.9367ZM542.294 298.489C543.305 299.495 544.335 300.5 545.337 301.479L546.14 300.669C545.138 299.699 544.118 298.694 543.107 297.697L542.294 298.489ZM596.009 -90.3239L596.587 -89.345C597.815 -90.048 599.061 -90.76 600.298 -91.4363L599.738 -92.4241C598.501 -91.7388 597.246 -91.0269 596.009 -90.3239ZM548.434 304.425C549.472 305.403 550.529 306.382 551.558 307.326L552.334 306.498C551.305 305.555 550.258 304.576 549.219 303.606L548.425 304.425H548.434ZM603.494 -94.4708L604.036 -93.4741C605.282 -94.1416 606.555 -94.8001 607.819 -95.4497L607.286 -96.4553C606.022 -95.8057 604.74 -95.1382 603.494 -94.4708ZM554.727 310.191C555.784 311.134 556.867 312.087 557.933 313.003L558.691 312.149C557.626 311.232 556.551 310.289 555.495 309.346L554.727 310.182V310.191ZM611.124 -98.3774L611.638 -97.363C612.903 -97.9859 614.194 -98.5999 615.485 -99.2051L614.988 -100.228C613.688 -99.6233 612.397 -98.9915 611.124 -98.3774ZM561.183 315.771C562.276 316.687 563.386 317.595 564.479 318.485L565.21 317.613C564.118 316.732 563.016 315.815 561.923 314.908L561.183 315.771ZM618.88 -102.017L619.358 -100.985C620.65 -101.563 621.959 -102.142 623.268 -102.702L622.808 -103.735C621.498 -103.174 620.18 -102.596 618.88 -102.008V-102.017ZM567.829 321.146C568.948 322.027 570.095 322.908 571.215 323.753L571.91 322.854C570.79 322.009 569.662 321.137 568.542 320.256L567.829 321.137V321.146ZM626.762 -105.399L627.205 -104.358C628.514 -104.891 629.85 -105.425 631.169 -105.942L630.744 -106.992C629.417 -106.475 628.081 -105.942 626.762 -105.399ZM574.637 326.307C575.783 327.144 576.948 327.98 578.113 328.799L578.781 327.882C577.625 327.072 576.461 326.236 575.323 325.399L574.637 326.307ZM634.753 -108.513L635.16 -107.454C636.487 -107.944 637.841 -108.433 639.178 -108.905L638.789 -109.973C637.444 -109.501 636.09 -109.012 634.753 -108.513ZM581.625 331.228C582.799 332.029 584 332.821 585.183 333.595L585.815 332.652C584.632 331.878 583.44 331.086 582.275 330.294L581.625 331.228ZM642.853 -111.361L643.223 -110.293C644.559 -110.738 645.932 -111.183 647.286 -111.601L646.943 -112.678C645.579 -112.251 644.198 -111.806 642.853 -111.361ZM588.795 335.9C589.995 336.657 591.223 337.404 592.442 338.134L593.038 337.173C591.828 336.443 590.609 335.695 589.408 334.948L588.795 335.9ZM651.042 -113.924L651.367 -112.838C652.731 -113.239 654.112 -113.63 655.475 -114.013L655.168 -115.099C653.796 -114.725 652.406 -114.324 651.033 -113.924H651.042ZM596.135 340.305C597.372 341.017 598.627 341.72 599.864 342.414L600.424 341.426C599.187 340.741 597.941 340.038 596.713 339.326L596.135 340.305ZM659.322 -116.202L659.611 -115.107C660.983 -115.463 662.374 -115.802 663.764 -116.131L663.493 -117.225C662.103 -116.896 660.694 -116.549 659.322 -116.193V-116.202ZM603.63 344.461C604.885 345.128 606.158 345.796 607.431 346.445L607.955 345.44C606.69 344.79 605.417 344.132 604.171 343.464L603.63 344.461ZM667.683 -118.195L667.936 -117.092C669.317 -117.395 670.726 -117.688 672.125 -117.973L671.9 -119.076C670.5 -118.792 669.082 -118.498 667.692 -118.187L667.683 -118.195ZM611.259 348.359C612.541 348.991 613.842 349.613 615.124 350.21L615.62 349.186C614.347 348.59 613.047 347.967 611.774 347.344L611.259 348.359ZM676.116 -119.886L676.324 -118.774C677.723 -119.032 679.141 -119.281 680.541 -119.504L680.351 -120.616C678.951 -120.385 677.525 -120.135 676.116 -119.877V-119.886ZM619.024 351.998C620.325 352.577 621.643 353.164 622.952 353.725L623.413 352.692C622.112 352.132 620.794 351.562 619.503 350.975L619.024 352.007V351.998ZM684.604 -121.283L684.775 -120.162C686.184 -120.367 687.611 -120.563 689.019 -120.741L688.875 -121.862C687.466 -121.684 686.03 -121.488 684.613 -121.274L684.604 -121.283ZM626.907 355.38C628.225 355.914 629.562 356.457 630.889 356.973L631.313 355.923C629.995 355.407 628.659 354.873 627.349 354.339L626.907 355.38ZM693.136 -122.387L693.263 -121.266C694.671 -121.417 696.107 -121.568 697.525 -121.693L697.416 -122.814C695.999 -122.68 694.554 -122.538 693.136 -122.378V-122.387ZM634.907 358.486C636.243 358.975 637.598 359.465 638.943 359.936L639.331 358.868C637.995 358.397 636.64 357.916 635.313 357.418L634.907 358.477V358.486ZM643.006 361.324C644.351 361.769 645.733 362.214 647.087 362.641L647.43 361.565C646.076 361.138 644.704 360.702 643.367 360.257L643.006 361.324ZM651.205 363.887C652.568 364.288 653.959 364.688 655.331 365.062L655.638 363.976C654.266 363.603 652.884 363.202 651.53 362.802L651.205 363.887ZM659.484 366.174C660.866 366.53 662.265 366.877 663.656 367.207L663.927 366.112C662.545 365.783 661.155 365.436 659.782 365.08L659.493 366.174H659.484ZM667.836 368.177C669.227 368.488 670.645 368.782 672.035 369.067L672.27 367.963C670.879 367.678 669.471 367.385 668.089 367.073L667.836 368.177ZM676.252 369.894C677.651 370.152 679.078 370.41 680.477 370.642L680.667 369.529C679.267 369.298 677.85 369.04 676.459 368.782L676.243 369.894H676.252ZM684.721 371.318C686.13 371.532 687.556 371.736 688.974 371.923L689.127 370.802C687.719 370.615 686.292 370.41 684.893 370.197L684.721 371.318ZM693.371 371.336L693.236 372.457C694.644 372.617 696.08 372.777 697.507 372.92L697.624 371.798C696.206 371.656 694.78 371.505 693.371 371.345V371.336ZM701.886 372.172L701.795 373.302C703.222 373.418 704.667 373.525 706.084 373.614L706.157 372.484C704.748 372.395 703.312 372.288 701.895 372.172H701.886ZM710.418 372.724L710.364 373.854C711.782 373.925 713.226 373.979 714.653 374.023L714.689 372.893C713.272 372.849 711.827 372.795 710.418 372.724ZM718.969 372.982L718.951 374.112C720.378 374.13 721.822 374.139 723.249 374.13V373C721.822 373 720.387 373 718.969 372.982ZM727.52 372.946L727.547 374.077C728.964 374.05 730.409 374.005 731.836 373.952L731.791 372.822C730.373 372.875 728.928 372.92 727.52 372.946ZM736.061 372.617L736.125 373.747C737.551 373.667 738.987 373.578 740.413 373.471L740.332 372.341C738.915 372.448 737.479 372.537 736.07 372.617H736.061ZM744.585 372.003L744.693 373.124C746.111 373 747.547 372.857 748.964 372.706L748.838 371.585C747.429 371.736 745.994 371.879 744.585 372.003ZM753.091 371.095L753.235 372.217C754.644 372.039 756.079 371.852 757.488 371.647L757.325 370.526C755.917 370.722 754.49 370.918 753.091 371.087V371.095ZM761.551 369.894L761.732 371.007C763.131 370.784 764.558 370.544 765.966 370.295L765.768 369.182C764.368 369.431 762.951 369.663 761.551 369.885V369.894ZM769.957 368.417L770.183 369.529C771.573 369.262 772.991 368.969 774.391 368.675L774.147 367.571C772.756 367.865 771.348 368.15 769.957 368.417ZM778.318 366.646L778.58 367.749C779.971 367.429 781.37 367.1 782.752 366.753L782.472 365.658C781.099 365.996 779.7 366.335 778.318 366.646ZM786.607 364.599L786.905 365.694C788.278 365.329 789.668 364.946 791.04 364.564L790.724 363.478C789.361 363.861 787.971 364.243 786.607 364.608V364.599ZM794.815 362.277L795.149 363.353C796.512 362.944 797.885 362.517 799.239 362.081L798.887 361.004C797.542 361.431 796.169 361.858 794.815 362.268V362.277ZM802.941 359.678L803.311 360.746C804.657 360.292 806.02 359.821 807.356 359.34L806.968 358.281C805.632 358.762 804.277 359.224 802.941 359.678ZM810.968 356.813L811.374 357.872C812.702 357.373 814.047 356.857 815.365 356.332L814.941 355.282C813.623 355.798 812.286 356.314 810.968 356.813ZM818.896 353.68L819.338 354.721C820.647 354.179 821.975 353.618 823.275 353.057L822.814 352.025C821.514 352.586 820.196 353.146 818.896 353.689V353.68ZM826.715 350.299L827.194 351.322C828.485 350.735 829.794 350.13 831.085 349.524L830.589 348.501C829.306 349.106 828.006 349.711 826.715 350.29V350.299ZM834.426 346.65L834.941 347.665C836.214 347.033 837.505 346.383 838.769 345.733L838.236 344.728C836.981 345.378 835.699 346.018 834.426 346.65ZM842.011 342.743L842.561 343.74C843.807 343.073 845.071 342.379 846.317 341.693L845.758 340.706C844.521 341.4 843.257 342.085 842.011 342.743ZM849.469 338.605L850.047 339.584C851.275 338.872 852.512 338.143 853.739 337.413L853.144 336.452C851.925 337.182 850.697 337.911 849.469 338.614V338.605ZM856.773 334.218L857.387 335.17C858.597 334.414 859.825 333.64 861.008 332.866L860.376 331.922C859.193 332.688 857.974 333.462 856.764 334.209L856.773 334.218ZM863.952 329.573L864.593 330.507C865.775 329.715 866.967 328.897 868.132 328.087L867.473 327.161C866.308 327.971 865.125 328.781 863.943 329.573H863.952ZM870.958 324.696L871.635 325.604C872.791 324.776 873.956 323.922 875.094 323.068L874.398 322.169C873.261 323.014 872.105 323.869 870.958 324.696ZM877.793 319.588L878.498 320.478C879.617 319.606 880.755 318.716 881.866 317.826L881.143 316.954C880.042 317.835 878.913 318.725 877.793 319.597V319.588ZM884.439 314.258L885.179 315.121C886.272 314.213 887.373 313.288 888.448 312.362L887.689 311.508C886.615 312.434 885.522 313.359 884.439 314.258ZM890.904 308.705L891.671 309.541C892.728 308.598 893.793 307.628 894.841 306.667L894.055 305.839C893.017 306.801 891.951 307.762 890.904 308.696V308.705ZM897.152 302.93L897.947 303.739C898.967 302.76 899.996 301.764 901.008 300.758L900.195 299.957C899.193 300.954 898.163 301.951 897.143 302.921L897.152 302.93ZM903.202 296.949L904.032 297.733C905.026 296.718 906.019 295.686 906.985 294.653L906.145 293.888C905.179 294.912 904.186 295.944 903.202 296.958V296.949ZM909.035 290.765L909.883 291.521C910.831 290.48 911.788 289.412 912.728 288.344L911.861 287.606C910.931 288.665 909.974 289.732 909.026 290.774L909.035 290.765ZM914.642 284.393L915.518 285.114C916.43 284.037 917.35 282.934 918.244 281.839L917.351 281.127C916.457 282.222 915.545 283.316 914.633 284.384L914.642 284.393ZM920.023 277.826L920.926 278.52C921.802 277.416 922.678 276.286 923.536 275.156L922.615 274.48C921.757 275.601 920.881 276.731 920.014 277.826H920.023ZM925.161 271.089L926.091 271.757C926.921 270.617 927.761 269.461 928.583 268.304L927.644 267.654C926.831 268.802 925.992 269.959 925.161 271.089ZM930.064 264.175L931.012 264.806C931.806 263.641 932.601 262.457 933.377 261.274L932.411 260.66C931.635 261.834 930.84 263.018 930.055 264.175H930.064ZM934.723 257.109L935.698 257.705C936.456 256.513 937.206 255.293 937.946 254.092L936.962 253.514C936.231 254.706 935.481 255.916 934.723 257.109ZM939.129 249.883L940.122 250.452C940.836 249.233 941.549 247.996 942.244 246.768L941.242 246.217C940.556 247.436 939.842 248.673 939.129 249.883ZM943.283 242.523L944.294 243.057C944.962 241.82 945.63 240.566 946.28 239.311L945.26 238.795C944.61 240.041 943.942 241.295 943.283 242.523ZM947.183 235.022L948.212 235.52C948.835 234.265 949.468 232.984 950.072 231.711L949.034 231.231C948.429 232.494 947.806 233.776 947.183 235.022ZM950.822 227.404L951.869 227.867C952.456 226.585 953.034 225.286 953.603 223.996L952.547 223.551C951.987 224.832 951.409 226.132 950.822 227.404ZM954.199 219.671L955.255 220.098C955.797 218.799 956.339 217.473 956.853 216.174L955.788 215.764C955.273 217.064 954.741 218.372 954.199 219.671ZM957.323 211.831L958.397 212.223C958.894 210.905 959.391 209.571 959.86 208.254L958.777 207.88C958.298 209.197 957.811 210.532 957.314 211.831H957.323ZM960.176 203.893L961.26 204.249C961.711 202.923 962.163 201.571 962.596 200.227L961.504 199.88C961.07 201.215 960.628 202.567 960.176 203.884V203.893Z" fill="#C9C9C9"/>
<path d="M962.822 225.688L963.924 226.017C964.132 225.341 964.33 224.665 964.538 223.98L963.436 223.659C963.238 224.335 963.03 225.012 962.831 225.688H962.822Z" fill="#E8E8E8"/>
<path d="M965.304 219.209L960.735 224.94L963.869 224.157L966.108 226.453L965.304 219.209Z" fill="#E8E8E8"/>
<path d="M375.235 67.4544L410.747 73.657L410.918 72.7226C424.525 -2.91848 465.897 -70.6217 527.405 -117.92C551.72 -136.625 578.483 -151.647 606.934 -162.575L607.837 -162.922L594.736 -196.043L593.833 -195.696C562.113 -183.505 532.298 -166.766 505.22 -145.942C470.403 -119.165 441.428 -86.7644 419.09 -49.6469C397.519 -13.793 382.819 25.2912 375.406 66.52L375.235 67.4544ZM409.185 71.4589L377.474 65.9149C384.905 25.2645 399.46 -13.2857 420.751 -48.6769C442.963 -85.5986 471.784 -117.822 506.412 -144.447C533.093 -164.959 562.438 -181.494 593.643 -193.578L605.345 -164.007C577.056 -153.035 550.438 -138.04 526.231 -119.424C464.597 -72.0277 423.063 -4.27111 409.203 71.45L409.185 71.4589ZM371 153.845L371.072 154.798C376.517 222.376 401.844 286.466 444.335 340.136C460.543 360.604 479.017 379.247 499.242 395.532C518.926 411.381 540.425 425.13 563.142 436.396L564 436.823L580.217 405.072L579.359 404.644C537.617 383.937 501.752 354.873 472.769 318.262C434.638 270.101 411.902 212.596 407.027 151.977L406.954 151.024L371 153.836V153.845ZM563.151 434.269C540.876 423.145 519.793 409.619 500.47 394.055C480.353 377.859 461.979 359.322 445.861 338.961C403.803 285.835 378.648 222.447 373.077 155.59L405.185 153.08C410.259 213.726 433.085 271.231 471.252 319.437C500.208 356.021 536 385.111 577.634 405.917L563.151 434.269ZM679.944 -216.858L684.062 -181.547L685.019 -181.654C795.266 -194.148 901.784 -150.196 969.964 -64.081L970.56 -63.3334L998.993 -85.1981L998.397 -85.9457C979.246 -110.142 957.025 -131.668 932.357 -149.947C908.429 -167.674 882.208 -182.321 854.426 -193.498C799.681 -215.514 739.673 -223.63 680.902 -216.974L679.944 -216.867V-216.858ZM685.768 -183.647L682.093 -215.185C740.233 -221.61 799.555 -213.512 853.712 -191.736C881.342 -180.63 907.409 -166.054 931.21 -148.434C955.49 -130.449 977.386 -109.297 996.293 -85.5363L970.903 -66.012C902.488 -151.914 796.033 -195.839 685.777 -183.665L685.768 -183.647ZM646.816 465.531L647.764 465.727C749.759 487.209 855.374 463.297 937.531 400.124C951.391 389.463 964.51 377.734 976.528 365.258L977.196 364.564L951.038 340.091L950.37 340.786C939.58 351.989 927.797 362.517 915.346 372.101C841.622 428.787 746.842 450.252 655.304 430.968L654.365 430.772L646.825 465.531H646.816ZM974.46 364.644C962.695 376.791 949.874 388.226 936.339 398.629C854.895 461.26 750.255 485.091 649.11 464.072L655.836 433.032C747.646 452.085 842.606 430.451 916.52 373.605C928.79 364.163 940.42 353.805 951.093 342.788L974.451 364.644H974.46ZM994.334 -28.5563L994.812 -27.7288C1049.31 65.4788 1050.46 182.144 997.819 276.731L997.358 277.568L1028.98 294.662L1029.44 293.826C1058.09 242.345 1073.07 183.986 1072.75 125.048C1072.6 95.5484 1068.62 66.1819 1060.94 37.7675C1053.08 8.66795 1041.34 -19.337 1026.06 -45.4733L1025.58 -46.3009L994.334 -28.5563ZM1036.02 165.832C1044.32 99.5796 1031.26 31.2268 996.97 -27.8622L1024.88 -43.7113C1039.84 -17.9577 1051.34 9.61125 1059.09 38.2481C1066.73 66.5022 1070.68 95.7086 1070.84 125.048C1071.15 183.345 1056.41 241.073 1028.22 292.073L999.986 276.802C1019.21 242.016 1031.22 204.267 1036.03 165.823L1036.02 165.832Z" fill="#E8E8E8"/>
<path d="M1169 122.339L1169 122.118L1131.47 122.118L1131.47 122.339C1131.47 125.638 1131.43 128.994 1131.34 132.312L1168.85 133.209C1168.94 129.592 1168.99 125.937 1168.99 122.339L1169 122.339ZM1168.85 111.016C1168.77 107.342 1168.62 103.609 1168.44 99.9246L1130.95 101.767C1131.12 105.142 1131.25 108.566 1131.33 111.942L1168.84 111.016L1168.85 111.016ZM1168.46 144.301L1130.97 142.488C1130.81 145.873 1130.59 149.287 1130.34 152.653L1167.77 155.393C1168.04 151.728 1168.27 148.005 1168.45 144.311L1168.46 144.301ZM1167.75 88.8425C1167.47 85.1678 1167.14 81.4448 1166.78 77.7797L1129.43 81.4641C1129.77 84.8206 1130.06 88.2349 1130.31 91.601L1167.74 88.8425L1167.75 88.8425ZM1166.81 166.455L1129.47 162.8C1129.14 166.166 1128.75 169.561 1128.33 172.917L1165.57 177.499C1166.03 173.843 1166.44 170.13 1166.8 166.465L1166.81 166.455ZM1165.53 66.7363C1165.07 63.0808 1164.56 59.3772 1164.01 55.7314L1126.89 61.258C1127.4 64.5951 1127.86 67.9901 1128.29 71.3369L1165.53 66.7267L1165.53 66.7363ZM1164.06 188.494L1126.95 182.996C1126.45 186.334 1125.9 189.709 1125.31 193.037L1162.28 199.46C1162.92 195.824 1163.52 192.14 1164.06 188.494ZM1162.22 44.7651C1161.57 41.1193 1160.87 37.435 1160.14 33.8181L1123.36 41.1869C1124.03 44.4951 1124.67 47.8708 1125.26 51.2176L1162.22 44.7651ZM1160.21 210.378L1123.41 203.039C1122.74 206.356 1122.03 209.703 1121.27 212.983L1157.87 221.239C1158.69 217.651 1159.48 213.995 1160.21 210.378ZM1157.78 22.929C1156.95 19.3314 1156.07 15.6857 1155.15 12.0977L1118.78 21.299C1119.63 24.5879 1120.43 27.9154 1121.19 31.214L1157.78 22.929ZM1155.24 232.041L1118.87 222.878C1118.03 226.148 1117.14 229.456 1116.23 232.706L1152.36 242.785C1153.36 239.236 1154.33 235.629 1155.25 232.051L1155.24 232.041ZM1152.23 1.34359C1151.22 -2.1961 1150.15 -5.79366 1149.05 -9.33335L1113.2 1.67153C1114.21 4.91223 1115.2 8.2108 1116.12 11.4515L1152.24 1.34359L1152.23 1.34359ZM1149.19 253.424L1113.33 242.448C1112.33 245.669 1111.27 248.929 1110.19 252.131L1145.76 263.995C1146.95 260.493 1148.1 256.934 1149.19 253.414L1149.19 253.424ZM1145.6 -19.9331C1144.41 -23.4439 1143.17 -26.974 1141.88 -30.4365L1106.64 -17.6376C1107.8 -14.4644 1108.95 -11.2333 1110.04 -8.02158L1145.6 -19.9235L1145.6 -19.9331ZM1142.06 274.488L1106.8 261.738C1105.64 264.901 1104.42 268.103 1103.18 271.248L1138.1 284.876C1139.46 281.442 1140.8 277.941 1142.07 274.479L1142.06 274.488ZM1137.9 -40.8434C1136.54 -44.277 1135.11 -47.7395 1133.65 -51.1441L1099.11 -36.6092C1100.44 -33.4939 1101.75 -30.3207 1102.99 -27.1765L1137.9 -40.8434ZM1133.89 295.138L1099.32 280.642C1098 283.738 1096.63 286.863 1095.23 289.939L1129.43 305.285C1130.95 301.938 1132.46 298.523 1133.9 295.138L1133.89 295.138ZM1129.16 -61.3292C1127.62 -64.6953 1126.02 -68.0807 1124.4 -71.3985L1090.62 -55.1564C1092.11 -52.1183 1093.58 -49.0126 1094.99 -45.9358L1129.16 -61.3292ZM1124.71 315.315L1090.91 299.131C1089.44 302.16 1087.9 305.207 1086.35 308.207L1119.73 325.23C1121.43 321.951 1123.1 318.614 1124.71 315.315ZM1119.38 -81.3521C1117.68 -84.6314 1115.9 -87.9299 1114.12 -91.1706L1081.21 -73.2696C1082.85 -70.3086 1084.46 -67.2801 1086.03 -64.2806L1119.38 -81.3617L1119.38 -81.3521ZM1114.51 335.02L1081.56 317.177C1079.94 320.128 1078.25 323.108 1076.55 326.021L1109.03 344.674C1110.88 341.492 1112.73 338.241 1114.5 335.01L1114.51 335.02ZM1108.62 -100.854C1106.75 -104.047 1104.82 -107.258 1102.87 -110.393L1070.9 -90.8813C1072.68 -88.0071 1074.46 -85.0654 1076.17 -82.1333L1108.62 -100.854ZM1103.32 354.213L1071.32 334.759C1069.54 337.643 1067.71 340.537 1065.87 343.353L1097.38 363.598C1099.39 360.521 1101.39 357.358 1103.32 354.213ZM1096.89 -119.797C1094.87 -122.893 1092.77 -125.998 1090.67 -129.046L1059.73 -107.972C1061.65 -105.185 1063.58 -102.339 1065.42 -99.5039L1096.89 -119.806L1096.89 -119.797ZM1091.19 372.818L1060.2 351.802C1058.28 354.589 1056.3 357.387 1054.32 360.126L1084.77 381.894C1086.93 378.914 1089.09 375.857 1091.18 372.818L1091.19 372.818ZM1084.22 -138.122C1082.06 -141.102 1079.81 -144.102 1077.55 -147.044L1047.69 -124.465C1049.76 -121.764 1051.82 -119.016 1053.81 -116.286L1084.22 -138.122ZM1078.13 390.826L1048.24 368.305C1046.18 370.996 1044.06 373.696 1041.94 376.329L1071.27 399.573C1073.58 396.699 1075.89 393.758 1078.13 390.826ZM1070.66 -155.792C1068.33 -158.676 1065.94 -161.559 1063.55 -164.376L1034.87 -140.35C1037.05 -137.775 1039.25 -135.132 1041.39 -132.49L1070.66 -155.801L1070.66 -155.792ZM1064.19 408.157L1035.45 384.199C1033.26 386.784 1031.02 389.379 1028.77 391.906L1056.89 416.568C1059.35 413.8 1061.81 410.974 1064.19 408.157ZM1056.22 -172.776C1053.75 -175.535 1051.23 -178.293 1048.69 -180.994L1021.25 -155.589C1023.57 -153.12 1025.89 -150.583 1028.14 -148.056L1056.21 -172.776L1056.22 -172.776ZM1049.38 424.795L1021.89 399.448C1019.56 401.927 1017.18 404.415 1014.81 406.826L1041.68 432.839C1044.26 430.206 1046.86 427.505 1049.38 424.795ZM1040.97 -189.019C1038.36 -191.652 1035.7 -194.294 1033.04 -196.85L1006.91 -170.124C1009.34 -167.771 1011.79 -165.359 1014.17 -162.939L1040.98 -189.019L1040.97 -189.019ZM1033.77 440.69L1007.57 414.022C1005.13 416.375 1002.63 418.738 1000.13 421.033L1025.66 448.348C1028.38 445.84 1031.11 443.265 1033.76 440.69L1033.77 440.69ZM1024.92 -204.489C1022.19 -206.997 1019.39 -209.495 1016.61 -211.925L991.846 -183.936C994.401 -181.708 996.956 -179.422 999.463 -177.126L1024.93 -204.489L1024.92 -204.489ZM1017.37 455.794L992.536 427.862C989.99 430.1 987.367 432.328 984.763 434.507L1008.9 463.037C1011.74 460.665 1014.6 458.224 1017.38 455.794L1017.37 455.794ZM1008.11 -219.149C1005.26 -221.512 1002.35 -223.866 999.444 -226.161L976.097 -196.995C978.759 -194.892 981.431 -192.732 984.045 -190.562L1008.11 -219.149ZM1000.22 470.078L976.816 440.96C974.144 443.072 971.414 445.184 968.713 447.21L991.38 476.897C994.324 474.679 997.297 472.383 1000.21 470.078L1000.22 470.078ZM990.603 -232.951C987.63 -235.179 984.598 -237.388 981.596 -239.529L959.746 -209.244C962.505 -207.286 965.284 -205.261 968.004 -203.216L990.612 -232.951L990.603 -232.951ZM982.383 483.504L960.465 453.267C957.706 455.244 954.869 457.212 952.061 459.112L973.212 489.879C976.282 487.796 979.371 485.655 982.383 483.504ZM972.425 -245.875C969.355 -247.949 966.216 -250.003 963.098 -252L942.792 -220.673C945.649 -218.85 948.524 -216.96 951.342 -215.06L972.425 -245.875ZM963.885 496.042L943.521 464.754C940.655 466.596 937.721 468.419 934.825 470.184L954.402 501.964C957.56 500.045 960.756 498.058 963.885 496.042ZM944.764 507.645L925.994 475.383C923.04 477.08 920.029 478.758 917.036 480.369L934.991 513.085C938.255 511.32 941.539 509.487 944.764 507.635L944.764 507.645ZM925.081 518.293L907.962 485.143C904.921 486.687 901.831 488.22 898.761 489.677L915.035 523.241C918.377 521.64 921.758 519.971 925.081 518.293ZM904.863 527.948L889.444 493.988C886.335 495.377 883.168 496.746 880.02 498.058L894.574 532.394C898.003 530.957 901.462 529.462 904.863 527.948ZM884.178 536.58L870.508 501.887C867.322 503.122 864.086 504.337 860.89 505.485L873.675 540.505C877.173 539.251 880.7 537.93 884.178 536.58ZM863.066 544.18L851.174 508.851C847.939 509.921 844.645 510.973 841.381 511.966L852.369 547.585C855.935 546.504 859.539 545.357 863.066 544.18ZM841.624 550.7L831.539 514.811C828.265 515.718 824.932 516.596 821.629 517.425L830.801 553.545C834.405 552.639 838.048 551.684 841.614 550.69L841.624 550.7ZM819.919 556.13L811.671 519.788C808.338 520.531 804.967 521.244 801.644 521.9L808.979 558.435C812.613 557.722 816.295 556.94 819.919 556.13ZM797.981 560.47L791.569 523.762C788.217 524.34 784.817 524.881 781.455 525.372L786.935 562.226C790.607 561.686 794.328 561.097 797.981 560.47ZM775.84 563.711L771.283 526.732C767.912 527.137 764.492 527.514 761.091 527.842L764.715 564.926C768.417 564.569 772.157 564.164 775.84 563.721L775.84 563.711ZM753.572 565.852L750.88 528.69C747.48 528.931 744.041 529.134 740.64 529.298L742.408 566.508C746.11 566.334 749.87 566.113 753.572 565.852ZM731.235 566.894L730.39 529.645C727.281 529.713 724.114 529.751 720.995 529.751L720.13 529.751L720.062 567L720.995 567C724.405 567 727.845 566.961 731.235 566.884L731.235 566.894ZM709.881 529.607C706.48 529.52 703.031 529.385 699.631 529.211L697.717 566.421C701.428 566.614 705.188 566.759 708.89 566.855L709.89 529.616L709.881 529.607ZM689.39 528.565C686 528.304 682.57 528.005 679.179 527.668L675.4 564.733C679.102 565.1 682.842 565.438 686.544 565.717L689.39 528.575L689.39 528.565ZM668.997 526.52C665.616 526.096 662.196 525.623 658.845 525.122L653.21 561.956C656.872 562.505 660.603 563.026 664.285 563.489L668.988 526.53L668.997 526.52ZM648.731 523.463C645.379 522.874 641.998 522.228 638.665 521.563L631.175 558.069C634.808 558.802 638.51 559.506 642.163 560.152L648.721 523.472L648.731 523.463ZM628.649 519.412C625.336 518.66 621.984 517.849 618.69 517.01L609.363 553.092C612.958 554.008 616.621 554.896 620.235 555.715L628.639 519.412L628.649 519.412ZM608.79 514.348C605.535 513.432 602.222 512.458 598.967 511.455L587.824 547.035C591.38 548.134 594.994 549.195 598.55 550.199L608.78 514.358L608.79 514.348ZM589.223 508.311C585.997 507.221 582.742 506.083 579.556 504.925L566.624 539.898C570.102 541.161 573.658 542.405 577.175 543.592L589.213 508.311L589.223 508.311ZM569.986 501.299C566.838 500.064 563.661 498.772 560.542 497.45L545.862 531.738C549.272 533.175 552.741 534.593 556.18 535.943L569.996 501.308L569.986 501.299ZM551.186 493.371C548.097 491.972 544.988 490.525 541.937 489.05L525.547 522.566C528.879 524.167 532.27 525.758 535.641 527.282L551.186 493.371ZM532.804 484.507C529.802 482.964 526.761 481.363 523.779 479.733L505.717 512.39C508.972 514.165 512.285 515.92 515.569 517.599L532.795 484.507L532.804 484.507ZM514.879 474.737C511.945 473.039 508.982 471.284 506.096 469.519L486.422 501.241C489.57 503.17 492.796 505.079 496.002 506.931L514.879 474.737ZM497.449 464.088C494.593 462.246 491.727 460.346 488.939 458.437L467.691 489.146C470.741 491.22 473.86 493.293 476.979 495.309L497.449 464.088ZM480.573 452.582C477.824 450.605 475.055 448.56 472.354 446.515L449.6 476.145C452.544 478.373 455.565 480.601 458.568 482.761L480.573 452.582ZM464.29 440.256C461.628 438.134 458.966 435.954 456.382 433.794L432.17 462.266C434.998 464.629 437.893 467.001 440.798 469.316L464.29 440.266L464.29 440.256ZM448.629 427.139C446.083 424.891 443.528 422.586 441.05 420.291L415.45 447.528C418.16 450.036 420.939 452.553 423.718 455.003L448.629 427.139ZM433.637 413.25C431.209 410.887 428.77 408.457 426.409 406.036L399.477 431.981C402.062 434.623 404.714 437.266 407.366 439.851L433.637 413.25ZM419.356 398.648C417.053 396.169 414.741 393.623 412.496 391.086L384.302 415.671C386.75 418.439 389.276 421.217 391.792 423.927L419.365 398.648L419.356 398.648ZM405.822 383.351C403.636 380.756 401.459 378.094 399.341 375.452L369.952 398.619C372.254 401.503 374.635 404.396 377.015 407.232L405.812 383.351L405.822 383.351ZM401.343 -133.396L372.138 -156.785C369.806 -153.911 367.474 -150.979 365.22 -148.056L395.008 -125.391C397.078 -128.072 399.205 -130.763 401.343 -133.396ZM393.065 367.398C391.015 364.697 388.965 361.929 386.983 359.19L356.467 380.872C358.623 383.862 360.858 386.881 363.093 389.832L393.055 367.398L393.065 367.398ZM388.868 -117.241L358.526 -139.164C356.34 -136.184 354.164 -133.136 352.056 -130.107L382.941 -108.946C384.875 -111.724 386.867 -114.521 388.868 -117.25L388.868 -117.241ZM381.115 350.828C379.201 348.031 377.297 345.176 375.461 342.331L343.895 362.479C345.906 365.585 347.985 368.71 350.074 371.758L381.125 350.828L381.115 350.828ZM377.229 -100.488L345.828 -120.877C343.797 -117.791 341.777 -114.637 339.824 -111.512L371.73 -91.9036C373.517 -94.7682 375.373 -97.6616 377.229 -100.488ZM370.02 333.689C368.252 330.795 366.493 327.844 364.793 324.912L332.255 343.469C334.101 346.671 336.025 349.892 337.958 353.046L370.02 333.689ZM366.435 -83.1942L334.043 -102.002C332.168 -98.819 330.302 -95.5686 328.515 -92.3472L361.373 -74.3499C363.015 -77.3012 364.715 -80.2718 366.435 -83.1942ZM359.789 316.01C358.167 313.039 356.564 310.001 355.009 306.982L321.568 323.89C323.259 327.179 325.017 330.496 326.785 333.747L359.789 316.01ZM356.535 -65.3801L323.239 -82.5577C321.529 -79.288 319.839 -75.9509 318.207 -72.6426L351.929 -56.2946C353.426 -59.3327 354.97 -62.3805 356.544 -65.3801L356.535 -65.3801ZM350.462 297.839C348.986 294.781 347.538 291.666 346.149 288.58L311.891 303.799C313.407 307.165 315 310.57 316.604 313.907L350.462 297.839ZM347.548 -47.1029L313.427 -62.6023C311.882 -59.2459 310.356 -55.8315 308.899 -52.4462L343.409 -37.7955C344.74 -40.8915 346.139 -44.0261 347.557 -47.0932L347.548 -47.1029ZM342.068 279.214C340.756 276.089 339.464 272.907 338.23 269.753L303.254 283.246C304.605 286.689 306.014 290.171 307.451 293.576L342.078 279.214L342.068 279.214ZM339.493 -28.411L304.624 -42.1936C303.254 -38.7697 301.904 -35.2781 300.621 -31.8253L335.821 -18.9204C336.997 -22.084 338.23 -25.2764 339.493 -28.411ZM334.626 260.195C333.47 257.012 332.343 253.771 331.264 250.55L295.647 262.268C296.823 265.789 298.056 269.328 299.31 272.81L334.626 260.204L334.626 260.195ZM332.391 -9.33332L296.871 -21.3605C295.676 -17.8691 294.501 -14.3197 293.393 -10.809L329.205 0.321287C330.215 -2.89048 331.293 -6.14078 332.391 -9.3429L332.391 -9.33332ZM328.155 240.818C327.174 237.596 326.212 234.308 325.299 231.048L289.128 240.972C290.119 244.531 291.168 248.119 292.247 251.639L328.155 240.818ZM326.28 10.0627L290.197 -0.170655C289.176 3.36904 288.185 6.9763 287.262 10.5353L323.589 19.8716C324.444 16.6116 325.348 13.313 326.28 10.0627ZM322.695 221.21C321.869 217.94 321.082 214.603 320.344 211.314L283.716 219.416C284.523 223.013 285.387 226.649 286.291 230.228L322.705 221.21L322.695 221.21ZM321.15 29.7383L284.591 21.3087C283.755 24.8966 282.949 28.5423 282.201 32.1495L318.955 39.663C319.635 36.3645 320.373 33.0176 321.141 29.7383L321.15 29.7383ZM318.245 201.351C317.585 198.043 316.963 194.667 316.39 191.339L279.393 197.609C280.015 201.245 280.695 204.919 281.414 208.536L318.236 201.351L318.245 201.351ZM317.021 49.6359L280.083 43.0388C279.422 46.6653 278.81 50.3496 278.246 53.9857L315.34 59.657C315.855 56.3294 316.429 52.9537 317.021 49.6359ZM314.796 181.289C314.311 177.952 313.854 174.557 313.456 171.201L276.196 175.628C276.634 179.283 277.129 182.996 277.663 186.642L314.806 181.299L314.796 181.289ZM313.903 69.7263L276.682 64.9713C276.206 68.6267 275.779 72.3304 275.39 75.9858L312.717 79.8149C313.067 76.4681 313.465 73.073 313.893 69.7263L313.903 69.7263ZM312.358 161.083C312.037 157.727 311.755 154.312 311.522 150.937L274.088 153.522C274.341 157.196 274.652 160.919 275.001 164.584L312.358 161.083ZM311.794 89.9325L274.38 87.0197C274.088 90.6751 273.845 94.398 273.641 98.0728L311.114 100.069C311.299 96.6935 311.522 93.2889 311.785 89.9325L311.794 89.9325ZM310.939 140.771C310.784 137.395 310.677 133.971 310.609 130.595L273.087 131.338C273.165 135.023 273.282 138.755 273.447 142.43L310.939 140.771ZM310.696 110.225L273.185 109.145C273.078 112.83 273.01 116.562 273 120.237L310.531 120.401C310.551 117.025 310.609 113.601 310.706 110.216L310.696 110.225Z" fill="#DBDBDB"/>
<path d="M1169 122.339L1169 122.118L1131.47 122.118L1131.47 122.339C1131.47 125.638 1131.43 128.994 1131.34 132.312L1168.85 133.209C1168.94 129.592 1168.99 125.937 1168.99 122.339L1169 122.339ZM1168.85 111.016C1168.77 107.342 1168.62 103.609 1168.44 99.9246L1130.95 101.767C1131.12 105.142 1131.25 108.566 1131.33 111.942L1168.84 111.016L1168.85 111.016ZM1168.46 144.301L1130.97 142.488C1130.81 145.873 1130.59 149.287 1130.34 152.653L1167.77 155.393C1168.04 151.728 1168.27 148.005 1168.45 144.311L1168.46 144.301ZM1167.75 88.8425C1167.47 85.1678 1167.14 81.4448 1166.78 77.7797L1129.43 81.4641C1129.77 84.8206 1130.06 88.2349 1130.31 91.601L1167.74 88.8425L1167.75 88.8425ZM1166.81 166.455L1129.47 162.8C1129.14 166.166 1128.75 169.561 1128.33 172.917L1165.57 177.499C1166.03 173.843 1166.44 170.13 1166.8 166.465L1166.81 166.455ZM1165.53 66.7363C1165.07 63.0808 1164.56 59.3772 1164.01 55.7314L1126.89 61.258C1127.4 64.5951 1127.86 67.9901 1128.29 71.3369L1165.53 66.7267L1165.53 66.7363ZM1164.06 188.494L1126.95 182.996C1126.45 186.334 1125.9 189.709 1125.31 193.037L1162.28 199.46C1162.92 195.824 1163.52 192.14 1164.06 188.494ZM1162.22 44.7651C1161.57 41.1193 1160.87 37.435 1160.14 33.8181L1123.36 41.1869C1124.03 44.4951 1124.67 47.8708 1125.26 51.2176L1162.22 44.7651ZM1160.21 210.378L1123.41 203.039C1122.74 206.356 1122.03 209.703 1121.27 212.983L1157.87 221.239C1158.69 217.651 1159.48 213.995 1160.21 210.378ZM1157.78 22.929C1156.95 19.3314 1156.07 15.6857 1155.15 12.0977L1118.78 21.299C1119.63 24.5879 1120.43 27.9154 1121.19 31.214L1157.78 22.929ZM1155.24 232.041L1118.87 222.878C1118.03 226.148 1117.14 229.456 1116.23 232.706L1152.36 242.785C1153.36 239.236 1154.33 235.629 1155.25 232.051L1155.24 232.041ZM1152.23 1.34359C1151.22 -2.1961 1150.15 -5.79366 1149.05 -9.33335L1113.2 1.67153C1114.21 4.91223 1115.2 8.2108 1116.12 11.4515L1152.24 1.34359L1152.23 1.34359ZM1149.19 253.424L1113.33 242.448C1112.33 245.669 1111.27 248.929 1110.19 252.131L1145.76 263.995C1146.95 260.493 1148.1 256.934 1149.19 253.414L1149.19 253.424ZM1145.6 -19.9331C1144.41 -23.4439 1143.17 -26.974 1141.88 -30.4365L1106.64 -17.6376C1107.8 -14.4644 1108.95 -11.2333 1110.04 -8.02158L1145.6 -19.9235L1145.6 -19.9331ZM1142.06 274.488L1106.8 261.738C1105.64 264.901 1104.42 268.103 1103.18 271.248L1138.1 284.876C1139.46 281.442 1140.8 277.941 1142.07 274.479L1142.06 274.488ZM1137.9 -40.8434C1136.54 -44.277 1135.11 -47.7395 1133.65 -51.1441L1099.11 -36.6092C1100.44 -33.4939 1101.75 -30.3207 1102.99 -27.1765L1137.9 -40.8434ZM1133.89 295.138L1099.32 280.642C1098 283.738 1096.63 286.863 1095.23 289.939L1129.43 305.285C1130.95 301.938 1132.46 298.523 1133.9 295.138L1133.89 295.138ZM1129.16 -61.3292C1127.62 -64.6953 1126.02 -68.0807 1124.4 -71.3985L1090.62 -55.1564C1092.11 -52.1183 1093.58 -49.0126 1094.99 -45.9358L1129.16 -61.3292ZM1124.71 315.315L1090.91 299.131C1089.44 302.16 1087.9 305.207 1086.35 308.207L1119.73 325.23C1121.43 321.951 1123.1 318.614 1124.71 315.315ZM1119.38 -81.3521C1117.68 -84.6314 1115.9 -87.9299 1114.12 -91.1706L1081.21 -73.2696C1082.85 -70.3086 1084.46 -67.2801 1086.03 -64.2806L1119.38 -81.3617L1119.38 -81.3521ZM1114.51 335.02L1081.56 317.177C1079.94 320.128 1078.25 323.108 1076.55 326.021L1109.03 344.674C1110.88 341.492 1112.73 338.241 1114.5 335.01L1114.51 335.02ZM1108.62 -100.854C1106.75 -104.047 1104.82 -107.258 1102.87 -110.393L1070.9 -90.8813C1072.68 -88.0071 1074.46 -85.0654 1076.17 -82.1333L1108.62 -100.854ZM1103.32 354.213L1071.32 334.759C1069.54 337.643 1067.71 340.537 1065.87 343.353L1097.38 363.598C1099.39 360.521 1101.39 357.358 1103.32 354.213ZM1096.89 -119.797C1094.87 -122.893 1092.77 -125.998 1090.67 -129.046L1059.73 -107.972C1061.65 -105.185 1063.58 -102.339 1065.42 -99.5039L1096.89 -119.806L1096.89 -119.797ZM1091.19 372.818L1060.2 351.802C1058.28 354.589 1056.3 357.387 1054.32 360.126L1084.77 381.894C1086.93 378.914 1089.09 375.857 1091.18 372.818L1091.19 372.818ZM1084.22 -138.122C1082.06 -141.102 1079.81 -144.102 1077.55 -147.044L1047.69 -124.465C1049.76 -121.764 1051.82 -119.016 1053.81 -116.286L1084.22 -138.122ZM1078.13 390.826L1048.24 368.305C1046.18 370.996 1044.06 373.696 1041.94 376.329L1071.27 399.573C1073.58 396.699 1075.89 393.758 1078.13 390.826ZM1070.66 -155.792C1068.33 -158.676 1065.94 -161.559 1063.55 -164.376L1034.87 -140.35C1037.05 -137.775 1039.25 -135.132 1041.39 -132.49L1070.66 -155.801L1070.66 -155.792ZM1064.19 408.157L1035.45 384.199C1033.26 386.784 1031.02 389.379 1028.77 391.906L1056.89 416.568C1059.35 413.8 1061.81 410.974 1064.19 408.157ZM1056.22 -172.776C1053.75 -175.535 1051.23 -178.293 1048.69 -180.994L1021.25 -155.589C1023.57 -153.12 1025.89 -150.583 1028.14 -148.056L1056.21 -172.776L1056.22 -172.776ZM1049.38 424.795L1021.89 399.448C1019.56 401.927 1017.18 404.415 1014.81 406.826L1041.68 432.839C1044.26 430.206 1046.86 427.505 1049.38 424.795ZM1040.97 -189.019C1038.36 -191.652 1035.7 -194.294 1033.04 -196.85L1006.91 -170.124C1009.34 -167.771 1011.79 -165.359 1014.17 -162.939L1040.98 -189.019L1040.97 -189.019ZM1033.77 440.69L1007.57 414.022C1005.13 416.375 1002.63 418.738 1000.13 421.033L1025.66 448.348C1028.38 445.84 1031.11 443.265 1033.76 440.69L1033.77 440.69ZM1024.92 -204.489C1022.19 -206.997 1019.39 -209.495 1016.61 -211.925L991.846 -183.936C994.401 -181.708 996.956 -179.422 999.463 -177.126L1024.93 -204.489L1024.92 -204.489ZM1017.37 455.794L992.536 427.862C989.99 430.1 987.367 432.328 984.763 434.507L1008.9 463.037C1011.74 460.665 1014.6 458.224 1017.38 455.794L1017.37 455.794ZM1008.11 -219.149C1005.26 -221.512 1002.35 -223.866 999.444 -226.161L976.097 -196.995C978.759 -194.892 981.431 -192.732 984.045 -190.562L1008.11 -219.149ZM1000.22 470.078L976.816 440.96C974.144 443.072 971.414 445.184 968.713 447.21L991.38 476.897C994.324 474.679 997.297 472.383 1000.21 470.078L1000.22 470.078ZM990.603 -232.951C987.63 -235.179 984.598 -237.388 981.596 -239.529L959.746 -209.244C962.505 -207.286 965.284 -205.261 968.004 -203.216L990.612 -232.951L990.603 -232.951ZM982.383 483.504L960.465 453.267C957.706 455.244 954.869 457.212 952.061 459.112L973.212 489.879C976.282 487.796 979.371 485.655 982.383 483.504ZM972.425 -245.875C969.355 -247.949 966.216 -250.003 963.098 -252L942.792 -220.673C945.649 -218.85 948.524 -216.96 951.342 -215.06L972.425 -245.875ZM963.885 496.042L943.521 464.754C940.655 466.596 937.721 468.419 934.825 470.184L954.402 501.964C957.56 500.045 960.756 498.058 963.885 496.042ZM944.764 507.645L925.994 475.383C923.04 477.08 920.029 478.758 917.036 480.369L934.991 513.085C938.255 511.32 941.539 509.487 944.764 507.635L944.764 507.645ZM925.081 518.293L907.962 485.143C904.921 486.687 901.831 488.22 898.761 489.677L915.035 523.241C918.377 521.64 921.758 519.971 925.081 518.293ZM904.863 527.948L889.444 493.988C886.335 495.377 883.168 496.746 880.02 498.058L894.574 532.394C898.003 530.957 901.462 529.462 904.863 527.948ZM884.178 536.58L870.508 501.887C867.322 503.122 864.086 504.337 860.89 505.485L873.675 540.505C877.173 539.251 880.7 537.93 884.178 536.58ZM863.066 544.18L851.174 508.851C847.939 509.921 844.645 510.973 841.381 511.966L852.369 547.585C855.935 546.504 859.539 545.357 863.066 544.18ZM841.624 550.7L831.539 514.811C828.265 515.718 824.932 516.596 821.629 517.425L830.801 553.545C834.405 552.639 838.048 551.684 841.614 550.69L841.624 550.7ZM819.919 556.13L811.671 519.788C808.338 520.531 804.967 521.244 801.644 521.9L808.979 558.435C812.613 557.722 816.295 556.94 819.919 556.13ZM797.981 560.47L791.569 523.762C788.217 524.34 784.817 524.881 781.455 525.372L786.935 562.226C790.607 561.686 794.328 561.097 797.981 560.47ZM775.84 563.711L771.283 526.732C767.912 527.137 764.492 527.514 761.091 527.842L764.715 564.926C768.417 564.569 772.157 564.164 775.84 563.721L775.84 563.711ZM753.572 565.852L750.88 528.69C747.48 528.931 744.041 529.134 740.64 529.298L742.408 566.508C746.11 566.334 749.87 566.113 753.572 565.852ZM731.235 566.894L730.39 529.645C727.281 529.713 724.114 529.751 720.995 529.751L720.13 529.751L720.062 567L720.995 567C724.405 567 727.845 566.961 731.235 566.884L731.235 566.894ZM709.881 529.607C706.48 529.52 703.031 529.385 699.631 529.211L697.717 566.421C701.428 566.614 705.188 566.759 708.89 566.855L709.89 529.616L709.881 529.607ZM689.39 528.565C686 528.304 682.57 528.005 679.179 527.668L675.4 564.733C679.102 565.1 682.842 565.438 686.544 565.717L689.39 528.575L689.39 528.565ZM668.997 526.52C665.616 526.096 662.196 525.623 658.845 525.122L653.21 561.956C656.872 562.505 660.603 563.026 664.285 563.489L668.988 526.53L668.997 526.52ZM648.731 523.463C645.379 522.874 641.998 522.228 638.665 521.563L631.175 558.069C634.808 558.802 638.51 559.506 642.163 560.152L648.721 523.472L648.731 523.463ZM628.649 519.412C625.336 518.66 621.984 517.849 618.69 517.01L609.363 553.092C612.958 554.008 616.621 554.896 620.235 555.715L628.639 519.412L628.649 519.412ZM608.79 514.348C605.535 513.432 602.222 512.458 598.967 511.455L587.824 547.035C591.38 548.134 594.994 549.195 598.55 550.199L608.78 514.358L608.79 514.348ZM589.223 508.311C585.997 507.221 582.742 506.083 579.556 504.925L566.624 539.898C570.102 541.161 573.658 542.405 577.175 543.592L589.213 508.311L589.223 508.311ZM569.986 501.299C566.838 500.064 563.661 498.772 560.542 497.45L545.862 531.738C549.272 533.175 552.741 534.593 556.18 535.943L569.996 501.308L569.986 501.299ZM551.186 493.371C548.097 491.972 544.988 490.525 541.937 489.05L525.547 522.566C528.879 524.167 532.27 525.758 535.641 527.282L551.186 493.371ZM532.804 484.507C529.802 482.964 526.761 481.363 523.779 479.733L505.717 512.39C508.972 514.165 512.285 515.92 515.569 517.599L532.795 484.507L532.804 484.507ZM514.879 474.737C511.945 473.039 508.982 471.284 506.096 469.519L486.422 501.241C489.57 503.17 492.796 505.079 496.002 506.931L514.879 474.737ZM497.449 464.088C494.593 462.246 491.727 460.346 488.939 458.437L467.691 489.146C470.741 491.22 473.86 493.293 476.979 495.309L497.449 464.088ZM480.573 452.582C477.824 450.605 475.055 448.56 472.354 446.515L449.6 476.145C452.544 478.373 455.565 480.601 458.568 482.761L480.573 452.582ZM464.29 440.256C461.628 438.134 458.966 435.954 456.382 433.794L432.17 462.266C434.998 464.629 437.893 467.001 440.798 469.316L464.29 440.266L464.29 440.256ZM448.629 427.139C446.083 424.891 443.528 422.586 441.05 420.291L415.45 447.528C418.16 450.036 420.939 452.553 423.718 455.003L448.629 427.139ZM433.637 413.25C431.209 410.887 428.77 408.457 426.409 406.036L399.477 431.981C402.062 434.623 404.714 437.266 407.366 439.851L433.637 413.25ZM419.356 398.648C417.053 396.169 414.741 393.623 412.496 391.086L384.302 415.671C386.75 418.439 389.276 421.217 391.792 423.927L419.365 398.648L419.356 398.648ZM405.822 383.351C403.636 380.756 401.459 378.094 399.341 375.452L369.952 398.619C372.254 401.503 374.635 404.396 377.015 407.232L405.812 383.351L405.822 383.351ZM401.343 -133.396L372.138 -156.785C369.806 -153.911 367.474 -150.979 365.22 -148.056L395.008 -125.391C397.078 -128.072 399.205 -130.763 401.343 -133.396ZM393.065 367.398C391.015 364.697 388.965 361.929 386.983 359.19L356.467 380.872C358.623 383.862 360.858 386.881 363.093 389.832L393.055 367.398L393.065 367.398ZM388.868 -117.241L358.526 -139.164C356.34 -136.184 354.164 -133.136 352.056 -130.107L382.941 -108.946C384.875 -111.724 386.867 -114.521 388.868 -117.25L388.868 -117.241ZM381.115 350.828C379.201 348.031 377.297 345.176 375.461 342.331L343.895 362.479C345.906 365.585 347.985 368.71 350.074 371.758L381.125 350.828L381.115 350.828ZM377.229 -100.488L345.828 -120.877C343.797 -117.791 341.777 -114.637 339.824 -111.512L371.73 -91.9036C373.517 -94.7682 375.373 -97.6616 377.229 -100.488ZM370.02 333.689C368.252 330.795 366.493 327.844 364.793 324.912L332.255 343.469C334.101 346.671 336.025 349.892 337.958 353.046L370.02 333.689ZM366.435 -83.1942L334.043 -102.002C332.168 -98.819 330.302 -95.5686 328.515 -92.3472L361.373 -74.3499C363.015 -77.3012 364.715 -80.2718 366.435 -83.1942ZM359.789 316.01C358.167 313.039 356.564 310.001 355.009 306.982L321.568 323.89C323.259 327.179 325.017 330.496 326.785 333.747L359.789 316.01ZM356.535 -65.3801L323.239 -82.5577C321.529 -79.288 319.839 -75.9509 318.207 -72.6426L351.929 -56.2946C353.426 -59.3327 354.97 -62.3805 356.544 -65.3801L356.535 -65.3801ZM350.462 297.839C348.986 294.781 347.538 291.666 346.149 288.58L311.891 303.799C313.407 307.165 315 310.57 316.604 313.907L350.462 297.839ZM347.548 -47.1029L313.427 -62.6023C311.882 -59.2459 310.356 -55.8315 308.899 -52.4462L343.409 -37.7955C344.74 -40.8915 346.139 -44.0261 347.557 -47.0932L347.548 -47.1029ZM342.068 279.214C340.756 276.089 339.464 272.907 338.23 269.753L303.254 283.246C304.605 286.689 306.014 290.171 307.451 293.576L342.078 279.214L342.068 279.214ZM339.493 -28.411L304.624 -42.1936C303.254 -38.7697 301.904 -35.2781 300.621 -31.8253L335.821 -18.9204C336.997 -22.084 338.23 -25.2764 339.493 -28.411ZM334.626 260.195C333.47 257.012 332.343 253.771 331.264 250.55L295.647 262.268C296.823 265.789 298.056 269.328 299.31 272.81L334.626 260.204L334.626 260.195ZM332.391 -9.33332L296.871 -21.3605C295.676 -17.8691 294.501 -14.3197 293.393 -10.809L329.205 0.321287C330.215 -2.89048 331.293 -6.14078 332.391 -9.3429L332.391 -9.33332ZM328.155 240.818C327.174 237.596 326.212 234.308 325.299 231.048L289.128 240.972C290.119 244.531 291.168 248.119 292.247 251.639L328.155 240.818ZM326.28 10.0627L290.197 -0.170655C289.176 3.36904 288.185 6.9763 287.262 10.5353L323.589 19.8716C324.444 16.6116 325.348 13.313 326.28 10.0627ZM322.695 221.21C321.869 217.94 321.082 214.603 320.344 211.314L283.716 219.416C284.523 223.013 285.387 226.649 286.291 230.228L322.705 221.21L322.695 221.21ZM321.15 29.7383L284.591 21.3087C283.755 24.8966 282.949 28.5423 282.201 32.1495L318.955 39.663C319.635 36.3645 320.373 33.0176 321.141 29.7383L321.15 29.7383ZM318.245 201.351C317.585 198.043 316.963 194.667 316.39 191.339L279.393 197.609C280.015 201.245 280.695 204.919 281.414 208.536L318.236 201.351L318.245 201.351ZM317.021 49.6359L280.083 43.0388C279.422 46.6653 278.81 50.3496 278.246 53.9857L315.34 59.657C315.855 56.3294 316.429 52.9537 317.021 49.6359ZM314.796 181.289C314.311 177.952 313.854 174.557 313.456 171.201L276.196 175.628C276.634 179.283 277.129 182.996 277.663 186.642L314.806 181.299L314.796 181.289ZM313.903 69.7263L276.682 64.9713C276.206 68.6267 275.779 72.3304 275.39 75.9858L312.717 79.8149C313.067 76.4681 313.465 73.073 313.893 69.7263L313.903 69.7263ZM312.358 161.083C312.037 157.727 311.755 154.312 311.522 150.937L274.088 153.522C274.341 157.196 274.652 160.919 275.001 164.584L312.358 161.083ZM311.794 89.9325L274.38 87.0197C274.088 90.6751 273.845 94.398 273.641 98.0728L311.114 100.069C311.299 96.6935 311.522 93.2889 311.785 89.9325L311.794 89.9325ZM310.939 140.771C310.784 137.395 310.677 133.971 310.609 130.595L273.087 131.338C273.165 135.023 273.282 138.755 273.447 142.43L310.939 140.771ZM310.696 110.225L273.185 109.145C273.078 112.83 273.01 116.562 273 120.237L310.531 120.401C310.551 117.025 310.609 113.601 310.706 110.216L310.696 110.225Z" fill="url(#paint0_linear_697_7372)"/>
<path d="M616 -317C418.728 -270.13 272 -92.8754 272 118.631C272 365.921 472.576 566.389 720 566.389C967.424 566.389 1168 365.921 1168 118.631C1168 -92.5179 1021.77 -269.531 825 -316.761" stroke="#DBDBDB"/>
</g>
<defs>
<linearGradient id="paint0_linear_697_7372" x1="721" y1="220" x2="721" y2="2638" gradientUnits="userSpaceOnUse">
<stop stop-color="#F3F3F3"/>
<stop offset="1" stop-color="#DBDBDB" stop-opacity="0"/>
</linearGradient>
<linearGradient id="paint1_linear_697_7372" x1="606" y1="508.5" x2="594" y2="548.5" gradientUnits="userSpaceOnUse">
<stop offset="0.35" stop-color="#DBDBDB"/>
<stop offset="1" stop-color="#EE4503"/>
</linearGradient>
<clipPath id="clip0_697_7372">
<rect width="1440" height="655" fill="white"/>
</clipPath>
</defs>
</svg>
