<svg width="33" height="32" viewBox="0 0 33 32" fill="none" xmlns="http://www.w3.org/2000/svg">
<g clip-path="url(#clip0_436_6374)">
<path d="M11.3993 32C8.60653 32.0003 5.81478 30.9373 3.68872 28.8113C-0.562906 24.5596 -0.562906 17.6417 3.68872 13.3901L13.8139 3.26487L14.7313 8.7745L32.5 0L23.7254 17.7686L29.235 18.6861L19.1098 28.8113C16.9843 30.9368 14.1913 31.9997 11.3993 32ZM12.5629 7.1675L5.01453 14.7159C1.49397 18.2364 1.49397 23.9649 5.01453 27.4854C8.53509 31.0058 14.2635 31.0059 17.784 27.4854L25.3325 19.9371L20.9238 19.2029L28.3934 4.10663L13.2971 11.5762L12.5629 7.1675Z" fill="#020011"/>
<path d="M11.3527 28.2972C9.52061 28.2972 7.68848 27.5999 6.29373 26.2051C4.9443 24.8557 4.20117 23.0591 4.20117 21.1462C4.20117 19.2333 4.94436 17.4366 6.29373 16.0873C9.08323 13.2977 13.6221 13.2977 16.4116 16.0873C19.2011 18.8768 19.2011 23.4157 16.4116 26.2052C15.0169 27.5999 13.1847 28.2972 11.3527 28.2972ZM11.3527 15.8692C10.0005 15.8692 8.64892 16.3837 7.61955 17.413C6.6243 18.4083 6.07617 19.7341 6.07617 21.1462C6.07617 22.5582 6.6243 23.884 7.61955 24.8792C8.64867 25.9083 10.0009 26.4229 11.3527 26.423C12.7048 26.4232 14.0564 25.9086 15.0858 24.8792C17.1442 22.8207 17.1442 19.4715 15.0858 17.413C14.0567 16.384 12.7044 15.8692 11.3527 15.8692Z" fill="#020011"/>
<path d="M10.1807 19.6602L11.5063 18.3345L12.832 19.6602L11.5063 20.9858L10.1807 19.6602Z" fill="#020011"/>
<path d="M10.1807 22.313L11.5063 20.9874L12.8319 22.313L11.5063 23.6386L10.1807 22.313Z" fill="#020011"/>
<path d="M16.8398 4.17188L21.01 0.00172427L22.3356 1.32735L18.1655 5.4975L16.8398 4.17188Z" fill="#020011"/>
<path d="M26.998 14.3955L31.1682 10.2254L32.4938 11.551L28.3237 15.7211L26.998 14.3955Z" fill="#020011"/>
</g>
<defs>
<clipPath id="clip0_436_6374">
<rect width="32" height="32" fill="white" transform="translate(0.5)"/>
</clipPath>
</defs>
</svg>
