<svg width="33" height="32" viewBox="0 0 33 32" fill="none" xmlns="http://www.w3.org/2000/svg">
<g clip-path="url(#clip0_270_4941)">
<path d="M21.2236 31.9999C19.1559 31.9999 17.4736 30.3176 17.4736 28.2499C17.4736 26.1822 19.1559 24.5 21.2236 24.5C23.2913 24.5 24.9735 26.1822 24.9735 28.2499C24.9735 30.3176 23.2913 31.9999 21.2236 31.9999ZM21.2236 27C20.5343 27 19.9736 27.5607 19.9736 28.2499C19.9736 28.9392 20.5343 29.4999 21.2236 29.4999C21.9128 29.4999 22.4735 28.9392 22.4735 28.2499C22.4735 27.5607 21.9128 27 21.2236 27Z" fill="#020011"/>
<path d="M17.9633 16.3045L5.13379 29.1338C4.64649 29.6212 3.85344 29.6212 3.36614 29.1338C2.87871 28.6465 2.87871 27.8535 3.36614 27.3661L16.1985 14.5337C16.6867 14.0456 16.6867 13.2541 16.1985 12.766C15.7103 12.2779 14.9188 12.2778 14.4307 12.766L1.59829 25.5983C0.890056 26.3066 0.5 27.2483 0.5 28.2499C0.5 29.2515 0.890056 30.1933 1.59829 30.9015C2.30659 31.6098 3.24826 31.9999 4.24993 31.9999C5.2516 31.9999 6.19327 31.6098 6.90157 30.9015L19.7309 18.0722C20.2191 17.584 20.2192 16.7926 19.731 16.3045C19.2429 15.8163 18.4514 15.8163 17.9633 16.3045Z" fill="#020011"/>
<path d="M31.7915 14.7268C31.7907 14.7235 31.7898 14.7203 31.789 14.717C31.2265 12.5596 30.3166 10.5238 29.1086 8.69471L30.3571 7.44623C31.8191 5.98414 31.8191 3.60518 30.3571 2.14308C28.8949 0.680979 26.5159 0.680854 25.0538 2.14308L23.8054 3.39149C21.9763 2.18358 19.9406 1.27359 17.7832 0.711103C17.7799 0.710228 17.7767 0.709416 17.7734 0.708603C14.2643 -0.176069 11.0762 -0.231818 8.02676 0.538231C8.02464 0.538731 8.02258 0.539294 8.02039 0.539856C6.97841 0.808789 6.21173 1.70559 6.11261 2.77144C6.01036 3.87048 6.62354 4.87022 7.71296 5.38052C8.17239 5.59564 8.63082 5.80801 9.08643 6.01901C13.0185 7.8401 16.7774 9.5952 19.8886 12.6115C23.2684 16.0978 25.0799 20.4316 27.1196 24.7872C27.6122 25.8392 28.5942 26.4958 29.7368 26.3865C30.8045 26.2844 31.6987 25.5156 31.9619 24.4734C32.732 21.4238 32.6762 18.2357 31.7915 14.7268ZM26.8215 3.91086C27.31 3.42231 28.1007 3.42231 28.5892 3.91086C29.0766 4.39823 29.0766 5.19121 28.5893 5.67858L27.5859 6.68187C27.316 6.36919 27.0364 6.06476 26.7469 5.76976C26.7414 5.7642 26.7358 5.75864 26.7302 5.75314C26.4353 5.46364 26.1308 5.18402 25.8181 4.91409L26.8215 3.91086ZM29.5379 23.8613C29.5315 23.8868 29.5111 23.8948 29.5026 23.897C29.4247 23.8461 29.3875 23.7403 28.7494 22.3628C27.811 20.3366 26.9246 18.4226 25.9085 16.6569C24.6736 14.4329 23.2474 12.4816 21.6692 10.8566C21.6607 10.8479 21.6522 10.8393 21.6435 10.8309C20.0186 9.25276 18.067 7.82642 15.8433 6.59169C14.0775 5.57546 12.1633 4.68891 10.137 3.75049C8.71744 3.093 8.65432 3.07262 8.60288 2.99806C8.60569 2.98875 8.61494 2.96881 8.64369 2.96088C11.279 2.29633 14.0637 2.35214 17.1573 3.13144C20.1235 3.9058 22.8249 5.42627 24.9707 7.52898C27.0737 9.67488 28.5943 12.3768 29.3687 15.3431C30.1484 18.4384 30.2038 21.2247 29.5379 23.8613Z" fill="#020011"/>
</g>
<defs>
<clipPath id="clip0_270_4941">
<rect width="32" height="32" fill="white" transform="translate(0.5)"/>
</clipPath>
</defs>
</svg>
