<svg width="48" height="48" viewBox="0 0 48 48" fill="none" xmlns="http://www.w3.org/2000/svg">
<g clip-path="url(#clip0_272_6510)">
<path d="M5.23064 24C8.97771 27.1274 11.2178 31.8087 11.2178 36.7738V38.7499C11.2178 41.7828 13.685 44.25 16.7176 44.25C17.7532 44.25 18.5926 45.0894 18.5926 46.125C18.5926 47.1606 17.7532 48 16.7176 48C11.6174 48 7.46782 43.8505 7.46782 38.7499V36.7738C7.46782 32.1888 5.00102 27.9163 1.0302 25.6238C-0.219681 24.9023 -0.217117 23.0962 1.0302 22.3762C5.00102 20.0837 7.46782 15.8112 7.46782 11.2258V9.25012C7.46782 4.14954 11.6174 0 16.7176 0C17.7532 0 18.5926 0.839355 18.5926 1.875C18.5926 2.91064 17.7532 3.75 16.7176 3.75C13.685 3.75 11.2178 6.21716 11.2178 9.25012V11.2262C11.2178 16.1913 8.97771 20.8726 5.23064 24ZM47.1552 22.3762C43.1844 20.0837 40.7176 15.8112 40.7176 11.2262V9.25012C40.7176 4.14954 36.568 0 31.4678 0C30.4322 0 29.5928 0.839355 29.5928 1.875C29.5928 2.91064 30.4322 3.75 31.4678 3.75C34.5004 3.75 36.9676 6.21716 36.9676 9.25012V11.2262C36.9676 16.1913 39.2077 20.8726 42.9548 24C39.2077 27.1274 36.9676 31.8087 36.9676 36.7738V38.7499C36.9676 41.7828 34.5004 44.25 31.4678 44.25C30.4322 44.25 29.5928 45.0894 29.5928 46.125C29.5928 47.1606 30.4322 48 31.4678 48C36.568 48 40.7176 43.8505 40.7176 38.7499V36.7738C40.7176 32.1888 43.1844 27.9163 47.1552 25.6238C48.4025 24.9038 48.4047 23.0977 47.1552 22.3762Z" fill="#717171"/>
</g>
<defs>
<clipPath id="clip0_272_6510">
<rect width="48" height="48" fill="white"/>
</clipPath>
</defs>
</svg>
