<svg width="39" height="39" viewBox="0 0 39 39" fill="none" xmlns="http://www.w3.org/2000/svg">
<g clip-path="url(#clip0_270_4896)">
<path d="M32.7914 17.8165H32.5843H24.1234H23.8626L23.7133 17.6026C23.3333 17.058 22.7041 16.7032 21.9922 16.7032C20.8338 16.7032 19.8945 17.6422 19.8945 18.8009C19.8945 19.9592 20.8338 20.8985 21.9922 20.8985C22.7041 20.8985 23.3333 20.5437 23.7133 19.9991L23.8626 19.7852H24.1234H33.1992C33.4604 19.7852 33.7108 19.6816 33.8956 19.4969L36.864 16.5285L32.7914 17.8165ZM32.7914 17.8165L32.9379 17.67M32.7914 17.8165L32.9379 17.67M32.9379 17.67L35.0371 15.5707L35.1836 15.4243V15.2172V8.76016V8.49937L34.9697 8.35013C34.4251 7.97008 34.0703 7.34089 34.0703 6.62898C34.0703 5.47036 35.0096 4.53133 36.168 4.53133C37.3264 4.53133 38.2656 5.47036 38.2656 6.62898C38.2656 7.34089 37.9108 7.97008 37.3662 8.35013L37.1523 8.49937M32.9379 17.67L37.1523 8.49937M37.1523 8.49937V8.76016M37.1523 8.49937V8.76016M37.1523 8.76016V15.8321C37.1523 16.0932 37.0488 16.3435 36.8642 16.5283L37.1523 8.76016ZM10.0145 33.0397L10.0143 33.0397C8.32041 32.1927 6.78291 30.9949 5.44565 29.4755C2.78666 26.4541 1.26562 22.5077 1.26562 18.66V8.2473C1.26562 7.85953 1.49323 7.50786 1.847 7.349C1.84703 7.34898 1.84707 7.34897 1.8471 7.34895L15.2146 1.35188C15.4701 1.23737 15.7618 1.23686 16.0175 1.35047L16.0175 1.35049L29.5169 7.34771L29.517 7.34775C29.8723 7.50552 30.1016 7.85806 30.1016 8.2473V12.8634C30.1016 13.4071 29.6609 13.8477 29.1172 13.8477C28.5734 13.8477 28.1328 13.4071 28.1328 12.8634V9.21214V8.88715L27.8358 8.7552L15.8237 3.4187L15.6197 3.32808L15.416 3.41944L3.52972 8.75189L3.23438 8.88438V9.20808V18.66C3.23438 22.2692 4.71175 25.7052 6.99215 28.2391C9.27113 30.7715 12.3858 32.4376 15.6836 32.4376C16.2273 32.4376 16.668 32.8782 16.668 33.422C16.668 33.9657 16.2273 34.4063 15.6836 34.4063C13.7369 34.4063 11.8305 33.9483 10.0145 33.0397ZM34.0368 24.4962H34.2976L34.4468 24.2823C34.8269 23.7377 35.4561 23.3829 36.168 23.3829C37.3264 23.3829 38.2656 24.3219 38.2656 25.4805C38.2656 26.6389 37.3263 27.5782 36.168 27.5782C35.4561 27.5782 34.8269 27.2234 34.4468 26.6788L34.2976 26.4649H34.0368H17.3695H17.1087L16.9594 26.6788C16.5794 27.2234 15.9502 27.5782 15.2383 27.5782C14.0799 27.5782 13.1406 26.6389 13.1406 25.4805C13.1406 24.3219 14.0799 23.3829 15.2383 23.3829C15.9502 23.3829 16.5794 23.7377 16.9594 24.2823L17.1087 24.4962H17.3695H34.0368ZM35.552 33.9373L35.7198 34.105L35.9558 34.0812C36.0259 34.0741 36.0967 34.0704 36.168 34.0704C37.3264 34.0704 38.2656 35.0094 38.2656 36.168C38.2656 37.3264 37.3263 38.2657 36.168 38.2657C35.0096 38.2657 34.0703 37.3264 34.0703 36.168C34.0703 35.9889 34.0928 35.8153 34.1347 35.6498L34.2045 35.3744L34.0036 35.1735L32.1215 33.2911L31.975 33.1446H31.7679H24.6733H24.3684L24.2288 33.4157C23.88 34.0932 23.1752 34.5548 22.3633 34.5548C21.2049 34.5548 20.2656 33.6155 20.2656 32.4571C20.2656 31.2985 21.2049 30.3595 22.3633 30.3595C22.9645 30.3595 23.5061 30.6123 23.8895 31.0189L24.0375 31.1759H24.2533H32.3828C32.6439 31.1759 32.8942 31.2795 33.079 31.4643L35.552 33.9373Z" fill="#E0E0E0" stroke="#F3F3F3"/>
</g>
<defs>
<clipPath id="clip0_270_4896">
<rect width="38" height="38" fill="white" transform="translate(0.765625 0.765625)"/>
</clipPath>
</defs>
</svg>
