<svg width="319" height="89" viewBox="0 0 319 89" fill="none" xmlns="http://www.w3.org/2000/svg">
<path fill-rule="evenodd" clip-rule="evenodd" d="M249.788 28.544C248.722 25.2396 245.646 23 242.174 23H76.825C73.3529 23 70.2772 25.2396 69.2113 28.544L62.7881 48.456C61.7221 51.7604 58.6465 54 55.1744 54H24.6424C21.7715 54 19.1208 55.5383 17.6965 58.0309L6.83932 77.0309C3.79174 82.3641 7.64267 89 13.7852 89H305.214C311.357 89 315.208 82.3641 312.16 77.0309L301.303 58.0309C299.879 55.5383 297.228 54 294.357 54H263.825C260.353 54 257.277 51.7604 256.211 48.456L249.788 28.544Z" fill="#EE4503"/>
<path d="M17.6966 58.0309C19.121 55.5383 21.7717 54 24.6426 54H294.357C297.228 54 299.879 55.5383 301.303 58.0309L319 89H0L17.6966 58.0309Z" fill="#EE4503"/>
</svg>
