<svg width="15" height="15" viewBox="0 0 15 15" fill="none" xmlns="http://www.w3.org/2000/svg">
<path d="M6.3584 14.0918C5.94173 14.0918 5.58757 13.9121 5.2959 13.5527L1.24902 8.56836C1.13444 8.43294 1.05111 8.30013 0.999023 8.16992C0.952148 8.03971 0.928711 7.9043 0.928711 7.76367C0.928711 7.45117 1.03288 7.19336 1.24121 6.99023C1.44954 6.78711 1.71257 6.68555 2.03027 6.68555C2.38965 6.68555 2.69173 6.83919 2.93652 7.14648L6.32715 11.4434L12.9443 0.958984C13.0798 0.750651 13.2204 0.604818 13.3662 0.521484C13.512 0.432943 13.6943 0.388672 13.9131 0.388672C14.2308 0.388672 14.4912 0.48763 14.6943 0.685547C14.8975 0.883464 14.999 1.13607 14.999 1.44336C14.999 1.56836 14.9782 1.69336 14.9365 1.81836C14.8949 1.94336 14.8298 2.07357 14.7412 2.20898L7.42871 13.5215C7.17871 13.9017 6.82194 14.0918 6.3584 14.0918Z" fill="#EE4503"/>
</svg>
