<svg width="259" height="86" viewBox="0 0 259 86" fill="none" xmlns="http://www.w3.org/2000/svg">
<path fill-rule="evenodd" clip-rule="evenodd" d="M43 4C43 1.79086 41.2091 0 39 0H4C1.79086 0 0 1.79086 0 4V39C0 41.2091 1.79086 43 4 43H38.7163C39.9314 43 41.0806 43.5524 41.8397 44.5012L42.1235 44.8559C42.6909 45.5652 43 46.4464 43 47.3547V82C43 84.2091 44.7909 86 47 86H86H125C127.209 86 129 84.2091 129 82V47.2837C129 46.0686 129.552 44.9194 130.501 44.1603L130.856 43.8765C131.565 43.3091 132.446 43 133.355 43H167.216C168.431 43 169.581 43.5524 170.34 44.5012L171.123 45.4809C171.691 46.1902 172 47.0714 172 47.9797V82C172 84.2091 173.791 86 176 86H212C214.209 86 216 84.2091 216 82V47.7297C216 46.8214 216.309 45.9402 216.877 45.2309L217.46 44.5012C218.219 43.5524 219.369 43 220.584 43H255C257.209 43 259 41.2091 259 39V4C259 1.79086 257.209 0 255 0H220C217.791 0 216 1.79086 216 4V38.5203C216 39.4286 215.691 40.3098 215.123 41.0191L214.74 41.4988C213.981 42.4476 212.831 43 211.616 43H176.184C174.969 43 173.819 42.4476 173.06 41.4988L172.877 41.2691C172.309 40.5598 172 39.6786 172 38.7703V4C172 1.79086 170.209 0 168 0H133C130.791 0 129 1.79086 129 4V38.3162C129 39.5314 128.448 40.6806 127.499 41.4397L126.644 42.1235C125.935 42.6909 125.054 43 124.145 43H86H47.6838C46.4686 43 45.3194 42.4476 44.5603 41.4988L43.8765 40.6441C43.3091 39.9348 43 39.0536 43 38.1453V4Z" fill="#D9D9D9"/>
</svg>
