<svg width="259" height="86" viewBox="0 0 259 86" fill="none" xmlns="http://www.w3.org/2000/svg">
<path fill-rule="evenodd" clip-rule="evenodd" d="M216 4C216 1.79086 217.791 0 220 0H255C257.209 0 259 1.79086 259 4V39C259 41.2091 257.209 43 255 43H220.284C219.069 43 217.919 43.5524 217.16 44.5012L216.877 44.8559C216.309 45.5652 216 46.4464 216 47.3547V82C216 84.2091 214.209 86 212 86H173H134C131.791 86 130 84.2091 130 82V47.2837C130 46.0686 129.448 44.9194 128.499 44.1603L128.144 43.8765C127.435 43.3091 126.554 43 125.645 43H91.7838C90.5686 43 89.4194 43.5524 88.6603 44.5012L87.8765 45.4809C87.3091 46.1902 87 47.0714 87 47.9797V82C87 84.2091 85.2091 86 83 86H47C44.7909 86 43 84.2091 43 82V47.7297C43 46.8214 42.6909 45.9402 42.1235 45.2309L41.5397 44.5012C40.7806 43.5524 39.6314 43 38.4162 43H4C1.79086 43 0 41.2091 0 39V4C0 1.79086 1.79086 0 4 0H39C41.2091 0 43 1.79086 43 4V38.5203C43 39.4286 43.3091 40.3098 43.8765 41.0191L44.2603 41.4988C45.0193 42.4476 46.1686 43 47.3837 43H82.8163C84.0314 43 85.1806 42.4476 85.9397 41.4988L86.1235 41.2691C86.6909 40.5598 87 39.6786 87 38.7703V4C87 1.79086 88.7909 0 91 0H126C128.209 0 130 1.79086 130 4V38.3162C130 39.5314 130.552 40.6806 131.501 41.4397L132.356 42.1235C133.065 42.6909 133.946 43 134.855 43H173H211.316C212.531 43 213.681 42.4476 214.44 41.4988L215.123 40.6441C215.691 39.9348 216 39.0536 216 38.1453V4Z" fill="#D9D9D9"/>
</svg>
