<svg width="33" height="32" viewBox="0 0 33 32" fill="none" xmlns="http://www.w3.org/2000/svg">
<g clip-path="url(#clip0_436_6389)">
<path d="M29.2293 5.18162L16.9793 0.0955547C16.6724 -0.0318203 16.3275 -0.0318828 16.0207 0.0955547L3.77069 5.18162C3.30413 5.37537 3 5.83087 3 6.33605V12.5189C3 21.0322 8.14556 28.6901 16.0276 31.9073C16.3304 32.0309 16.6696 32.0309 16.9724 31.9073C24.8543 28.6902 30 21.0322 30 12.5189V6.33605C30 5.83087 29.6959 5.37537 29.2293 5.18162ZM27.5 12.5189C27.5 19.7561 23.25 26.4184 16.5 29.3922C9.93037 26.4978 5.5 19.9522 5.5 12.5189V7.17055L16.5 2.60343L27.5 7.17055V12.5189ZM15.1184 16.7322L20.4911 11.3596C20.9792 10.8714 21.7707 10.8714 22.2589 11.3596C22.7471 11.8477 22.747 12.6392 22.2588 13.1273L16.0022 19.3839C15.514 19.8721 14.7226 19.8719 14.2345 19.3839L10.7411 15.8905C10.2529 15.4023 10.2529 14.6109 10.7411 14.1227C11.2293 13.6346 12.0207 13.6346 12.5089 14.1227L15.1184 16.7322Z" fill="#020011"/>
</g>
<defs>
<clipPath id="clip0_436_6389">
<rect width="32" height="32" fill="white" transform="translate(0.5)"/>
</clipPath>
</defs>
</svg>
